<?xml version="1.0" encoding="UTF-8" standalone="no"?>
<!-- Created with Inkscape (http://www.inkscape.org/) -->

<svg
   xmlns:dc="http://purl.org/dc/elements/1.1/"
   xmlns:cc="http://creativecommons.org/ns#"
   xmlns:rdf="http://www.w3.org/1999/02/22-rdf-syntax-ns#"
   xmlns:svg="http://www.w3.org/2000/svg"
   xmlns="http://www.w3.org/2000/svg"
   xmlns:sodipodi="http://sodipodi.sourceforge.net/DTD/sodipodi-0.dtd"
   xmlns:inkscape="http://www.inkscape.org/namespaces/inkscape"
   width="155.46741mm"
   height="40.664894mm"
   viewBox="0 0 155.46741 40.664894"
   version="1.1"
   id="svg8"
   inkscape:version="0.92.5 (2060ec1f9f, 2020-04-08)"
   sodipodi:docname="BoseFermiCartoon.svg">
  <defs
     id="defs2" />
  <sodipodi:namedview
     id="base"
     pagecolor="#ffffff"
     bordercolor="#666666"
     borderopacity="1.0"
     inkscape:pageopacity="0.0"
     inkscape:pageshadow="2"
     inkscape:zoom="1.0071298"
     inkscape:cx="-106.71538"
     inkscape:cy="171.60597"
     inkscape:document-units="mm"
     inkscape:current-layer="layer1"
     showgrid="false"
     showguides="true"
     inkscape:guide-bbox="true"
     inkscape:window-width="2560"
     inkscape:window-height="1375"
     inkscape:window-x="0"
     inkscape:window-y="0"
     inkscape:window-maximized="1"
     fit-margin-top="0"
     fit-margin-left="0"
     fit-margin-right="0"
     fit-margin-bottom="0" />
  <metadata
     id="metadata5">
    <rdf:RDF>
      <cc:Work
         rdf:about="">
        <dc:format>image/svg+xml</dc:format>
        <dc:type
           rdf:resource="http://purl.org/dc/dcmitype/StillImage" />
        <dc:title></dc:title>
      </cc:Work>
    </rdf:RDF>
  </metadata>
  <g
     inkscape:label="Layer 1"
     inkscape:groupmode="layer"
     id="layer1"
     transform="translate(-19.74243,-72.662624)">
    <g
       id="g941"
       transform="translate(78.661063,2.0889071)">
      <g
         id="g921">
        <circle
           style="opacity:1;fill:#fcaf3e;fill-opacity:0.93468472;fill-rule:nonzero;stroke:#000000;stroke-width:0.56526434;stroke-linecap:round;stroke-linejoin:miter;stroke-miterlimit:10;stroke-dasharray:none;stroke-dashoffset:0;stroke-opacity:1;paint-order:normal"
           id="path842"
           cx="37.724125"
           cy="98.156639"
           r="12.799341" />
        <circle
           style="opacity:1;fill:#000000;fill-opacity:0.93468472;fill-rule:nonzero;stroke:none;stroke-width:1.87726998;stroke-linecap:round;stroke-linejoin:miter;stroke-miterlimit:10;stroke-dasharray:none;stroke-dashoffset:0;stroke-opacity:1;paint-order:normal"
           id="path848"
           cx="37.710239"
           cy="97.893517"
           r="1.7612381" />
        <circle
           r="1.3688886"
           cy="95.193222"
           cx="45.072567"
           id="circle850"
           style="opacity:1;fill:#000000;fill-opacity:0.93468472;fill-rule:nonzero;stroke:none;stroke-width:1.45907223;stroke-linecap:round;stroke-linejoin:miter;stroke-miterlimit:10;stroke-dasharray:none;stroke-dashoffset:0;stroke-opacity:1;paint-order:normal" />
        <path
           style="opacity:1;fill:#000000;fill-opacity:0.93468472;fill-rule:nonzero;stroke:none;stroke-width:0.69433266;stroke-linecap:round;stroke-linejoin:miter;stroke-miterlimit:10;stroke-dasharray:none;stroke-dashoffset:0;stroke-opacity:1;paint-order:normal"
           id="path854"
           d="m 45.088693,90.055897 c -0.02968,0.0079 -0.05946,0.01521 -0.08903,0.02361 -0.03981,0.01131 -0.07938,0.02367 -0.119076,0.03551 -0.04785,0.012 -0.09584,0.02309 -0.143509,0.03596 -0.05072,0.01369 -0.201516,0.06104 -0.15161,0.04378 0.664639,-0.229843 0.599588,-0.207879 0.313959,-0.08611 -0.400942,0.183747 -0.764895,0.442038 -1.107515,0.733563 -0.336401,0.301068 -0.611077,0.672589 -0.85923,1.058042 -0.190436,0.30888 -0.346388,0.639696 -0.474548,0.981766 -0.08879,0.226145 -0.164349,0.457321 -0.246103,0.686181 -0.06342,0.173667 -0.115964,0.351064 -0.163492,0.529855 -0.02065,0.0786 -0.03946,0.157672 -0.05846,0.236686 0,0 -0.676291,0.190143 -0.676291,0.190143 v 0 c 0.01931,-0.08003 0.03918,-0.159956 0.06047,-0.239491 0.04935,-0.181102 0.102011,-0.361501 0.167,-0.537476 0.08233,-0.229982 0.158536,-0.462311 0.250386,-0.688544 0.130293,-0.348167 0.289234,-0.684397 0.480671,-1.000264 0.248297,-0.390996 0.522657,-0.770269 0.857628,-1.080156 0.127392,-0.110722 0.22586,-0.200418 0.36071,-0.300854 0.23402,-0.174298 0.483794,-0.320847 0.738882,-0.45294 0.48344,-0.217987 0.987298,-0.3643 1.491469,-0.50223 0,0 -0.632322,0.332957 -0.632322,0.332957 z"
           inkscape:connector-curvature="0" />
        <path
           inkscape:connector-curvature="0"
           d="m 34.083954,94.662441 c 0.0261,-0.01619 0.05184,-0.03285 0.07823,-0.04861 0.03553,-0.02123 0.07165,-0.04155 0.107499,-0.06232 0.04154,-0.0266 0.08252,-0.05392 0.124579,-0.0798 0.04474,-0.02753 0.182611,-0.104824 0.135826,-0.08034 -0.623046,0.326169 -0.562453,0.293881 -0.277962,0.169476 0.408675,-0.165837 0.846244,-0.253637 1.293375,-0.303127 0.449813,-0.03841 0.908582,0.01641 1.359305,0.100095 0.35541,0.07319 0.70314,0.186516 1.040006,0.327792 0.225489,0.09044 0.445569,0.193963 0.668209,0.291387 0.169897,0.07292 0.335049,0.15632 0.497778,0.244324 0.07137,0.03887 0.141823,0.07939 0.212365,0.119746 0,0 0.602138,-0.361874 0.602138,-0.361874 v 0 c -0.07149,-0.04082 -0.143294,-0.08116 -0.215785,-0.120206 -0.165659,-0.08826 -0.333077,-0.173633 -0.505729,-0.246996 -0.223853,-0.09777 -0.445215,-0.201616 -0.672867,-0.28989 -0.342765,-0.143904 -0.696486,-0.258771 -1.057668,-0.33602 -0.454856,-0.08738 -0.919051,-0.14775 -1.374303,-0.116424 -0.167947,0.0168 -0.300753,0.02697 -0.466326,0.05626 -0.287336,0.05082 -0.565278,0.132135 -0.836341,0.227233 -0.490166,0.202411 -0.942164,0.468828 -1.388274,0.741222 0,0 0.675939,-0.231945 0.675939,-0.231945 z"
           id="path856"
           style="opacity:1;fill:#000000;fill-opacity:0.93468472;fill-rule:nonzero;stroke:none;stroke-width:0.69433266;stroke-linecap:round;stroke-linejoin:miter;stroke-miterlimit:10;stroke-dasharray:none;stroke-dashoffset:0;stroke-opacity:1;paint-order:normal" />
        <path
           style="opacity:1;fill:#000000;fill-opacity:0.93468472;fill-rule:nonzero;stroke:none;stroke-width:0.66099995;stroke-linecap:round;stroke-linejoin:miter;stroke-miterlimit:10;stroke-dasharray:none;stroke-dashoffset:0;stroke-opacity:1;paint-order:normal"
           id="path883"
           d="m 52.058355,97.838494 c 0.680826,0.13874 1.374013,0.183547 2.066354,0.219708 0.758475,0.02262 1.519629,0.06481 2.275226,-0.02106 0.60126,-0.05501 1.182319,-0.226597 1.76322,-0.381857 0.505018,-0.138555 1.008451,-0.292243 1.478597,-0.524973 0.279506,-0.121158 0.552776,-0.253024 0.811218,-0.414499 -4.557082,2.385695 -3.219595,1.948494 -2.358689,1.346369 0,0 2.879141,-1.154729 2.879141,-1.154729 v 0 c -0.855898,0.770641 -1.794148,1.17825 -2.933235,1.757982 -0.264345,0.133469 -0.532561,0.257008 -0.805312,0.37285 -0.482865,0.192599 -0.982557,0.337908 -1.485601,0.46789 -0.591143,0.154347 -1.186236,0.308133 -1.799079,0.34196 -0.753116,0.03972 -1.506517,-0.01683 -2.259455,-0.0409 -0.730898,-0.03821 -1.461047,-0.09125 -2.185688,-0.197649 0,0 2.553303,-1.7711 2.553303,-1.7711 z"
           inkscape:connector-curvature="0" />
        <path
           style="opacity:1;fill:#000000;fill-opacity:0.93468472;fill-rule:nonzero;stroke:none;stroke-width:0.66099995;stroke-linecap:round;stroke-linejoin:miter;stroke-miterlimit:10;stroke-dasharray:none;stroke-dashoffset:0;stroke-opacity:1;paint-order:normal"
           id="path885"
           d="m 37.905656,106.23483 c 1.33096,0.23244 2.670379,0.42046 4.016211,0.54236 0.498713,0.0452 0.998482,0.0778 1.497722,0.11667 3.102242,0.20314 6.211974,0.23166 9.319704,0.23206 1.802469,-0.0362 3.611091,0.0371 5.409509,-0.11097 0.734269,-0.0703 1.432039,-0.23777 2.094786,-0.55979 1.039132,-0.60648 -0.26167,0.15334 -2.30319,1.31893 -0.04613,0.0263 0.09125,-0.0544 0.135625,-0.0836 0.121513,-0.0799 0.231185,-0.17238 0.341017,-0.26725 0.109487,-0.0906 0.218201,-0.18218 0.326331,-0.27442 0,0 2.867584,-1.16592 2.867584,-1.16592 v 0 c -0.10654,0.0961 -0.213263,0.19198 -0.324888,0.28218 -0.116562,0.0938 -0.22135,0.19853 -0.336618,0.29373 -0.924359,0.76343 -2.018041,1.31037 -3.111119,1.7993 -0.660596,0.2538 -1.358546,0.36858 -2.064486,0.40495 -1.746509,0.072 -3.49549,-0.0329 -5.242584,-0.0361 -3.094601,-0.0588 -6.189929,-0.11942 -9.281321,-0.27896 -1.961012,-0.11225 -3.917937,-0.26564 -5.874895,-0.43295 0,0 2.530612,-1.78022 2.530612,-1.78022 z"
           inkscape:connector-curvature="0" />
      </g>
      <g
         id="g912">
        <circle
           r="12.799341"
           cy="98.156631"
           cx="-83.466797"
           id="circle887"
           style="opacity:1;fill:#fcaf3e;fill-opacity:0.93468472;fill-rule:nonzero;stroke:#000000;stroke-width:0.56526434;stroke-linecap:round;stroke-linejoin:miter;stroke-miterlimit:10;stroke-dasharray:none;stroke-dashoffset:0;stroke-opacity:1;paint-order:normal"
           transform="scale(-1,1)" />
        <circle
           r="1.7612381"
           cy="97.893509"
           cx="-83.480675"
           id="circle889"
           style="opacity:1;fill:#000000;fill-opacity:0.93468472;fill-rule:nonzero;stroke:none;stroke-width:1.87726998;stroke-linecap:round;stroke-linejoin:miter;stroke-miterlimit:10;stroke-dasharray:none;stroke-dashoffset:0;stroke-opacity:1;paint-order:normal"
           transform="scale(-1,1)" />
        <circle
           style="opacity:1;fill:#000000;fill-opacity:0.93468472;fill-rule:nonzero;stroke:none;stroke-width:1.45907223;stroke-linecap:round;stroke-linejoin:miter;stroke-miterlimit:10;stroke-dasharray:none;stroke-dashoffset:0;stroke-opacity:1;paint-order:normal"
           id="circle891"
           cx="-76.118355"
           cy="95.193214"
           r="1.3688886"
           transform="scale(-1,1)" />
        <path
           inkscape:connector-curvature="0"
           d="m 76.102225,90.055894 c 0.0297,0.0079 0.0595,0.01521 0.089,0.02361 0.0398,0.01131 0.0794,0.02367 0.11907,0.03551 0.0479,0.012 0.0958,0.02309 0.14351,0.03596 0.0507,0.01369 0.20152,0.06104 0.15161,0.04378 -0.66464,-0.229843 -0.59959,-0.207879 -0.31396,-0.08611 0.40095,0.183747 0.764903,0.442038 1.107523,0.733563 0.3364,0.301068 0.61107,0.672589 0.85923,1.058042 0.19043,0.30888 0.34638,0.639696 0.47454,0.981766 0.0888,0.226145 0.16435,0.457321 0.24611,0.686181 0.0634,0.173667 0.11596,0.351064 0.16349,0.529855 0.0206,0.0786 0.0395,0.157672 0.0585,0.236686 0,0 0.67629,0.190143 0.67629,0.190143 v 0 c -0.0193,-0.08003 -0.0392,-0.159956 -0.0605,-0.239491 -0.0494,-0.181102 -0.10201,-0.361501 -0.167,-0.537476 -0.0823,-0.229982 -0.15854,-0.462311 -0.25039,-0.688544 -0.13029,-0.348167 -0.28923,-0.684397 -0.48067,-1.000264 -0.24829,-0.390996 -0.52265,-0.770269 -0.85762,-1.080156 -0.1274,-0.110722 -0.22586,-0.200418 -0.36071,-0.300854 -0.23402,-0.174298 -0.4838,-0.320847 -0.73889,-0.45294 -0.483433,-0.217987 -0.987293,-0.3643 -1.491463,-0.50223 0,0 0.63232,0.332957 0.63232,0.332957 z"
           id="path893"
           style="opacity:1;fill:#000000;fill-opacity:0.93468472;fill-rule:nonzero;stroke:none;stroke-width:0.69433266;stroke-linecap:round;stroke-linejoin:miter;stroke-miterlimit:10;stroke-dasharray:none;stroke-dashoffset:0;stroke-opacity:1;paint-order:normal" />
        <path
           style="opacity:1;fill:#000000;fill-opacity:0.93468472;fill-rule:nonzero;stroke:none;stroke-width:0.69433266;stroke-linecap:round;stroke-linejoin:miter;stroke-miterlimit:10;stroke-dasharray:none;stroke-dashoffset:0;stroke-opacity:1;paint-order:normal"
           id="path895"
           d="m 87.106958,94.662438 c -0.0261,-0.01619 -0.0518,-0.03285 -0.0782,-0.04861 -0.0355,-0.02123 -0.0716,-0.04155 -0.10749,-0.06232 -0.0415,-0.0266 -0.0825,-0.05392 -0.12458,-0.0798 -0.0447,-0.02753 -0.18261,-0.104824 -0.13583,-0.08034 0.62305,0.326169 0.56245,0.293881 0.27796,0.169476 -0.40867,-0.165837 -0.84624,-0.253637 -1.29337,-0.303127 -0.44982,-0.03841 -0.90858,0.01641 -1.35931,0.100095 -0.35541,0.07319 -0.70314,0.186516 -1.04,0.327792 -0.22549,0.09044 -0.44557,0.193963 -0.66821,0.291387 -0.1699,0.07292 -0.33505,0.15632 -0.49778,0.244324 -0.0714,0.03887 -0.14182,0.07939 -0.21237,0.119746 0,0 -0.60213,-0.361874 -0.60213,-0.361874 v 0 c 0.0715,-0.04082 0.14329,-0.08116 0.21578,-0.120206 0.16566,-0.08826 0.33308,-0.173633 0.50573,-0.246996 0.22385,-0.09777 0.44522,-0.201616 0.67287,-0.28989 0.34276,-0.143904 0.69648,-0.258771 1.05767,-0.33602 0.45485,-0.08738 0.91905,-0.14775 1.3743,-0.116424 0.16795,0.0168 0.30075,0.02697 0.46632,0.05626 0.28734,0.05082 0.56528,0.132135 0.83635,0.227233 0.49016,0.202411 0.94216,0.468828 1.38827,0.741222 0,0 -0.67594,-0.231945 -0.67594,-0.231945 z"
           inkscape:connector-curvature="0" />
        <path
           inkscape:connector-curvature="0"
           d="m 69.132565,97.838491 c -0.68083,0.13874 -1.37402,0.183547 -2.06636,0.219708 -0.75847,0.02262 -1.51963,0.06481 -2.27522,-0.02106 -0.60126,-0.05501 -1.18232,-0.226597 -1.76322,-0.381857 -0.50502,-0.138555 -1.00846,-0.292243 -1.4786,-0.524973 -0.27951,-0.121158 -0.55278,-0.253024 -0.81122,-0.414499 4.55708,2.385695 3.2196,1.948494 2.35869,1.346369 0,0 -2.87914,-1.154729 -2.87914,-1.154729 v 0 c 0.8559,0.770641 1.79415,1.17825 2.93323,1.757982 0.26435,0.133469 0.53256,0.257008 0.80532,0.37285 0.48286,0.192599 0.98255,0.337908 1.4856,0.46789 0.59114,0.154347 1.18623,0.308133 1.79908,0.34196 0.75311,0.03972 1.50651,-0.01683 2.25945,-0.0409 0.7309,-0.03821 1.46105,-0.09125 2.18569,-0.197649 0,0 -2.5533,-1.7711 -2.5533,-1.7711 z"
           id="path897"
           style="opacity:1;fill:#000000;fill-opacity:0.93468472;fill-rule:nonzero;stroke:none;stroke-width:0.66099995;stroke-linecap:round;stroke-linejoin:miter;stroke-miterlimit:10;stroke-dasharray:none;stroke-dashoffset:0;stroke-opacity:1;paint-order:normal" />
        <path
           inkscape:connector-curvature="0"
           d="m 83.81443,106.23483 c -1.33096,0.23244 -2.67038,0.42046 -4.016213,0.54236 -0.49871,0.0452 -0.99848,0.0778 -1.49772,0.11667 -3.10225,0.20314 -6.21198,0.23166 -9.31971,0.23206 -1.80247,-0.0362 -3.61109,0.0371 -5.40951,-0.11097 -0.73427,-0.0703 -1.43204,-0.23777 -2.09478,-0.55979 -1.03913,-0.60648 0.26167,0.15334 2.30319,1.31893 0.0461,0.0263 -0.0913,-0.0544 -0.13563,-0.0836 -0.12151,-0.0799 -0.23118,-0.17238 -0.34101,-0.26725 -0.10949,-0.0906 -0.21821,-0.18218 -0.32634,-0.27442 0,0 -2.86758,-1.16592 -2.86758,-1.16592 v 0 c 0.10654,0.0961 0.21326,0.19198 0.32489,0.28218 0.11656,0.0938 0.22135,0.19853 0.33662,0.29373 0.92436,0.76343 2.01804,1.31037 3.11112,1.7993 0.66059,0.2538 1.35854,0.36858 2.06448,0.40495 1.74651,0.072 3.49549,-0.0329 5.24259,-0.0361 3.0946,-0.0588 6.18992,-0.11942 9.281313,-0.27896 1.96102,-0.11225 3.91794,-0.26564 5.8749,-0.43295 0,0 -2.53061,-1.78022 -2.53061,-1.78022 z"
           id="path899"
           style="opacity:1;fill:#000000;fill-opacity:0.93468472;fill-rule:nonzero;stroke:none;stroke-width:0.66099995;stroke-linecap:round;stroke-linejoin:miter;stroke-miterlimit:10;stroke-dasharray:none;stroke-dashoffset:0;stroke-opacity:1;paint-order:normal" />
      </g>
      <text
         id="text903"
         y="77.730034"
         x="45.337875"
         style="font-style:normal;font-variant:normal;font-weight:normal;font-stretch:normal;font-size:2.82222223px;line-height:125%;font-family:'CMU Sans Serif';-inkscape-font-specification:'CMU Sans Serif';letter-spacing:0px;word-spacing:0px;fill:#000000;fill-opacity:1;stroke:none;stroke-width:0.26458332px;stroke-linecap:butt;stroke-linejoin:miter;stroke-opacity:1"
         xml:space="preserve"><tspan
           style="font-size:8.46666622px;fill:#ce5c00;stroke-width:0.26458332px"
           y="77.730034"
           x="45.337875"
           id="tspan901"
           sodipodi:role="line">Fermions</tspan></text>
    </g>
    <g
       transform="translate(-20.039797,-0.39167008)"
       id="g979">
      <g
         id="g957">
        <circle
           r="12.799341"
           cy="99.63372"
           cx="52.864201"
           id="circle943"
           style="opacity:1;fill:#729fcf;fill-opacity:0.44819821;fill-rule:nonzero;stroke:#000000;stroke-width:0.56526434;stroke-linecap:round;stroke-linejoin:miter;stroke-miterlimit:10;stroke-dasharray:none;stroke-dashoffset:0;stroke-opacity:1;paint-order:normal" />
        <circle
           r="1.7612381"
           cy="80.813927"
           cx="73.481972"
           id="circle945"
           style="opacity:1;fill:#000000;fill-opacity:0.93468472;fill-rule:nonzero;stroke:none;stroke-width:1.87726998;stroke-linecap:round;stroke-linejoin:miter;stroke-miterlimit:10;stroke-dasharray:none;stroke-dashoffset:0;stroke-opacity:1;paint-order:normal"
           transform="rotate(16.507447)" />
        <path
           inkscape:connector-curvature="0"
           d="m 58.702733,96.886519 c -0.01461,-0.02701 -0.02866,-0.05427 -0.04373,-0.08107 -0.02029,-0.03607 -0.04154,-0.07167 -0.06231,-0.107507 -0.02284,-0.04373 -0.04482,-0.0878 -0.06845,-0.131159 -0.02514,-0.04612 -0.106374,-0.181712 -0.07794,-0.137214 0.378571,0.59267 0.342036,0.534539 0.156985,0.285203 -0.272223,-0.347003 -0.608302,-0.640647 -0.971721,-0.905792 -0.371249,-0.256869 -0.796603,-0.437281 -1.229314,-0.588656 -0.344785,-0.113119 -0.702861,-0.187571 -1.065391,-0.232388 -0.240616,-0.03358 -0.483045,-0.05311 -0.724662,-0.07921 -0.183672,-0.02115 -0.368431,-0.03086 -0.553378,-0.03535 -0.08125,-0.0017 -0.162526,-0.0016 -0.243791,-0.0016 0,0 -0.342688,-0.613261 -0.342688,-0.613261 v 0 c 0.08233,9.6e-5 0.164685,7.75e-4 0.246991,0.0029 0.187617,0.0057 0.375326,0.01485 0.561607,0.03699 0.242844,0.0264 0.486541,0.04629 0.72796,0.08282 0.368959,0.04546 0.73299,0.121572 1.084807,0.234023 0.438138,0.150214 0.870955,0.328513 1.250446,0.581935 0.137386,0.09805 0.247584,0.172863 0.376707,0.280564 0.224089,0.186895 0.42487,0.395582 0.612834,0.612811 0.324767,0.419235 0.584601,0.87505 0.836358,1.333124 0,0 -0.471301,-0.537185 -0.471301,-0.537185 z"
           id="path949"
           style="opacity:1;fill:#000000;fill-opacity:0.93468472;fill-rule:nonzero;stroke:none;stroke-width:0.69433266;stroke-linecap:round;stroke-linejoin:miter;stroke-miterlimit:10;stroke-dasharray:none;stroke-dashoffset:0;stroke-opacity:1;paint-order:normal"
           inkscape:transform-center-x="0.6206908"
           inkscape:transform-center-y="-0.48629854" />
        <path
           style="opacity:1;fill:#000000;fill-opacity:0.93468472;fill-rule:nonzero;stroke:none;stroke-width:0.69433266;stroke-linecap:round;stroke-linejoin:miter;stroke-miterlimit:10;stroke-dasharray:none;stroke-dashoffset:0;stroke-opacity:1;paint-order:normal"
           id="path951"
           d="m 43.943368,96.712914 c 0.01521,-0.02668 0.02989,-0.05361 0.04556,-0.08004 0.0211,-0.03561 0.04315,-0.07069 0.06475,-0.106052 0.02381,-0.04319 0.0468,-0.08676 0.07142,-0.129566 0.02619,-0.04554 0.110484,-0.179242 0.08104,-0.135406 -0.391985,0.583885 -0.354134,0.526602 -0.163447,0.28155 0.280064,-0.340706 0.622751,-0.626611 0.992116,-0.883409 0.377008,-0.248338 0.806361,-0.419012 1.242414,-0.560477 0.347278,-0.105222 0.706952,-0.171505 1.070411,-0.208041 0.241321,-0.02808 0.48413,-0.04209 0.72628,-0.06267 0.184104,-0.01696 0.369039,-0.02245 0.55404,-0.02273 0.08127,1.16e-4 0.162518,0.0021 0.243767,0.0039 0,0 0.356576,-0.605289 0.356576,-0.605289 v 0 c -0.08231,-0.0018 -0.164653,-0.003 -0.246991,-0.0027 -0.187699,0.0015 -0.375565,0.0063 -0.562303,0.02418 -0.243379,0.02085 -0.48747,0.03519 -0.729659,0.06621 -0.369898,0.03704 -0.735573,0.104826 -1.089859,0.209234 -0.441448,0.14019 -0.878218,0.308574 -1.263385,0.553281 -0.139591,0.09488 -0.25146,0.167176 -0.383006,0.271904 -0.22829,0.181736 -0.433777,0.385793 -0.626642,0.598682 -0.334238,0.411726 -0.604397,0.861497 -0.86653,1.313713 0,0 0.483421,-0.526304 0.483421,-0.526304 z"
           inkscape:connector-curvature="0" />
        <circle
           transform="rotate(16.507447)"
           style="opacity:1;fill:#000000;fill-opacity:0.93468472;fill-rule:nonzero;stroke:none;stroke-width:1.87726998;stroke-linecap:round;stroke-linejoin:miter;stroke-miterlimit:10;stroke-dasharray:none;stroke-dashoffset:0;stroke-opacity:1;paint-order:normal"
           id="circle995"
           cx="80.584953"
           cy="78.708916"
           r="1.7612381" />
        <path
           style="fill:none;fill-rule:evenodd;stroke:#000000;stroke-width:0.86500001;stroke-linecap:butt;stroke-linejoin:miter;stroke-miterlimit:4;stroke-dasharray:none;stroke-opacity:1"
           d="m 45.057846,103.43255 c 4.850469,6.13996 9.121371,3.91212 13.201406,0.0923"
           id="path1003"
           inkscape:connector-curvature="0"
           sodipodi:nodetypes="cc" />
        <circle
           style="opacity:1;fill:#729fcf;fill-opacity:0.44819821;fill-rule:nonzero;stroke:#000000;stroke-width:0.56526434;stroke-linecap:round;stroke-linejoin:miter;stroke-miterlimit:10;stroke-dasharray:none;stroke-dashoffset:0;stroke-opacity:1;paint-order:normal"
           id="circle1005"
           cx="-72.620148"
           cy="99.63372"
           r="12.799341"
           transform="scale(-1,1)" />
        <circle
           transform="matrix(-0.95878281,0.28413996,0.28413996,0.95878281,0,0)"
           style="opacity:1;fill:#000000;fill-opacity:0.93468472;fill-rule:nonzero;stroke:none;stroke-width:1.87726998;stroke-linecap:round;stroke-linejoin:miter;stroke-miterlimit:10;stroke-dasharray:none;stroke-dashoffset:0;stroke-opacity:1;paint-order:normal"
           id="circle1007"
           cx="-46.830257"
           cy="116.46906"
           r="1.7612381" />
        <path
           inkscape:transform-center-y="-0.48629854"
           inkscape:transform-center-x="-0.62069048"
           style="opacity:1;fill:#000000;fill-opacity:0.93468472;fill-rule:nonzero;stroke:none;stroke-width:0.69433266;stroke-linecap:round;stroke-linejoin:miter;stroke-miterlimit:10;stroke-dasharray:none;stroke-dashoffset:0;stroke-opacity:1;paint-order:normal"
           id="path1009"
           d="m 66.781613,96.886519 c 0.01461,-0.02701 0.02866,-0.05427 0.04373,-0.08107 0.02029,-0.03607 0.04154,-0.07167 0.06231,-0.107507 0.02284,-0.04373 0.04482,-0.0878 0.06845,-0.131159 0.02514,-0.04612 0.106374,-0.181712 0.07794,-0.137214 -0.378571,0.59267 -0.342036,0.534539 -0.156985,0.285203 0.272223,-0.347003 0.608302,-0.640647 0.971721,-0.905792 0.371249,-0.256869 0.796603,-0.437281 1.229314,-0.588656 0.344785,-0.113119 0.702861,-0.187571 1.065391,-0.232388 0.240616,-0.03358 0.483045,-0.05311 0.724662,-0.07921 0.183672,-0.02115 0.368431,-0.03086 0.553378,-0.03535 0.08125,-0.0017 0.162526,-0.0016 0.243791,-0.0016 0,0 0.342688,-0.613261 0.342688,-0.613261 v 0 c -0.08233,9.6e-5 -0.164685,7.75e-4 -0.246991,0.0029 -0.187617,0.0057 -0.375326,0.01485 -0.561607,0.03699 -0.242844,0.0264 -0.486541,0.04629 -0.72796,0.08282 -0.368959,0.04546 -0.73299,0.121572 -1.084807,0.234023 -0.438138,0.150214 -0.870955,0.328513 -1.250446,0.581935 -0.137386,0.09805 -0.247584,0.172863 -0.376707,0.280564 -0.224089,0.186895 -0.42487,0.395582 -0.612834,0.612811 -0.324767,0.419235 -0.584601,0.87505 -0.836358,1.333124 0,0 0.471301,-0.537185 0.471301,-0.537185 z"
           inkscape:connector-curvature="0" />
        <path
           inkscape:connector-curvature="0"
           d="m 81.540978,96.712914 c -0.01521,-0.02668 -0.02989,-0.05361 -0.04556,-0.08004 -0.0211,-0.03561 -0.04315,-0.07069 -0.06475,-0.106052 -0.02381,-0.04319 -0.0468,-0.08676 -0.07142,-0.129566 -0.02619,-0.04554 -0.110484,-0.179242 -0.08104,-0.135406 0.391985,0.583885 0.354134,0.526602 0.163447,0.28155 -0.280064,-0.340706 -0.622751,-0.626611 -0.992116,-0.883409 -0.377008,-0.248338 -0.806361,-0.419012 -1.242414,-0.560477 -0.347278,-0.105222 -0.706952,-0.171505 -1.070411,-0.208041 -0.241321,-0.02808 -0.48413,-0.04209 -0.72628,-0.06267 -0.184104,-0.01696 -0.369039,-0.02245 -0.55404,-0.02273 -0.08127,1.16e-4 -0.162518,0.0021 -0.243767,0.0039 0,0 -0.356576,-0.605289 -0.356576,-0.605289 v 0 c 0.08231,-0.0018 0.164653,-0.003 0.246991,-0.0027 0.187699,0.0015 0.375565,0.0063 0.562303,0.02418 0.243379,0.02085 0.48747,0.03519 0.729659,0.06621 0.369898,0.03704 0.735573,0.104826 1.089859,0.209234 0.441448,0.14019 0.878218,0.308574 1.263385,0.553281 0.139591,0.09488 0.25146,0.167176 0.383006,0.271904 0.22829,0.181736 0.433777,0.385793 0.626642,0.598682 0.334238,0.411726 0.604397,0.861497 0.86653,1.313713 0,0 -0.483421,-0.526304 -0.483421,-0.526304 z"
           id="path1011"
           style="opacity:1;fill:#000000;fill-opacity:0.93468472;fill-rule:nonzero;stroke:none;stroke-width:0.69433266;stroke-linecap:round;stroke-linejoin:miter;stroke-miterlimit:10;stroke-dasharray:none;stroke-dashoffset:0;stroke-opacity:1;paint-order:normal" />
        <circle
           r="1.7612381"
           cy="114.36404"
           cx="-39.727276"
           id="circle1013"
           style="opacity:1;fill:#000000;fill-opacity:0.93468472;fill-rule:nonzero;stroke:none;stroke-width:1.87726998;stroke-linecap:round;stroke-linejoin:miter;stroke-miterlimit:10;stroke-dasharray:none;stroke-dashoffset:0;stroke-opacity:1;paint-order:normal"
           transform="matrix(-0.95878281,0.28413996,0.28413996,0.95878281,0,0)" />
        <path
           sodipodi:nodetypes="cc"
           inkscape:connector-curvature="0"
           id="path1015"
           d="m 80.4265,103.43255 c -4.850469,6.13996 -9.121371,3.91212 -13.201406,0.0923"
           style="fill:none;fill-rule:evenodd;stroke:#000000;stroke-width:0.86500001;stroke-linecap:butt;stroke-linejoin:miter;stroke-miterlimit:4;stroke-dasharray:none;stroke-opacity:1" />
      </g>
      <text
         xml:space="preserve"
         style="font-style:normal;font-variant:normal;font-weight:normal;font-stretch:normal;font-size:2.82222223px;line-height:125%;font-family:'CMU Sans Serif';-inkscape-font-specification:'CMU Sans Serif';letter-spacing:0px;word-spacing:0px;fill:#204a87;fill-opacity:1;stroke:none;stroke-width:0.26458332px;stroke-linecap:butt;stroke-linejoin:miter;stroke-opacity:1"
         x="49.030575"
         y="78.930161"
         id="text977"><tspan
           sodipodi:role="line"
           id="tspan975"
           x="49.030575"
           y="78.930161"
           style="font-size:8.46666622px;fill:#204a87;stroke-width:0.26458332px">Bosons</tspan></text>
    </g>
  </g>
</svg>
