<?xml version="1.0" encoding="UTF-8" standalone="no"?>
<!-- Created with Inkscape (http://www.inkscape.org/) -->

<svg
   xmlns:dc="http://purl.org/dc/elements/1.1/"
   xmlns:cc="http://creativecommons.org/ns#"
   xmlns:rdf="http://www.w3.org/1999/02/22-rdf-syntax-ns#"
   xmlns:svg="http://www.w3.org/2000/svg"
   xmlns="http://www.w3.org/2000/svg"
   xmlns:sodipodi="http://sodipodi.sourceforge.net/DTD/sodipodi-0.dtd"
   xmlns:inkscape="http://www.inkscape.org/namespaces/inkscape"
   version="1.1"
   id="svg2"
   xml:space="preserve"
   width="309.02417"
   height="279.47763"
   viewBox="0 0 309.02417 279.47763"
   sodipodi:docname="BoseEnhancementFunction.svg"
   inkscape:version="0.92.5 (2060ec1f9f, 2020-04-08)"><metadata
     id="metadata8"><rdf:RDF><cc:Work
         rdf:about=""><dc:format>image/svg+xml</dc:format><dc:type
           rdf:resource="http://purl.org/dc/dcmitype/StillImage" /><dc:title></dc:title></cc:Work></rdf:RDF></metadata><defs
     id="defs6"><clipPath
       clipPathUnits="userSpaceOnUse"
       id="clipPath28"><path
         d="M 0,0 H 420 V 315 H 0 Z"
         id="path26"
         inkscape:connector-curvature="0" /></clipPath></defs><sodipodi:namedview
     pagecolor="#ffffff"
     bordercolor="#666666"
     borderopacity="1"
     objecttolerance="10"
     gridtolerance="10"
     guidetolerance="10"
     inkscape:pageopacity="0"
     inkscape:pageshadow="2"
     inkscape:window-width="2560"
     inkscape:window-height="1411"
     id="namedview4"
     showgrid="false"
     fit-margin-top="0"
     fit-margin-left="0"
     fit-margin-right="0"
     fit-margin-bottom="0"
     inkscape:zoom="2.6683278"
     inkscape:cx="67.086081"
     inkscape:cy="129.79119"
     inkscape:window-x="2560"
     inkscape:window-y="0"
     inkscape:window-maximized="1"
     inkscape:current-layer="g10" /><g
     id="g10"
     inkscape:groupmode="layer"
     inkscape:label="Ketterle_bose"
     transform="matrix(1.3333333,0,0,-1.3333333,-293.95692,950.47673)"><path
       d="m 252.36791,560.9546 h 196.8917"
       style="fill:none;stroke:#262626;stroke-width:0.30236939;stroke-linecap:square;stroke-linejoin:round;stroke-miterlimit:10;stroke-dasharray:none;stroke-opacity:1"
       id="path38"
       inkscape:connector-curvature="0" /><path
       d="m 252.36791,712.70638 h 196.8917"
       style="fill:none;stroke:#262626;stroke-width:0.30236939;stroke-linecap:square;stroke-linejoin:round;stroke-miterlimit:10;stroke-dasharray:none;stroke-opacity:1"
       id="path40"
       inkscape:connector-curvature="0" /><path
       d="m 252.36791,560.9546 v 1.96898"
       style="fill:none;stroke:#262626;stroke-width:0.30236939;stroke-linecap:square;stroke-linejoin:round;stroke-miterlimit:10;stroke-dasharray:none;stroke-opacity:1"
       id="path42"
       inkscape:connector-curvature="0" /><path
       d="m 301.59084,560.9546 v 1.96898"
       style="fill:none;stroke:#262626;stroke-width:0.30236939;stroke-linecap:square;stroke-linejoin:round;stroke-miterlimit:10;stroke-dasharray:none;stroke-opacity:1"
       id="path44"
       inkscape:connector-curvature="0" /><path
       d="m 350.81376,560.9546 v 1.96898"
       style="fill:none;stroke:#262626;stroke-width:0.30236939;stroke-linecap:square;stroke-linejoin:round;stroke-miterlimit:10;stroke-dasharray:none;stroke-opacity:1"
       id="path46"
       inkscape:connector-curvature="0" /><path
       d="m 400.03669,560.9546 v 1.96898"
       style="fill:none;stroke:#262626;stroke-width:0.30236939;stroke-linecap:square;stroke-linejoin:round;stroke-miterlimit:10;stroke-dasharray:none;stroke-opacity:1"
       id="path48"
       inkscape:connector-curvature="0" /><path
       d="m 449.25961,560.9546 v 1.96898"
       style="fill:none;stroke:#262626;stroke-width:0.30236939;stroke-linecap:square;stroke-linejoin:round;stroke-miterlimit:10;stroke-dasharray:none;stroke-opacity:1"
       id="path50"
       inkscape:connector-curvature="0" /><path
       d="m 252.36791,712.70638 v -1.96892"
       style="fill:none;stroke:#262626;stroke-width:0.30236939;stroke-linecap:square;stroke-linejoin:round;stroke-miterlimit:10;stroke-dasharray:none;stroke-opacity:1"
       id="path52"
       inkscape:connector-curvature="0" /><path
       d="m 449.25961,712.70638 v -1.96892"
       style="fill:none;stroke:#262626;stroke-width:0.30236939;stroke-linecap:square;stroke-linejoin:round;stroke-miterlimit:10;stroke-dasharray:none;stroke-opacity:1"
       id="path60"
       inkscape:connector-curvature="0" /><path
       d="M 252.36791,560.9546 V 712.70638"
       style="fill:none;stroke:#262626;stroke-width:0.30236939;stroke-linecap:square;stroke-linejoin:round;stroke-miterlimit:10;stroke-dasharray:none;stroke-opacity:1"
       id="path76"
       inkscape:connector-curvature="0" /><path
       d="M 449.25961,560.9546 V 712.70638"
       style="fill:none;stroke:#262626;stroke-width:0.30236939;stroke-linecap:square;stroke-linejoin:round;stroke-miterlimit:10;stroke-dasharray:none;stroke-opacity:1"
       id="path78"
       inkscape:connector-curvature="0" /><path
       d="m 252.36791,560.9546 h 1.96898"
       style="fill:none;stroke:#262626;stroke-width:0.30236939;stroke-linecap:square;stroke-linejoin:round;stroke-miterlimit:10;stroke-dasharray:none;stroke-opacity:1"
       id="path80"
       inkscape:connector-curvature="0" /><path
       d="m 252.36791,598.89269 h 1.96898"
       style="fill:none;stroke:#262626;stroke-width:0.30236939;stroke-linecap:square;stroke-linejoin:round;stroke-miterlimit:10;stroke-dasharray:none;stroke-opacity:1"
       id="path82"
       inkscape:connector-curvature="0" /><path
       d="m 252.36791,636.83079 h 1.96898"
       style="fill:none;stroke:#262626;stroke-width:0.30236939;stroke-linecap:square;stroke-linejoin:round;stroke-miterlimit:10;stroke-dasharray:none;stroke-opacity:1"
       id="path84"
       inkscape:connector-curvature="0" /><path
       d="m 252.36791,674.76828 h 1.96898"
       style="fill:none;stroke:#262626;stroke-width:0.30236939;stroke-linecap:square;stroke-linejoin:round;stroke-miterlimit:10;stroke-dasharray:none;stroke-opacity:1"
       id="path86"
       inkscape:connector-curvature="0" /><path
       d="m 252.36791,712.70638 h 1.96898"
       style="fill:none;stroke:#262626;stroke-width:0.30236939;stroke-linecap:square;stroke-linejoin:round;stroke-miterlimit:10;stroke-dasharray:none;stroke-opacity:1"
       id="path88"
       inkscape:connector-curvature="0" /><path
       d="m 449.25961,560.9546 h -1.96892"
       style="fill:none;stroke:#262626;stroke-width:0.30236939;stroke-linecap:square;stroke-linejoin:round;stroke-miterlimit:10;stroke-dasharray:none;stroke-opacity:1"
       id="path90"
       inkscape:connector-curvature="0" /><path
       d="m 449.25961,712.70638 h -1.96892"
       style="fill:none;stroke:#262626;stroke-width:0.30236939;stroke-linecap:square;stroke-linejoin:round;stroke-miterlimit:10;stroke-dasharray:none;stroke-opacity:1"
       id="path98"
       inkscape:connector-curvature="0" /><path
       d="m 254.33689,560.95581 0.51531,0.0108 0.51536,0.0419 0.51531,0.10229 0.51537,0.18951 0.5153,0.29416 0.51561,0.40691 0.51531,0.52123 0.51536,0.63018 0.51531,0.73294 0.51512,0.82701 0.51537,0.91254 0.5153,0.98929 0.51537,1.05814 0.51555,1.11971 0.51536,1.17458 0.51531,1.22375 0.51537,1.26742 0.5153,1.30711 0.51537,1.34165 0.5153,1.37352 0.51537,1.40165 0.51531,1.4267 0.5156,1.4498 0.51531,1.47018 0.51537,1.48864 0.5153,1.50508 0.51537,1.52003 0.51512,1.53328 0.51531,1.54555 0.51537,1.55566 0.51554,1.56588 0.51537,1.57416 0.51531,1.58167 0.51536,1.58783 0.51531,1.59449 0.51536,1.59873 0.51531,1.60296 0.51537,1.60658 0.51554,1.60901 0.51537,1.61143 0.51531,1.61264 0.51536,1.61445 0.51531,1.61445 0.51536,1.61385 0.51531,1.61324 0.51537,1.61263 0.5153,1.61022 0.51537,1.6084 0.51536,1.60538 0.51537,1.60236 0.51537,1.59933 0.51536,1.59449 0.51537,1.59025 0.51537,1.58542 0.51536,1.57997 0.51537,1.57332 0.51536,1.56787 0.51537,1.56062 0.51537,1.55396 0.51536,1.5461 0.51537,1.53763 0.51537,1.52916 0.51536,1.5207 0.51537,1.51101 0.51536,1.50134 0.51537,1.49105 0.51537,1.48017 0.51476,1.46867 0.51536,1.45718 0.51537,1.44508 0.51597,1.43238 0.51537,1.41968 0.51536,1.40577 0.51537,1.39185 0.51537,1.37794 0.51476,1.36221 0.51537,1.34709 0.51536,1.33076 0.51537,1.31503 0.51597,1.29749 0.51537,1.28055 0.51536,1.2624 0.51537,1.24426 0.51476,1.22491 0.51537,1.20554 0.51536,1.18559 0.51537,1.16501 0.51536,1.14385 0.51537,1.12207 0.51537,1.09969 0.51536,1.07731 0.51537,1.05432 0.51537,1.03013 0.51536,1.00533 0.51537,0.98113 0.51536,0.95512 0.51537,0.92851 0.51537,0.90249 0.51536,0.87467 0.51537,0.84685 0.51537,0.81842 0.51536,0.78877 0.51537,0.75914 0.51536,0.72889 0.51537,0.69805 0.51537,0.66598 0.51536,0.63332 0.51537,0.60066 0.51537,0.56738 0.51536,0.53231 0.51537,0.49782 0.51536,0.46214 0.51537,0.42584 0.51537,0.38834 0.51536,0.35083 0.51537,0.31273 0.51537,0.27341 0.51536,0.23349 0.51537,0.19296 0.51537,0.15183 0.51536,0.11009 0.51476,0.0671 0.51537,0.0236 0.51537,-0.0206 0.51536,-0.0653 0.51537,-0.1113 0.51536,-0.15728 0.51537,-0.20505 0.51597,-0.25285 0.51537,-0.30184 0.51476,-0.35144 0.51537,-0.40164 0.51536,-0.45246 0.51537,-0.50509 0.51536,-0.5577 0.51537,-0.61094 0.51597,-0.66538 0.51537,-0.72043 0.51476,-0.77668 0.51537,-0.83414 0.51536,-0.89161 0.51537,-0.95028 0.51536,-1.00956 0.51537,-1.07005 0.51537,-1.13114 0.51536,-1.19285 0.51537,-1.25635 0.51537,-1.32048 0.51536,-1.38459 v 0 l 0.1978,-0.54924 0.1978,-0.55892 0.1978,-0.5686 0.1978,-0.57888 0.1984,-0.58795 0.1978,-0.59824 0.1978,-0.60852 0.1978,-0.61819 0.1978,-0.62848 0.1978,-0.63877 0.1978,-0.64844 0.1978,-0.65933 0.1984,-0.66901 0.1978,-0.67989 0.1978,-0.69018 0.1978,-0.70047 0.1978,-0.71135 0.1984,-0.72163 0.1978,-0.73252 0.1978,-0.74281 0.1978,-0.75369 0.1978,-0.76458 0.19779,-0.77547 0.19841,-0.78575 0.1978,-0.79785 0.19719,-0.80753 0.19841,-0.81963 0.19779,-0.83051 0.1978,-0.8414 0.1978,-0.85229 0.1978,-0.86439 0.1978,-0.87528 0.1978,-0.88677 0.1984,-0.89826 0.1978,-0.90975 0.1978,-0.92064 0.1978,-0.93335 0.1978,-0.94423 0.1978,-0.95633 0.1978,-0.96843 0.1984,-0.97932 0.1972,-0.99202 0.1984,-1.00351 0.1978,-1.01561 0.1978,-1.02771 0.1978,-1.03981 0.1978,-1.0525 0.1978,-1.06401 0.1984,-1.0767 0.1978,-1.0888 0.1978,-1.10151 0.1978,-1.1136 0.1978,-1.1263 0.1984,-1.13901 0.1978,-1.15171 0.1978,-1.16442 0.1978,-1.17651 0.1978,-1.18982 0.19779,-1.20252 0.1978,-1.21643 0.1978,-1.22793 0.1978,-1.24184 0.19841,-1.25514 0.19779,-1.26785 0.1978,-1.28116 0.1978,-1.29446 0.1978,-1.30778 0.1978,-1.32168 0.1978,-1.33439 0.1978,-1.3483 0.1984,-1.36161 0.1978,-1.37612 0.1978,-1.38883 0.1978,-1.40274 0.1978,-1.41726 0.1984,-1.43056 0.1972,-1.44448 0.1978,-1.45899 0.1984,-1.47291 0.1978,-1.48682 0.1978,-1.50134 0.1978,-1.51464 0.1978,-1.53037 0.19779,-1.54368 0.19841,-1.55874 0.1978,-1.57296 0.1978,-1.58784 0.1978,-1.60223 0.19779,-1.61711 0.19841,-1.63181 0.1978,-1.64645 0.19719,-1.66133 0.19841,-1.67664 0.19779,-1.69157 0.1978,-1.70646 0.1978,-1.72182 0.1978,-1.73694 0.1978,-1.75206 0.1978,-1.76761 0.1984,-0.99009 0.1978,-0.1831 0.1978,-0.1713 0.1978,-0.16683 0.1978,-0.15407 0.1978,-0.15213 0.1978,-0.14154 0.1984,-0.1361 0.1972,-0.13114 0.1984,-0.12733 0.1978,-0.12316 0.1978,-0.11952 0.1978,-0.1165 0.1978,-0.10943 0.1978,-0.10676 0.1984,-0.10797 0.1978,-0.10187 0.1978,-0.0997 0.1978,-0.0943 0.1978,-0.0957 0.19779,-0.0905 0.19841,-0.0922 0.1978,-0.0872 0.1978,-0.0858 0.1978,-0.0813 0.19779,-0.0832 0.1978,-0.0786 0.1978,-0.0775 0.1978,-0.0765 0.19841,-0.0752 0.19779,-0.0742 0.1978,-0.0709 0.1978,-0.0697 0.1978,-0.0714 0.1978,-0.0652 0.1978,-0.0676 0.1978,-0.0664 0.1984,-0.0631 0.1978,-0.0626 0.1978,-0.0617 0.1978,-0.0612 0.1978,-0.0584 0.1978,-0.06 0.1978,-0.057 0.1978,-0.0567 0.19779,-0.0539 0.19841,-0.0555 0.1978,-0.0527 0.1978,-0.0551 0.1978,-0.052 0.19779,-0.0494 0.19841,-0.0513 0.1978,-0.051 0.1978,-0.0482 0.1978,-0.0482 0.19779,-0.0477 0.1978,-0.0454 0.19841,-0.0473 0.1978,-0.0447 0.1978,-0.0444 0.19779,-0.0446 0.1978,-0.044 0.1978,-0.0437 0.1978,-0.0415 0.1978,-0.0414 0.1978,-0.0411 0.1984,-0.0409 0.1978,-0.0409 0.1978,-0.0385 0.1978,-0.0385 0.1978,-0.0383 0.1978,-0.0383 0.1978,-0.038 0.1984,-0.0378 0.1972,-0.0359 0.1978,-0.0356 0.1984,-0.0354 0.1978,-0.0355 0.1978,-0.0354 0.1978,-0.0336 0.1978,-0.0333 0.19779,-0.035 0.19841,-0.0331 0.1978,-0.0314 0.1978,-0.0328 0.1978,-0.0329 0.19779,-0.0312 0.19841,-0.031 0.1978,-0.0309 0.1978,-0.0307 0.1978,-0.0291 0.19779,-0.0307 0.1978,-0.0291 0.1978,-0.0285 0.1978,-0.0291 0.19841,-0.0288 0.19779,-0.0286 0.1978,-0.0272 0.1978,-0.0286 0.1978,-0.0272 v 0 l 0.52868,-0.0709 0.52867,-0.0695 0.52807,-0.0676 0.52867,-0.0657 0.52868,-0.0642 0.52867,-0.0607 0.52867,-0.0612 0.52868,-0.0593 0.52807,-0.0579 0.52867,-0.0549 0.52867,-0.055 0.52868,-0.0534 0.52867,-0.0522 0.52868,-0.0508 0.52806,-0.0491 0.52868,-0.0485 0.52867,-0.0465 0.52868,-0.0471 0.52867,-0.0442 0.52867,-0.0447 0.52807,-0.0432 0.52868,-0.0421 0.52867,-0.0407 0.52867,-0.0397 0.52868,-0.0399 0.52867,-0.0385 0.52807,-0.0376 0.52868,-0.0363 0.52867,-0.0367 0.52867,-0.0357 0.52868,-0.0342 0.52807,-0.0345 0.52867,-0.0336 0.52867,-0.0324 0.52868,-0.0312 0.52867,-0.0316 0.52807,-0.0305 0.52867,-0.0305 0.52868,-0.0295 0.52867,-0.0286 0.52868,-0.0288 0.52806,-0.0276 0.52928,-0.0279 0.52807,-0.0267 0.52868,-0.0263 0.52867,-0.0257 0.52867,-0.0253 0.52868,-0.025 0.52867,-0.0241 0.52807,-0.0245 0.52867,-0.0234 0.52868,-0.0234 0.52867,-0.0224 0.52868,-0.0229 0.52867,-0.022 0.52807,-0.0217 0.52867,-0.021 0.52868,-0.021 0.52867,-0.0203 0.52867,-0.0201 0.52807,-0.0206 0.52868,-0.0194 0.52867,-0.0186 0.52867,-0.0196 0.52868,-0.0177 0.52807,-0.0192 0.52867,-0.0182 0.52868,-0.017 0.52867,-0.0172 0.52867,-0.0172 0.52807,-0.0177 0.52928,-0.0166 0.52807,-0.0153 0.52867,-0.0171 0.52868,-0.0158 0.52867,-0.0147 0.52868,-0.0165 0.52867,-0.0151 0.52807,-0.014 0.52867,-0.0158 0.52868,-0.0132 0.52867,-0.0146 0.52867,-0.0137 0.52868,-0.0139 0.52807,-0.0137 0.52867,-0.0142 0.52867,-0.0133 0.52868,-0.013 0.52867,-0.0123 0.52807,-0.0125 0.52867,-0.0125 0.52868,-0.0125 0.52867,-0.0116 0.52807,-0.013 0.52867,-0.0109 0.52868,-0.012 0.52867,-0.0111 0.52868,-0.0123 0.52867,-0.0102 0.52807,-0.0113 0.52867,-0.0104 0.52868,-0.0116 0.52867,-0.0106 0.52867,-0.01 0.52868,-0.0109 0.52807,-0.01 0.52928,-0.01 0.52807,-0.0104 0.52867,-0.009 0.52867,-0.0104 0.52868,-0.009 0.52867,-0.009 0.52807,-0.009 0.52867,-0.009 0.52868,-0.009 0.52867,-0.01 0.52868,-0.009 0.52806,-0.008 0.52868,-0.009 0.52867,-0.008 0.52868,-0.009 0.52867,-0.008 0.52807,-0.007 0.52867,-0.008 0.52868,-0.008 0.52867,-0.008 0.52867,-0.008 0.52868,-0.008 0.52807,-0.008 0.52867,-0.008 0.52867,-0.007 0.52868,-0.007 0.52867,-0.008 0.52868,-0.007 0.52807,-0.007 0.52867,-0.006 0.52867,-0.007 0.52868,-0.006 0.52867,-0.007 0.52867,-0.006 0.52807,-0.007 0.52868,-0.007 0.52867,-0.007 0.52867,-0.006 0.52868,-0.007 0.52867,-0.006 0.52807,-0.006 0.52868,-0.006 0.52867,-0.006"
       style="fill:none;stroke:#204a87;stroke-width:1.87500005;stroke-linecap:butt;stroke-linejoin:round;stroke-miterlimit:10;stroke-dasharray:none;stroke-opacity:1"
       id="path118"
       inkscape:connector-curvature="0" /><text
       xml:space="preserve"
       style="font-style:normal;font-variant:normal;font-weight:normal;font-stretch:normal;font-size:8px;line-height:125%;font-family:'CMU Sans Serif';-inkscape-font-specification:'CMU Sans Serif';letter-spacing:0px;word-spacing:0px;fill:#000000;fill-opacity:1;stroke:none;stroke-width:0.75px;stroke-linecap:butt;stroke-linejoin:miter;stroke-opacity:1"
       x="172.51498"
       y="-625.26746"
       id="text2069"
       transform="scale(1,-1)"><tspan
         sodipodi:role="line"
         id="tspan2067"
         x="172.51498"
         y="-617.86743"
         style="stroke-width:0.75px" /></text>
<text
       xml:space="preserve"
       style="font-style:normal;font-variant:normal;font-weight:normal;font-stretch:normal;font-size:11.30872154px;line-height:125%;font-family:'CMU Sans Serif';-inkscape-font-specification:'CMU Sans Serif';letter-spacing:0px;word-spacing:0px;fill:#000000;fill-opacity:1;stroke:none;stroke-width:1.0601927px;stroke-linecap:butt;stroke-linejoin:miter;stroke-opacity:1"
       x="578.53656"
       y="230.5757"
       id="text2073"
       transform="matrix(0,1,1,0,0,0)"><tspan
         sodipodi:role="line"
         x="578.53656"
         y="230.5757"
         style="font-size:14px;stroke-width:1.0601927px"
         id="tspan2262">Enhancement Factor</tspan></text>
<text
       xml:space="preserve"
       style="font-style:normal;font-variant:normal;font-weight:normal;font-stretch:normal;font-size:14px;line-height:125%;font-family:'CMU Sans Serif';-inkscape-font-specification:'CMU Sans Serif';letter-spacing:0px;word-spacing:0px;fill:#000000;fill-opacity:1;stroke:none;stroke-width:0.75px;stroke-linecap:butt;stroke-linejoin:miter;stroke-opacity:1"
       x="240.68622"
       y="-558.28864"
       id="text2268"
       transform="scale(1,-1)"><tspan
         sodipodi:role="line"
         id="tspan2266"
         x="240.68622"
         y="-558.28864"
         style="font-size:14px;stroke-width:0.75px">1</tspan></text>
<text
       xml:space="preserve"
       style="font-style:normal;font-variant:normal;font-weight:normal;font-stretch:normal;font-size:8px;line-height:125%;font-family:'CMU Sans Serif';-inkscape-font-specification:'CMU Sans Serif';letter-spacing:0px;word-spacing:0px;fill:#000000;fill-opacity:1;stroke:none;stroke-width:0.75px;stroke-linecap:butt;stroke-linejoin:miter;stroke-opacity:1"
       x="249.03372"
       y="-541.19617"
       id="text2272"
       transform="scale(1,-1)"><tspan
         sodipodi:role="line"
         id="tspan2270"
         x="249.03372"
         y="-541.19617"
         style="font-size:14px;stroke-width:0.75px">0</tspan></text>
<text
       transform="scale(1,-1)"
       id="text2276"
       y="-541.19617"
       x="347.43744"
       style="font-style:normal;font-variant:normal;font-weight:normal;font-stretch:normal;font-size:8px;line-height:125%;font-family:'CMU Sans Serif';-inkscape-font-specification:'CMU Sans Serif';letter-spacing:0px;word-spacing:0px;fill:#000000;fill-opacity:1;stroke:none;stroke-width:0.75px;stroke-linecap:butt;stroke-linejoin:miter;stroke-opacity:1"
       xml:space="preserve"><tspan
         style="font-size:14px;stroke-width:0.75px"
         y="-541.19617"
         x="347.43744"
         id="tspan2274"
         sodipodi:role="line">1</tspan></text>
<text
       xml:space="preserve"
       style="font-style:normal;font-variant:normal;font-weight:normal;font-stretch:normal;font-size:8px;line-height:125%;font-family:'CMU Sans Serif';-inkscape-font-specification:'CMU Sans Serif';letter-spacing:0px;word-spacing:0px;fill:#000000;fill-opacity:1;stroke:none;stroke-width:0.75px;stroke-linecap:butt;stroke-linejoin:miter;stroke-opacity:1"
       x="445.94983"
       y="-541.19617"
       id="text2280"
       transform="scale(1,-1)"><tspan
         sodipodi:role="line"
         id="tspan2278"
         x="445.94983"
         y="-541.19617"
         style="font-size:14px;stroke-width:0.75px">2</tspan></text>
<text
       xml:space="preserve"
       style="font-style:normal;font-variant:normal;font-weight:normal;font-stretch:normal;font-size:8px;line-height:125%;font-family:'CMU Sans Serif';-inkscape-font-specification:'CMU Sans Serif';letter-spacing:0px;word-spacing:0px;fill:#000000;fill-opacity:1;stroke:none;stroke-width:0.75px;stroke-linecap:butt;stroke-linejoin:miter;stroke-opacity:1"
       x="390.97461"
       y="-541.19617"
       id="text2284"
       transform="scale(1,-1)"><tspan
         sodipodi:role="line"
         id="tspan2282"
         x="390.97461"
         y="-541.19617"
         style="font-size:14px;stroke-width:0.75px">1.5</tspan></text>
<text
       transform="scale(1,-1)"
       id="text2288"
       y="-541.19617"
       x="292.67957"
       style="font-style:normal;font-variant:normal;font-weight:normal;font-stretch:normal;font-size:8px;line-height:125%;font-family:'CMU Sans Serif';-inkscape-font-specification:'CMU Sans Serif';letter-spacing:0px;word-spacing:0px;fill:#000000;fill-opacity:1;stroke:none;stroke-width:0.75px;stroke-linecap:butt;stroke-linejoin:miter;stroke-opacity:1"
       xml:space="preserve"><tspan
         style="font-size:14px;stroke-width:0.75px"
         y="-541.19617"
         x="292.67957"
         id="tspan2286"
         sodipodi:role="line">0.5</tspan></text>
<text
       xml:space="preserve"
       style="font-style:normal;font-variant:normal;font-weight:normal;font-stretch:normal;font-size:8px;line-height:125%;font-family:'CMU Sans Serif';-inkscape-font-specification:'CMU Sans Serif';letter-spacing:0px;word-spacing:0px;fill:#000000;fill-opacity:1;stroke:none;stroke-width:0.75px;stroke-linecap:butt;stroke-linejoin:miter;stroke-opacity:1"
       x="335.04691"
       y="-515.39954"
       id="text2292"
       transform="scale(1,-1)"><tspan
         sodipodi:role="line"
         id="tspan2290"
         x="335.04691"
         y="-515.39954"
         style="font-size:14px;stroke-width:0.75px"
         dy="0 3.0999992 6.0499973">T/T<tspan
   style="font-size:64.99999762%;baseline-shift:sub"
   id="tspan2296">C</tspan></tspan></text>
</g></svg>