<?xml version="1.0" encoding="UTF-8" standalone="no"?>
<!-- Created with Inkscape (http://www.inkscape.org/) -->

<svg
   xmlns:dc="http://purl.org/dc/elements/1.1/"
   xmlns:cc="http://creativecommons.org/ns#"
   xmlns:rdf="http://www.w3.org/1999/02/22-rdf-syntax-ns#"
   xmlns:svg="http://www.w3.org/2000/svg"
   xmlns="http://www.w3.org/2000/svg"
   xmlns:xlink="http://www.w3.org/1999/xlink"
   xmlns:sodipodi="http://sodipodi.sourceforge.net/DTD/sodipodi-0.dtd"
   xmlns:inkscape="http://www.inkscape.org/namespaces/inkscape"
   width="77.357918mm"
   height="121.28413mm"
   viewBox="0 0 77.357919 121.28411"
   version="1.1"
   id="svg900"
   inkscape:version="0.92.5 (2060ec1f9f, 2020-04-08)"
   sodipodi:docname="PhaseSpaceSimple.svg">
  <defs
     id="defs894">
    <marker
       inkscape:stockid="Arrow1Mend"
       orient="auto"
       refY="0"
       refX="0"
       id="marker5510"
       style="overflow:visible"
       inkscape:isstock="true">
      <path
         id="path5508"
         d="M 0,0 5,-5 -12.5,0 5,5 Z"
         style="fill:#4e9a06;fill-opacity:1;fill-rule:evenodd;stroke:#4e9a06;stroke-width:1.00000003pt;stroke-opacity:1"
         transform="matrix(-0.4,0,0,-0.4,-4,0)"
         inkscape:connector-curvature="0" />
    </marker>
    <marker
       inkscape:isstock="true"
       style="overflow:visible"
       id="marker2965"
       refX="0"
       refY="0"
       orient="auto"
       inkscape:stockid="Arrow1Mstart">
      <path
         inkscape:connector-curvature="0"
         transform="matrix(0.4,0,0,0.4,4,0)"
         style="fill:#000000;fill-opacity:1;fill-rule:evenodd;stroke:#000000;stroke-width:1.00000003pt;stroke-opacity:1"
         d="M 0,0 5,-5 -12.5,0 5,5 Z"
         id="path2963" />
    </marker>
    <marker
       inkscape:stockid="Arrow1Mend"
       orient="auto"
       refY="0"
       refX="0"
       id="marker1968"
       style="overflow:visible"
       inkscape:isstock="true">
      <path
         id="path1966"
         d="M 0,0 5,-5 -12.5,0 5,5 Z"
         style="fill:#a40000;fill-opacity:1;fill-rule:evenodd;stroke:#a40000;stroke-width:1.00000003pt;stroke-opacity:1"
         transform="matrix(-0.4,0,0,-0.4,-4,0)"
         inkscape:connector-curvature="0" />
    </marker>
    <marker
       inkscape:stockid="Arrow1Mend"
       orient="auto"
       refY="0"
       refX="0"
       id="marker6313"
       style="overflow:visible"
       inkscape:isstock="true">
      <path
         id="path6311"
         d="M 0,0 5,-5 -12.5,0 5,5 Z"
         style="fill:#000000;fill-opacity:1;fill-rule:evenodd;stroke:#000000;stroke-width:1.00000003pt;stroke-opacity:1"
         transform="matrix(-0.4,0,0,-0.4,-4,0)"
         inkscape:connector-curvature="0" />
    </marker>
    <marker
       inkscape:isstock="true"
       style="overflow:visible"
       id="marker6003"
       refX="0"
       refY="0"
       orient="auto"
       inkscape:stockid="Arrow1Mend">
      <path
         transform="matrix(-0.4,0,0,-0.4,-4,0)"
         style="fill:#a40000;fill-opacity:1;fill-rule:evenodd;stroke:#a40000;stroke-width:1.00000003pt;stroke-opacity:1"
         d="M 0,0 5,-5 -12.5,0 5,5 Z"
         id="path6001"
         inkscape:connector-curvature="0" />
    </marker>
    <linearGradient
       inkscape:collect="always"
       id="linearGradient1477">
      <stop
         style="stop-color:#3465a4;stop-opacity:1;"
         offset="0"
         id="stop1473" />
      <stop
         style="stop-color:#3465a4;stop-opacity:0;"
         offset="1"
         id="stop1475" />
    </linearGradient>
    <radialGradient
       inkscape:collect="always"
       xlink:href="#linearGradient1477"
       id="radialGradient6769"
       gradientUnits="userSpaceOnUse"
       gradientTransform="matrix(3.7405336,0,0,3.7405336,56.1491,-95.413325)"
       cx="29.089739"
       cy="34.16967"
       fx="29.089739"
       fy="34.16967"
       r="10.340492" />
    <marker
       inkscape:isstock="true"
       style="overflow:visible"
       id="marker2965-6"
       refX="0"
       refY="0"
       orient="auto"
       inkscape:stockid="Arrow1Mstart">
      <path
         inkscape:connector-curvature="0"
         transform="matrix(0.4,0,0,0.4,4,0)"
         style="fill:#75507b;fill-opacity:1;fill-rule:evenodd;stroke:#75507b;stroke-width:1.00000003pt;stroke-opacity:1"
         d="M 0,0 5,-5 -12.5,0 5,5 Z"
         id="path2963-7" />
    </marker>
    <marker
       inkscape:isstock="true"
       style="overflow:visible"
       id="marker2965-6-6"
       refX="0"
       refY="0"
       orient="auto"
       inkscape:stockid="Arrow1Mstart">
      <path
         inkscape:connector-curvature="0"
         transform="matrix(0.4,0,0,0.4,4,0)"
         style="fill:#75507b;fill-opacity:1;fill-rule:evenodd;stroke:#75507b;stroke-width:1.00000003pt;stroke-opacity:1"
         d="M 0,0 5,-5 -12.5,0 5,5 Z"
         id="path2963-7-2" />
    </marker>
    <marker
       inkscape:stockid="Arrow1Mend"
       orient="auto"
       refY="0"
       refX="0"
       id="marker1968-3"
       style="overflow:visible"
       inkscape:isstock="true">
      <path
         id="path1966-6"
         d="M 0,0 5,-5 -12.5,0 5,5 Z"
         style="fill:#a40000;fill-opacity:1;fill-rule:evenodd;stroke:#a40000;stroke-width:1.00000003pt;stroke-opacity:1"
         transform="matrix(-0.4,0,0,-0.4,-4,0)"
         inkscape:connector-curvature="0" />
    </marker>
    <marker
       inkscape:isstock="true"
       style="overflow:visible"
       id="marker7345"
       refX="0"
       refY="0"
       orient="auto"
       inkscape:stockid="Arrow1Mend"
       inkscape:collect="always">
      <path
         inkscape:connector-curvature="0"
         transform="matrix(-0.4,0,0,-0.4,-4,0)"
         style="fill:#a40000;fill-opacity:1;fill-rule:evenodd;stroke:#a40000;stroke-width:1.00000003pt;stroke-opacity:1"
         d="M 0,0 5,-5 -12.5,0 5,5 Z"
         id="path7343" />
    </marker>
  </defs>
  <sodipodi:namedview
     id="base"
     pagecolor="#ffffff"
     bordercolor="#666666"
     borderopacity="1.0"
     inkscape:pageopacity="0.0"
     inkscape:pageshadow="2"
     inkscape:zoom="1.395161"
     inkscape:cx="-286.61407"
     inkscape:cy="59.19715"
     inkscape:document-units="mm"
     inkscape:current-layer="layer1"
     showgrid="false"
     inkscape:window-width="2560"
     inkscape:window-height="1375"
     inkscape:window-x="0"
     inkscape:window-y="0"
     inkscape:window-maximized="1"
     fit-margin-top="0"
     fit-margin-left="0"
     fit-margin-right="0"
     fit-margin-bottom="0" />
  <metadata
     id="metadata897">
    <rdf:RDF>
      <cc:Work
         rdf:about="">
        <dc:format>image/svg+xml</dc:format>
        <dc:type
           rdf:resource="http://purl.org/dc/dcmitype/StillImage" />
        <dc:title></dc:title>
      </cc:Work>
    </rdf:RDF>
  </metadata>
  <g
     inkscape:label="Layer 1"
     inkscape:groupmode="layer"
     id="layer1"
     transform="translate(-126.28126,50.205693)">
    <circle
       style="opacity:1;fill:#204a87;fill-opacity:0.95495498;fill-rule:nonzero;stroke:none;stroke-width:0.59771365;stroke-linecap:butt;stroke-linejoin:miter;stroke-miterlimit:4;stroke-dasharray:none;stroke-dashoffset:0;stroke-opacity:1;paint-order:normal"
       id="path6771"
       cx="164.815"
       cy="32.372265"
       r="7.6075735" />
    <circle
       r="38.678959"
       cy="32.399475"
       cx="164.96022"
       id="circle6755"
       style="opacity:1;fill:url(#radialGradient6769);fill-opacity:1;fill-rule:nonzero;stroke:none;stroke-width:0.98968279;stroke-linecap:butt;stroke-linejoin:miter;stroke-miterlimit:4;stroke-dasharray:none;stroke-dashoffset:0;stroke-opacity:1;paint-order:normal" />
    <circle
       style="opacity:1;fill:#ce5c00;fill-opacity:0.95495498;fill-rule:nonzero;stroke:none;stroke-width:0.59771365;stroke-linecap:butt;stroke-linejoin:miter;stroke-miterlimit:4;stroke-dasharray:none;stroke-dashoffset:0;stroke-opacity:1;paint-order:normal"
       id="circle5500"
       cx="164.94875"
       cy="32.304211"
       r="1.8868346" />
    <circle
       r="1.8868346"
       cy="13.914341"
       cx="147.64725"
       id="circle3401"
       style="opacity:1;fill:#ce5c00;fill-opacity:0.95495498;fill-rule:nonzero;stroke:none;stroke-width:0.59771365;stroke-linecap:butt;stroke-linejoin:miter;stroke-miterlimit:4;stroke-dasharray:none;stroke-dashoffset:0;stroke-opacity:1;paint-order:normal" />
    <path
       sodipodi:nodetypes="cc"
       style="fill:none;fill-rule:evenodd;stroke:#4e9a06;stroke-width:0.72818822;stroke-linecap:butt;stroke-linejoin:miter;stroke-miterlimit:4;stroke-dasharray:none;stroke-opacity:1;marker-end:url(#marker5510)"
       d="m 148.52356,14.782338 15.09578,16.245775"
       id="path3403"
       inkscape:connector-curvature="0" />
    <text
       xml:space="preserve"
       style="font-style:normal;font-variant:normal;font-weight:normal;font-stretch:normal;font-size:3.62770081px;line-height:125%;font-family:'CMU Sans Serif';-inkscape-font-specification:'CMU Sans Serif';letter-spacing:0px;word-spacing:0px;fill:#ce5c00;fill-opacity:1;stroke:none;stroke-width:0.34009692px;stroke-linecap:butt;stroke-linejoin:miter;stroke-opacity:1"
       x="149.28177"
       y="7.0069032"
       id="text3497"><tspan
         sodipodi:role="line"
         id="tspan3495"
         x="149.28177"
         y="7.0069032"
         style="font-size:5.44155073px;fill:#ce5c00;stroke-width:0.34009692px">N<tspan
   style="font-size:5.44155073px;baseline-shift:sub;fill:#ce5c00;stroke-width:0.34009692px"
   id="tspan3499">therm</tspan></tspan></text>
    <text
       xml:space="preserve"
       style="font-style:normal;font-variant:normal;font-weight:normal;font-stretch:normal;font-size:3.62770081px;line-height:125%;font-family:'CMU Sans Serif';-inkscape-font-specification:'CMU Sans Serif';letter-spacing:0px;word-spacing:0px;fill:#ce5c00;fill-opacity:1;stroke:none;stroke-width:0.34009692px;stroke-linecap:butt;stroke-linejoin:miter;stroke-opacity:1"
       x="174.00502"
       y="37.475712"
       id="text3503"><tspan
         sodipodi:role="line"
         id="tspan3501"
         x="174.00502"
         y="37.475712"
         style="font-size:5.44155073px;fill:#ce5c00;stroke-width:0.34009692px">N<tspan
   style="font-size:5.44155073px;baseline-shift:sub;fill:#ce5c00;stroke-width:0.34009692px"
   id="tspan3505">BEC</tspan></tspan></text>
    <circle
       style="opacity:1;fill:#ce5c00;fill-opacity:0.95495498;fill-rule:nonzero;stroke:none;stroke-width:0.55303997;stroke-linecap:butt;stroke-linejoin:miter;stroke-miterlimit:4;stroke-dasharray:none;stroke-dashoffset:0;stroke-opacity:1;paint-order:normal"
       id="path6179-3"
       cx="167.30125"
       cy="-21.340534"
       r="1.7458107" />
    <path
       style="fill:none;fill-rule:evenodd;stroke:#a40000;stroke-width:0.4302578;stroke-linecap:butt;stroke-linejoin:miter;stroke-miterlimit:4;stroke-dasharray:none;stroke-opacity:1;marker-end:url(#marker7345)"
       d="m 150.98311,-21.237925 h 3.15913 c 0.45669,0 1.4483,2.827817 2.24464,0 0.80457,-2.857047 1.39282,-2.00032 2.07837,0 1.08338,3.161178 1.3187,1.954528 2.24464,0 1.01893,-2.150787 1.45607,0 2.32778,0 h 2.49403"
       id="path1485"
       inkscape:connector-curvature="0"
       sodipodi:nodetypes="csssssc" />
    <path
       sodipodi:nodetypes="csssssc"
       inkscape:connector-curvature="0"
       id="path1964"
       d="m 167.55862,-22.34133 1e-5,-3.159119 c 0,-0.456705 -2.82781,-1.448308 -1e-5,-2.244641 2.85706,-0.804571 2.00032,-1.39283 0,-2.078373 -3.16116,-1.083381 -1.95451,-1.318696 0,-2.244637 2.15081,-1.018923 1e-5,-1.456072 0,-2.327777 l 1e-5,-2.494042"
       style="fill:none;fill-rule:evenodd;stroke:#a40000;stroke-width:0.4302578;stroke-linecap:butt;stroke-linejoin:miter;stroke-miterlimit:4;stroke-dasharray:none;stroke-opacity:1;marker-end:url(#marker1968-3)" />
    <path
       style="fill:none;fill-rule:evenodd;stroke:#000000;stroke-width:0.34009692px;stroke-linecap:butt;stroke-linejoin:miter;stroke-opacity:1"
       d="m 165.38976,-39.208312 h 6.029 c -1.17775,-5.816841 -5.01903,-5.778118 -6.029,0 z"
       id="path1000"
       inkscape:connector-curvature="0"
       sodipodi:nodetypes="ccc" />
    <path
       style="opacity:0.39963505;fill:#babdb6;fill-opacity:0.99774774;fill-rule:nonzero;stroke:none;stroke-width:0.72882503;stroke-linecap:round;stroke-linejoin:miter;stroke-miterlimit:4;stroke-dasharray:none;stroke-dashoffset:0;stroke-opacity:1;paint-order:normal"
       id="path1002"
       d="m 168.06127,-43.370746 c -0.17095,-0.142888 -0.34303,-0.28383 -0.50972,-0.431793 -0.22462,-0.199373 -0.44751,-0.400655 -0.65003,-0.622756 -0.0603,-0.07635 -0.15449,-0.171126 -0.13105,-0.280024 0.005,-0.02424 0.0185,-0.046 0.0279,-0.069 0.0179,-0.02258 0.0338,-0.04699 0.0537,-0.06775 0.0873,-0.09054 0.19957,-0.158545 0.30235,-0.229168 0.28035,-0.19262 -0.0325,0.02297 0.26442,-0.181822 0.14471,-0.10989 0.30725,-0.218155 0.40196,-0.378705 0.0189,-0.03199 0.0382,-0.06513 0.0462,-0.101432 0.009,-0.03899 0.001,-0.07979 0.001,-0.119671 -0.0256,-0.05409 -0.0422,-0.113565 -0.0769,-0.162273 -0.21292,-0.298055 -0.61008,-0.546334 -0.91557,-0.729284 -0.40109,-0.240203 -0.60134,-0.329571 -1.02418,-0.540516 -0.86055,-0.419487 -1.75118,-0.771485 -2.62821,-1.153987 -0.11595,-0.0526 -0.22242,-0.09841 -0.33426,-0.156979 -0.092,-0.0482 -0.16399,-0.08836 -0.22058,-0.175826 -0.004,-0.01451 -0.0116,-0.02842 -0.0131,-0.04352 -0.009,-0.119158 0.1171,-0.186832 0.20244,-0.240139 1.15283,-0.651554 0.48486,-0.311585 0.87977,-0.4862 0.0495,-0.02188 0.0965,-0.04333 0.14446,-0.06831 0.0195,-0.01015 0.0771,-0.04306 0.058,-0.03206 -0.2256,0.129721 -0.45158,0.258809 -0.67736,0.388213 0.0622,-0.03694 0.12378,-0.1121 0.0994,-0.191142 -0.009,-0.0289 -0.0266,-0.05435 -0.0399,-0.08152 -0.17052,-0.17715 -0.0681,-0.08799 -0.31874,-0.253675 0,0 0.65989,-0.425608 0.65989,-0.425608 v 0 c 0.28968,0.169081 0.16624,0.07691 0.37909,0.264358 0.0212,0.03384 0.0468,0.06531 0.0635,0.10156 0.044,0.09522 0.009,0.203954 -0.0539,0.280351 -0.25655,0.148406 -0.5124,0.29806 -0.76967,0.445221 -0.0631,0.03611 -0.1337,0.06187 -0.19965,0.09211 -0.027,0.01234 -0.1063,0.05324 -0.0808,0.03793 0.21147,-0.126882 0.42603,-0.248573 0.63905,-0.372859 -0.0593,0.03318 -0.11697,0.06475 -0.17257,0.10363 -0.0116,0.0082 -0.0234,0.01623 -0.0353,0.02404 -0.008,0.005 -0.0175,0.0075 -0.0234,0.0144 -0.004,0.0044 -0.003,0.01118 -0.004,0.01687 0.0332,0.06919 0.10579,0.114825 0.16774,0.155328 0.10887,0.07119 0.18079,0.108193 0.29934,0.174584 0.83153,0.439036 1.69464,0.812991 2.54748,1.207989 0.50657,0.244457 1.01785,0.484594 1.49341,0.787259 0.18671,0.118836 0.42541,0.28245 0.57407,0.457971 0.0463,0.05462 0.0734,0.122885 0.11015,0.184323 0.006,0.04985 0.0224,0.09948 0.0184,0.149532 -0.004,0.04154 -0.022,0.08085 -0.0397,0.118553 -0.0833,0.177063 -0.25387,0.294634 -0.4023,0.411764 -0.20342,0.142425 -0.41409,0.276223 -0.60601,0.433955 -0.0116,0.01234 -0.0487,0.0468 -0.0523,0.07011 -0.009,0.06056 0.0708,0.146415 0.0974,0.192091 0.18467,0.2314 0.40006,0.433888 0.6297,0.620405 0.17197,0.143376 0.34815,0.282561 0.53522,0.405896 0,0 -0.71828,0.457604 -0.71828,0.457604 z"
       inkscape:connector-curvature="0" />
  </g>
</svg>
