<?xml version="1.0" encoding="UTF-8" standalone="no"?>
<svg
   xmlns:dc="http://purl.org/dc/elements/1.1/"
   xmlns:cc="http://creativecommons.org/ns#"
   xmlns:rdf="http://www.w3.org/1999/02/22-rdf-syntax-ns#"
   xmlns:svg="http://www.w3.org/2000/svg"
   xmlns="http://www.w3.org/2000/svg"
   xmlns:sodipodi="http://sodipodi.sourceforge.net/DTD/sodipodi-0.dtd"
   xmlns:inkscape="http://www.inkscape.org/namespaces/inkscape"
   style="font-style:normal;font-weight:normal;font-size:12px;font-family:Dialog;color-interpolation:auto;fill:#000000;fill-opacity:1;stroke:#000000;stroke-width:1;stroke-linecap:square;stroke-linejoin:miter;stroke-miterlimit:10;stroke-dasharray:none;stroke-dashoffset:0;stroke-opacity:1;color-rendering:auto;image-rendering:auto;shape-rendering:auto;text-rendering:auto"
   width="867.67181"
   height="632.2099"
   version="1.1"
   id="svg541"
   sodipodi:docname="PulsedSigmaPlus.svg"
   inkscape:version="0.92.5 (2060ec1f9f, 2020-04-08)">
  <metadata
     id="metadata545">
    <rdf:RDF>
      <cc:Work
         rdf:about="">
        <dc:format>image/svg+xml</dc:format>
        <dc:type
           rdf:resource="http://purl.org/dc/dcmitype/StillImage" />
        <dc:title></dc:title>
      </cc:Work>
    </rdf:RDF>
  </metadata>
  <sodipodi:namedview
     pagecolor="#ffffff"
     bordercolor="#666666"
     borderopacity="1"
     objecttolerance="10"
     gridtolerance="10"
     guidetolerance="10"
     inkscape:pageopacity="0"
     inkscape:pageshadow="2"
     inkscape:window-width="2560"
     inkscape:window-height="1411"
     id="namedview543"
     showgrid="false"
     inkscape:zoom="1.6513527"
     inkscape:cx="464.95358"
     inkscape:cy="289.71613"
     inkscape:window-x="2560"
     inkscape:window-y="0"
     inkscape:window-maximized="1"
     inkscape:current-layer="svg541"
     fit-margin-top="0"
     fit-margin-left="0"
     fit-margin-right="0"
     fit-margin-bottom="0" />
  <!--Generated by the Batik Graphics2D SVG Generator-->
  <defs
     id="genericDefs" />
  <g
     id="g539"
     transform="translate(-58.8594,-26.8125)">
    <defs
       id="defs1">
      <clipPath
         clipPathUnits="userSpaceOnUse"
         id="clipPath1">
        <path
           d="M 0,0 H 1005 V 691 H 0 Z"
           id="path3"
           inkscape:connector-curvature="0" />
      </clipPath>
    </defs>
    <g
       style="fill:#ffffff;stroke:#ffffff"
       id="g9" />
    <g
       style="color-interpolation:linearRGB;fill:#262626;stroke:#262626;stroke-width:0.66670001;stroke-linejoin:round;color-rendering:optimizeQuality;image-rendering:optimizeQuality;text-rendering:geometricPrecision"
       id="g41">
      <line
         y2="585"
         style="fill:none"
         x1="131"
         x2="914"
         y1="585"
         id="line17" />
      <line
         y2="60"
         style="fill:none"
         x1="131"
         x2="914"
         y1="60"
         id="line19" />
      <line
         y2="577.16998"
         style="fill:none"
         x1="131"
         x2="131"
         y1="585"
         id="line21" />
      <line
         y2="577.16998"
         style="fill:none"
         x1="326.75"
         x2="326.75"
         y1="585"
         id="line23" />
      <line
         y2="577.16998"
         style="fill:none"
         x1="522.5"
         x2="522.5"
         y1="585"
         id="line25" />
      <line
         y2="577.16998"
         style="fill:none"
         x1="718.25"
         x2="718.25"
         y1="585"
         id="line27" />
      <line
         y2="577.16998"
         style="fill:none"
         x1="914"
         x2="914"
         y1="585"
         id="line29" />
      <line
         y2="67.830002"
         style="fill:none"
         x1="131"
         x2="131"
         y1="60"
         id="line31" />
      <line
         y2="67.830002"
         style="fill:none"
         x1="326.75"
         x2="326.75"
         y1="60"
         id="line33" />
      <line
         y2="67.830002"
         style="fill:none"
         x1="522.5"
         x2="522.5"
         y1="60"
         id="line35" />
      <line
         y2="67.830002"
         style="fill:none"
         x1="718.25"
         x2="718.25"
         y1="60"
         id="line37" />
      <line
         y2="67.830002"
         style="fill:none"
         x1="914"
         x2="914"
         y1="60"
         id="line39" />
    </g>
    <g
       transform="translate(131,593)"
       style="font-size:27px;font-family:'Times New Roman';color-interpolation:linearRGB;fill:#262626;stroke:#262626;color-rendering:optimizeQuality;image-rendering:optimizeQuality;text-rendering:geometricPrecision"
       id="g45">
      <path
         style="stroke:none"
         d="m -6.0312,16.1719 q 0,-3.0625 0.9296,-5.2735 0.9297,-2.2109 2.4454,-3.289 1.1874,-0.8594 2.4531,-0.8594 2.0625,0 3.7031,2.0938 2.0312,2.6093 2.0312,7.0468 0,3.1094 -0.8906,5.2891 -0.8906,2.1797 -2.2812,3.1562 -1.3906,0.9766 -2.6875,0.9766 -2.5625,0 -4.2657,-3.0156 -1.4374,-2.5469 -1.4374,-6.125 z M -3.4375,16.5 q 0,3.6875 0.9063,6.0156 0.75,1.9688 2.2343,1.9688 0.7188,0 1.4844,-0.6406 0.7656,-0.6407 1.1563,-2.1407 0.6093,-2.2656 0.6093,-6.3906 0,-3.0625 -0.625,-5.1094 Q 1.8438,8.6875 1.0938,8.0625 0.5469,7.625 -0.2031,7.625 q -0.9063,0 -1.6094,0.7969 -0.9375,1.0937 -1.2813,3.4453 -0.3437,2.3516 -0.3437,4.6328 z"
         id="path43"
         inkscape:connector-curvature="0" />
    </g>
    <g
       transform="translate(326.75,593)"
       style="font-size:27px;font-family:'Times New Roman';color-interpolation:linearRGB;fill:#262626;stroke:#262626;color-rendering:optimizeQuality;image-rendering:optimizeQuality;text-rendering:geometricPrecision"
       id="g49">
      <path
         style="stroke:none"
         d="M 4.7188,7.125 3.6875,9.3594 h -5.375 l -1.1719,2.4062 q 3.5,0.5156 5.5313,2.5938 1.7656,1.7968 1.7656,4.2187 0,1.4063 -0.5781,2.6094 -0.5782,1.2031 -1.4453,2.0469 -0.8672,0.8437 -1.9453,1.3594 -1.5157,0.7187 -3.1094,0.7187 -1.6094,0 -2.336,-0.5469 -0.7265,-0.5468 -0.7265,-1.2031 0,-0.375 0.3047,-0.6563 0.3046,-0.2812 0.7578,-0.2812 0.3437,0 0.6015,0.1094 0.2579,0.1094 0.8829,0.5312 0.9843,0.6875 2,0.6875 1.5468,0 2.7109,-1.164 1.1641,-1.1641 1.1641,-2.836 0,-1.625 -1.0391,-3.0312 Q 0.6406,15.5156 -1.2031,14.75 -2.6406,14.1562 -5.1094,14.0781 L -1.6875,7.125 Z"
         id="path47"
         inkscape:connector-curvature="0" />
    </g>
    <g
       transform="translate(522.5,593)"
       style="font-size:27px;font-family:'Times New Roman';color-interpolation:linearRGB;fill:#262626;stroke:#262626;color-rendering:optimizeQuality;image-rendering:optimizeQuality;text-rendering:geometricPrecision"
       id="g53">
      <path
         style="stroke:none"
         d="M -10.3281,8.875 -5.9844,6.75 h 0.4375 v 15.0938 q 0,1.5156 0.125,1.8828 0.125,0.3672 0.5157,0.5625 0.3906,0.1953 1.6093,0.2265 V 25 h -6.7187 v -0.4844 q 1.2656,-0.0312 1.6328,-0.2187 0.3672,-0.1875 0.5156,-0.5157 0.1484,-0.3281 0.1484,-1.9374 v -9.6407 q 0,-1.9531 -0.1406,-2.5156 Q -7.9531,9.2656 -8.1953,9.0703 -8.4375,8.875 -8.7812,8.875 q -0.4844,0 -1.3594,0.4062 z m 11.2969,7.2969 q 0,-3.0625 0.9296,-5.2735 Q 2.8281,8.6875 4.3438,7.6094 5.5312,6.75 6.7969,6.75 q 2.0625,0 3.7031,2.0938 2.0312,2.6093 2.0312,7.0468 0,3.1094 -0.8906,5.2891 -0.8906,2.1797 -2.2812,3.1562 -1.3906,0.9766 -2.6875,0.9766 -2.5625,0 -4.2657,-3.0156 Q 0.9688,19.75 0.9688,16.1719 Z M 3.5625,16.5 q 0,3.6875 0.9063,6.0156 0.75,1.9688 2.2343,1.9688 0.7188,0 1.4844,-0.6406 0.7656,-0.6407 1.1563,-2.1407 0.6093,-2.2656 0.6093,-6.3906 0,-3.0625 -0.625,-5.1094 Q 8.8438,8.6875 8.0938,8.0625 7.5469,7.625 6.7969,7.625 5.8906,7.625 5.1875,8.4219 4.25,9.5156 3.9062,11.8672 3.5625,14.2188 3.5625,16.5 Z"
         id="path51"
         inkscape:connector-curvature="0" />
    </g>
    <g
       transform="translate(718.25,593)"
       style="font-size:27px;font-family:'Times New Roman';color-interpolation:linearRGB;fill:#262626;stroke:#262626;color-rendering:optimizeQuality;image-rendering:optimizeQuality;text-rendering:geometricPrecision"
       id="g57">
      <path
         style="stroke:none"
         d="M -10.3281,8.875 -5.9844,6.75 h 0.4375 v 15.0938 q 0,1.5156 0.125,1.8828 0.125,0.3672 0.5157,0.5625 0.3906,0.1953 1.6093,0.2265 V 25 h -6.7187 v -0.4844 q 1.2656,-0.0312 1.6328,-0.2187 0.3672,-0.1875 0.5156,-0.5157 0.1484,-0.3281 0.1484,-1.9374 v -9.6407 q 0,-1.9531 -0.1406,-2.5156 Q -7.9531,9.2656 -8.1953,9.0703 -8.4375,8.875 -8.7812,8.875 q -0.4844,0 -1.3594,0.4062 z m 22.0469,-1.75 -1.0313,2.2344 h -5.375 l -1.1719,2.4062 q 3.5,0.5156 5.5313,2.5938 1.7656,1.7968 1.7656,4.2187 0,1.4063 -0.5781,2.6094 -0.5782,1.2031 -1.4453,2.0469 -0.8672,0.8437 -1.9453,1.3594 -1.5157,0.7187 -3.1094,0.7187 -1.6094,0 -2.336,-0.5469 -0.7265,-0.5468 -0.7265,-1.2031 0,-0.375 0.3047,-0.6563 0.3046,-0.2812 0.7578,-0.2812 0.3437,0 0.6015,0.1094 0.2579,0.1094 0.8829,0.5312 0.9843,0.6875 2,0.6875 1.5468,0 2.7109,-1.164 1.1641,-1.1641 1.1641,-2.836 0,-1.625 -1.0391,-3.0312 Q 7.6406,15.5156 5.7969,14.75 4.3594,14.1562 1.8906,14.0781 L 5.3125,7.125 Z"
         id="path55"
         inkscape:connector-curvature="0" />
    </g>
    <g
       transform="translate(914,593)"
       style="font-size:27px;font-family:'Times New Roman';color-interpolation:linearRGB;fill:#262626;stroke:#262626;color-rendering:optimizeQuality;image-rendering:optimizeQuality;text-rendering:geometricPrecision"
       id="g61">
      <path
         style="stroke:none"
         d="M -1.125,21.5625 -2.375,25 h -10.5469 v -0.4844 q 4.6563,-4.25 6.5547,-6.9375 1.8984,-2.6875 1.8984,-4.9219 0,-1.7031 -1.039,-2.7968 Q -6.5469,8.7656 -8,8.7656 q -1.3281,0 -2.375,0.7735 -1.0469,0.7734 -1.5469,2.2578 h -0.4843 q 0.3281,-2.4375 1.6953,-3.7422 1.3671,-1.3047 3.414,-1.3047 2.1719,0 3.625,1.3984 1.4531,1.3985 1.4531,3.3047 0,1.3594 -0.625,2.7031 -0.9843,2.1407 -3.1718,4.5313 -3.2813,3.5781 -4.0938,4.3281 h 4.6719 q 1.4219,0 1.9922,-0.1094 0.5703,-0.1093 1.0312,-0.4296 0.461,-0.3204 0.8047,-0.9141 z m 2.0938,-5.3906 q 0,-3.0625 0.9296,-5.2735 Q 2.8281,8.6875 4.3438,7.6094 5.5312,6.75 6.7969,6.75 q 2.0625,0 3.7031,2.0938 2.0312,2.6093 2.0312,7.0468 0,3.1094 -0.8906,5.2891 -0.8906,2.1797 -2.2812,3.1562 -1.3906,0.9766 -2.6875,0.9766 -2.5625,0 -4.2657,-3.0156 Q 0.9688,19.75 0.9688,16.1719 Z M 3.5625,16.5 q 0,3.6875 0.9063,6.0156 0.75,1.9688 2.2343,1.9688 0.7188,0 1.4844,-0.6406 0.7656,-0.6407 1.1563,-2.1407 0.6093,-2.2656 0.6093,-6.3906 0,-3.0625 -0.625,-5.1094 Q 8.8438,8.6875 8.0938,8.0625 7.5469,7.625 6.7969,7.625 5.8906,7.625 5.1875,8.4219 4.25,9.5156 3.9062,11.8672 3.5625,14.2188 3.5625,16.5 Z"
         id="path59"
         inkscape:connector-curvature="0" />
    </g>
    <g
       style="color-interpolation:linearRGB;fill:#262626;stroke:#262626;stroke-width:0.66670001;stroke-linejoin:round;color-rendering:optimizeQuality;image-rendering:optimizeQuality;text-rendering:geometricPrecision"
       id="g103">
      <line
         y2="60"
         style="fill:none"
         x1="131"
         x2="131"
         y1="585"
         id="line63" />
      <line
         y2="60"
         style="fill:none"
         x1="914"
         x2="914"
         y1="585"
         id="line65" />
      <line
         y2="585"
         style="fill:none"
         x1="131"
         x2="138.83"
         y1="585"
         id="line67" />
      <line
         y2="519.375"
         style="fill:none"
         x1="131"
         x2="138.83"
         y1="519.375"
         id="line69" />
      <line
         y2="453.75"
         style="fill:none"
         x1="131"
         x2="138.83"
         y1="453.75"
         id="line71" />
      <line
         y2="388.125"
         style="fill:none"
         x1="131"
         x2="138.83"
         y1="388.125"
         id="line73" />
      <line
         y2="322.5"
         style="fill:none"
         x1="131"
         x2="138.83"
         y1="322.5"
         id="line75" />
      <line
         y2="256.875"
         style="fill:none"
         x1="131"
         x2="138.83"
         y1="256.875"
         id="line77" />
      <line
         y2="191.25"
         style="fill:none"
         x1="131"
         x2="138.83"
         y1="191.25"
         id="line79" />
      <line
         y2="125.625"
         style="fill:none"
         x1="131"
         x2="138.83"
         y1="125.625"
         id="line81" />
      <line
         y2="60"
         style="fill:none"
         x1="131"
         x2="138.83"
         y1="60"
         id="line83" />
      <line
         y2="585"
         style="fill:none"
         x1="914"
         x2="906.16998"
         y1="585"
         id="line85" />
      <line
         y2="519.375"
         style="fill:none"
         x1="914"
         x2="906.16998"
         y1="519.375"
         id="line87" />
      <line
         y2="453.75"
         style="fill:none"
         x1="914"
         x2="906.16998"
         y1="453.75"
         id="line89" />
      <line
         y2="388.125"
         style="fill:none"
         x1="914"
         x2="906.16998"
         y1="388.125"
         id="line91" />
      <line
         y2="322.5"
         style="fill:none"
         x1="914"
         x2="906.16998"
         y1="322.5"
         id="line93" />
      <line
         y2="256.875"
         style="fill:none"
         x1="914"
         x2="906.16998"
         y1="256.875"
         id="line95" />
      <line
         y2="191.25"
         style="fill:none"
         x1="914"
         x2="906.16998"
         y1="191.25"
         id="line97" />
      <line
         y2="125.625"
         style="fill:none"
         x1="914"
         x2="906.16998"
         y1="125.625"
         id="line99" />
      <line
         y2="60"
         style="fill:none"
         x1="914"
         x2="906.16998"
         y1="60"
         id="line101" />
    </g>
    <g
       transform="translate(123,585)"
       style="font-size:27px;font-family:'Times New Roman';color-interpolation:linearRGB;fill:#262626;stroke:#262626;color-rendering:optimizeQuality;image-rendering:optimizeQuality;text-rendering:geometricPrecision"
       id="g107">
      <path
         style="stroke:none"
         d="M -21.625,6.0625 -22.875,9.5 H -33.4219 V 9.0156 q 4.6563,-4.25 6.5547,-6.9375 1.8984,-2.6875 1.8984,-4.9219 0,-1.7031 -1.039,-2.7968 -1.0391,-1.0938 -2.4922,-1.0938 -1.3281,0 -2.375,0.7735 -1.0469,0.7734 -1.5469,2.2578 h -0.4843 q 0.3281,-2.4375 1.6953,-3.7422 1.3671,-1.3047 3.414,-1.3047 2.1719,0 3.625,1.3984 1.4531,1.3985 1.4531,3.3047 0,1.3594 -0.625,2.7031 -0.9843,2.1407 -3.1718,4.5313 -3.2813,3.5781 -4.0938,4.3281 h 4.6719 q 1.4219,0 1.9922,-0.1094 0.5703,-0.1093 1.0312,-0.4296 0.461,-0.3204 0.8047,-0.9141 z m 4.5,0.875 q 0.625,0 1.0469,0.4297 0.4219,0.4297 0.4219,1.039 0,0.6094 -0.4297,1.0391 -0.4297,0.4297 -1.0391,0.4297 -0.6094,0 -1.0391,-0.4297 -0.4297,-0.4297 -0.4297,-1.0391 0,-0.625 0.4297,-1.0468 0.4297,-0.4219 1.0391,-0.4219 z M -2.0312,-8.375 -3.0625,-6.1406 h -5.375 l -1.1719,2.4062 q 3.5,0.5156 5.5313,2.5938 1.7656,1.7968 1.7656,4.2187 0,1.4063 -0.5781,2.6094 -0.5782,1.2031 -1.4453,2.0469 -0.8672,0.8437 -1.9453,1.3594 -1.5157,0.7187 -3.1094,0.7187 -1.6094,0 -2.336,-0.5469 -0.7265,-0.5468 -0.7265,-1.2031 0,-0.375 0.3047,-0.6563 0.3046,-0.2812 0.7578,-0.2812 0.3437,0 0.6015,0.1094 0.2579,0.1094 0.8829,0.5312 0.9843,0.6875 2,0.6875 1.5468,0 2.7109,-1.164 1.1641,-1.1641 1.1641,-2.836 0,-1.625 -1.0391,-3.0312 -1.0391,-1.4063 -2.8828,-2.1719 -1.4375,-0.5938 -3.9063,-0.6719 l 3.4219,-6.9531 z"
         id="path105"
         inkscape:connector-curvature="0" />
    </g>
    <g
       transform="translate(123,519.375)"
       style="font-size:27px;font-family:'Times New Roman';color-interpolation:linearRGB;fill:#262626;stroke:#262626;color-rendering:optimizeQuality;image-rendering:optimizeQuality;text-rendering:geometricPrecision"
       id="g111">
      <path
         style="stroke:none"
         d="m -12.625,-4.9688 q 0.7656,-1.8124 1.9297,-2.7968 1.1641,-0.9844 2.8984,-0.9844 2.1563,0 3.2969,1.4062 0.875,1.0313 0.875,2.2188 0,1.9531 -2.4531,4.0312 1.6562,0.6563 2.5,1.8516 0.8437,1.1953 0.8437,2.8203 0,2.3281 -1.4844,4.0157 -1.9218,2.2187 -5.5781,2.2187 -1.7969,0 -2.4531,-0.4453 -0.6562,-0.4453 -0.6562,-0.961 0,-0.3906 0.3124,-0.6796 0.3126,-0.2891 0.75,-0.2891 0.3282,0 0.6719,0.1094 0.2188,0.0625 1.0078,0.4765 0.7891,0.4141 1.1016,0.5078 0.4844,0.1407 1.0313,0.1407 1.3437,0 2.3437,-1.0391 1,-1.039 1,-2.4766 0,-1.0312 -0.4687,-2.0312 Q -5.5,2.3906 -5.9062,2.0156 -6.4688,1.4844 -7.4609,1.0547 -8.4531,0.625 -9.4844,0.625 H -9.9062 V 0.2344 q 1.0468,-0.1406 2.0937,-0.7578 1.0469,-0.6172 1.5234,-1.4844 0.4766,-0.8672 0.4766,-1.9141 0,-1.3593 -0.8516,-2.1953 -0.8515,-0.8359 -2.1171,-0.8359 -2.0469,0 -3.4063,2.1875 z"
         id="path109"
         inkscape:connector-curvature="0" />
    </g>
    <g
       transform="translate(123,453.75)"
       style="font-size:27px;font-family:'Times New Roman';color-interpolation:linearRGB;fill:#262626;stroke:#262626;color-rendering:optimizeQuality;image-rendering:optimizeQuality;text-rendering:geometricPrecision"
       id="g115">
      <path
         style="stroke:none"
         d="m -32.625,-4.9688 q 0.7656,-1.8124 1.9297,-2.7968 1.1641,-0.9844 2.8984,-0.9844 2.1563,0 3.2969,1.4062 0.875,1.0313 0.875,2.2188 0,1.9531 -2.4531,4.0312 1.6562,0.6563 2.5,1.8516 0.8437,1.1953 0.8437,2.8203 0,2.3281 -1.4844,4.0157 -1.9218,2.2187 -5.5781,2.2187 -1.7969,0 -2.4531,-0.4453 -0.6562,-0.4453 -0.6562,-0.961 0,-0.3906 0.3124,-0.6796 0.3126,-0.2891 0.75,-0.2891 0.3282,0 0.6719,0.1094 0.2188,0.0625 1.0078,0.4765 0.7891,0.4141 1.1016,0.5078 0.4844,0.1407 1.0313,0.1407 1.3437,0 2.3437,-1.0391 1,-1.039 1,-2.4766 0,-1.0312 -0.4687,-2.0312 Q -25.5,2.3906 -25.9062,2.0156 -26.4688,1.4844 -27.4609,1.0547 -28.4531,0.625 -29.4844,0.625 h -0.4218 V 0.2344 q 1.0468,-0.1406 2.0937,-0.7578 1.0469,-0.6172 1.5234,-1.4844 0.4766,-0.8672 0.4766,-1.9141 0,-1.3593 -0.8516,-2.1953 -0.8515,-0.8359 -2.1171,-0.8359 -2.0469,0 -3.4063,2.1875 z m 15.5,11.9063 q 0.625,0 1.0469,0.4297 0.4219,0.4297 0.4219,1.039 0,0.6094 -0.4297,1.0391 -0.4297,0.4297 -1.0391,0.4297 -0.6094,0 -1.0391,-0.4297 -0.4297,-0.4297 -0.4297,-1.0391 0,-0.625 0.4297,-1.0468 0.4297,-0.4219 1.0391,-0.4219 z M -2.0312,-8.375 -3.0625,-6.1406 h -5.375 l -1.1719,2.4062 q 3.5,0.5156 5.5313,2.5938 1.7656,1.7968 1.7656,4.2187 0,1.4063 -0.5781,2.6094 -0.5782,1.2031 -1.4453,2.0469 -0.8672,0.8437 -1.9453,1.3594 -1.5157,0.7187 -3.1094,0.7187 -1.6094,0 -2.336,-0.5469 -0.7265,-0.5468 -0.7265,-1.2031 0,-0.375 0.3047,-0.6563 0.3046,-0.2812 0.7578,-0.2812 0.3437,0 0.6015,0.1094 0.2579,0.1094 0.8829,0.5312 0.9843,0.6875 2,0.6875 1.5468,0 2.7109,-1.164 1.1641,-1.1641 1.1641,-2.836 0,-1.625 -1.0391,-3.0312 -1.0391,-1.4063 -2.8828,-2.1719 -1.4375,-0.5938 -3.9063,-0.6719 l 3.4219,-6.9531 z"
         id="path113"
         inkscape:connector-curvature="0" />
    </g>
    <g
       transform="translate(123,388.125)"
       style="font-size:27px;font-family:'Times New Roman';color-interpolation:linearRGB;fill:#262626;stroke:#262626;color-rendering:optimizeQuality;image-rendering:optimizeQuality;text-rendering:geometricPrecision"
       id="g119">
      <path
         style="stroke:none"
         d="m -1.4375,2.9062 v 1.875 H -3.8281 V 9.5 H -6.0156 V 4.7812 h -7.5625 V 3.0938 L -5.2812,-8.75 h 1.4531 V 2.9062 Z m -4.5781,0 v -8.875 l -6.2656,8.875 z"
         id="path117"
         inkscape:connector-curvature="0" />
    </g>
    <g
       transform="translate(123,322.5)"
       style="font-size:27px;font-family:'Times New Roman';color-interpolation:linearRGB;fill:#262626;stroke:#262626;color-rendering:optimizeQuality;image-rendering:optimizeQuality;text-rendering:geometricPrecision"
       id="g123">
      <path
         style="stroke:none"
         d="m -21.4375,2.9062 v 1.875 h -2.3906 V 9.5 h -2.1875 V 4.7812 h -7.5625 V 3.0938 L -25.2812,-8.75 h 1.4531 V 2.9062 Z m -4.5781,0 v -8.875 l -6.2656,8.875 z m 8.8906,4.0313 q 0.625,0 1.0469,0.4297 0.4219,0.4297 0.4219,1.039 0,0.6094 -0.4297,1.0391 -0.4297,0.4297 -1.0391,0.4297 -0.6094,0 -1.0391,-0.4297 -0.4297,-0.4297 -0.4297,-1.0391 0,-0.625 0.4297,-1.0468 0.4297,-0.4219 1.0391,-0.4219 z M -2.0312,-8.375 -3.0625,-6.1406 h -5.375 l -1.1719,2.4062 q 3.5,0.5156 5.5313,2.5938 1.7656,1.7968 1.7656,4.2187 0,1.4063 -0.5781,2.6094 -0.5782,1.2031 -1.4453,2.0469 -0.8672,0.8437 -1.9453,1.3594 -1.5157,0.7187 -3.1094,0.7187 -1.6094,0 -2.336,-0.5469 -0.7265,-0.5468 -0.7265,-1.2031 0,-0.375 0.3047,-0.6563 0.3046,-0.2812 0.7578,-0.2812 0.3437,0 0.6015,0.1094 0.2579,0.1094 0.8829,0.5312 0.9843,0.6875 2,0.6875 1.5468,0 2.7109,-1.164 1.1641,-1.1641 1.1641,-2.836 0,-1.625 -1.0391,-3.0312 -1.0391,-1.4063 -2.8828,-2.1719 -1.4375,-0.5938 -3.9063,-0.6719 l 3.4219,-6.9531 z"
         id="path121"
         inkscape:connector-curvature="0" />
    </g>
    <g
       transform="translate(123,256.875)"
       style="font-size:27px;font-family:'Times New Roman';color-interpolation:linearRGB;fill:#262626;stroke:#262626;color-rendering:optimizeQuality;image-rendering:optimizeQuality;text-rendering:geometricPrecision"
       id="g127">
      <path
         style="stroke:none"
         d="m -2.2812,-8.375 -1.0313,2.2344 h -5.375 l -1.1719,2.4062 q 3.5,0.5156 5.5313,2.5938 1.7656,1.7968 1.7656,4.2187 0,1.4063 -0.5781,2.6094 -0.5782,1.2031 -1.4453,2.0469 -0.8672,0.8437 -1.9453,1.3594 -1.5157,0.7187 -3.1094,0.7187 -1.6094,0 -2.336,-0.5469 -0.7265,-0.5468 -0.7265,-1.2031 0,-0.375 0.3047,-0.6563 0.3046,-0.2812 0.7578,-0.2812 0.3437,0 0.6015,0.1094 0.2579,0.1094 0.8829,0.5312 0.9843,0.6875 2,0.6875 1.5468,0 2.7109,-1.164 1.1641,-1.1641 1.1641,-2.836 0,-1.625 -1.0391,-3.0312 -1.0391,-1.4063 -2.8828,-2.1719 -1.4375,-0.5938 -3.9063,-0.6719 l 3.4219,-6.9531 z"
         id="path125"
         inkscape:connector-curvature="0" />
    </g>
    <g
       transform="translate(123,191.25)"
       style="font-size:27px;font-family:'Times New Roman';color-interpolation:linearRGB;fill:#262626;stroke:#262626;color-rendering:optimizeQuality;image-rendering:optimizeQuality;text-rendering:geometricPrecision"
       id="g131">
      <path
         style="stroke:none"
         d="m -22.2812,-8.375 -1.0313,2.2344 h -5.375 l -1.1719,2.4062 q 3.5,0.5156 5.5313,2.5938 1.7656,1.7968 1.7656,4.2187 0,1.4063 -0.5781,2.6094 -0.5782,1.2031 -1.4453,2.0469 -0.8672,0.8437 -1.9453,1.3594 -1.5157,0.7187 -3.1094,0.7187 -1.6094,0 -2.336,-0.5469 -0.7265,-0.5468 -0.7265,-1.2031 0,-0.375 0.3047,-0.6563 0.3046,-0.2812 0.7578,-0.2812 0.3437,0 0.6015,0.1094 0.2579,0.1094 0.8829,0.5312 0.9843,0.6875 2,0.6875 1.5468,0 2.7109,-1.164 1.1641,-1.1641 1.1641,-2.836 0,-1.625 -1.0391,-3.0312 -1.0391,-1.4063 -2.8828,-2.1719 -1.4375,-0.5938 -3.9063,-0.6719 l 3.4219,-6.9531 z m 5.1562,15.3125 q 0.625,0 1.0469,0.4297 0.4219,0.4297 0.4219,1.039 0,0.6094 -0.4297,1.0391 -0.4297,0.4297 -1.0391,0.4297 -0.6094,0 -1.0391,-0.4297 -0.4297,-0.4297 -0.4297,-1.0391 0,-0.625 0.4297,-1.0468 0.4297,-0.4219 1.0391,-0.4219 z M -2.0312,-8.375 -3.0625,-6.1406 h -5.375 l -1.1719,2.4062 q 3.5,0.5156 5.5313,2.5938 1.7656,1.7968 1.7656,4.2187 0,1.4063 -0.5781,2.6094 -0.5782,1.2031 -1.4453,2.0469 -0.8672,0.8437 -1.9453,1.3594 -1.5157,0.7187 -3.1094,0.7187 -1.6094,0 -2.336,-0.5469 -0.7265,-0.5468 -0.7265,-1.2031 0,-0.375 0.3047,-0.6563 0.3046,-0.2812 0.7578,-0.2812 0.3437,0 0.6015,0.1094 0.2579,0.1094 0.8829,0.5312 0.9843,0.6875 2,0.6875 1.5468,0 2.7109,-1.164 1.1641,-1.1641 1.1641,-2.836 0,-1.625 -1.0391,-3.0312 -1.0391,-1.4063 -2.8828,-2.1719 -1.4375,-0.5938 -3.9063,-0.6719 l 3.4219,-6.9531 z"
         id="path129"
         inkscape:connector-curvature="0" />
    </g>
    <g
       transform="translate(123,125.625)"
       style="font-size:27px;font-family:'Times New Roman';color-interpolation:linearRGB;fill:#262626;stroke:#262626;color-rendering:optimizeQuality;image-rendering:optimizeQuality;text-rendering:geometricPrecision"
       id="g135">
      <path
         style="stroke:none"
         d="m -1.8906,-8.75 v 0.4844 q -1.75,0.1718 -2.8516,0.6953 -1.1016,0.5234 -2.1719,1.5937 -1.0703,1.0704 -1.7812,2.3828 -0.7109,1.3126 -1.1797,3.1094 1.9062,-1.2968 3.8125,-1.2968 1.8281,0 3.1719,1.4765 1.3437,1.4766 1.3437,3.7891 0,2.25 -1.3593,4.0937 -1.625,2.2344 -4.3126,2.2344 -1.8437,0 -3.1093,-1.2031 -2.5157,-2.3594 -2.5157,-6.125 0,-2.3906 0.961,-4.5547 0.9609,-2.1641 2.75,-3.8438 1.789,-1.6797 3.4219,-2.2578 1.6328,-0.5781 3.0547,-0.5781 z m -8.2032,9.2344 q -0.2343,1.7812 -0.2343,2.875 0,1.2656 0.4609,2.75 0.461,1.4844 1.3984,2.3437 0.6719,0.625 1.625,0.625 1.1563,0 2.0547,-1.0781 0.8985,-1.0781 0.8985,-3.0938 0,-2.25 -0.8985,-3.8984 -0.8984,-1.6484 -2.539,-1.6484 -0.5,0 -1.0781,0.2109 -0.5782,0.2109 -1.6876,0.9141 z"
         id="path133"
         inkscape:connector-curvature="0" />
    </g>
    <g
       transform="translate(123,60)"
       style="font-size:27px;font-family:'Times New Roman';color-interpolation:linearRGB;fill:#262626;stroke:#262626;color-rendering:optimizeQuality;image-rendering:optimizeQuality;text-rendering:geometricPrecision"
       id="g139">
      <path
         style="stroke:none"
         d="m -21.8906,-8.75 v 0.4844 q -1.75,0.1718 -2.8516,0.6953 -1.1016,0.5234 -2.1719,1.5937 -1.0703,1.0704 -1.7812,2.3828 -0.7109,1.3126 -1.1797,3.1094 1.9062,-1.2968 3.8125,-1.2968 1.8281,0 3.1719,1.4765 1.3437,1.4766 1.3437,3.7891 0,2.25 -1.3593,4.0937 -1.625,2.2344 -4.3126,2.2344 -1.8437,0 -3.1093,-1.2031 -2.5157,-2.3594 -2.5157,-6.125 0,-2.3906 0.961,-4.5547 0.9609,-2.1641 2.75,-3.8438 1.789,-1.6797 3.4219,-2.2578 1.6328,-0.5781 3.0547,-0.5781 z m -8.2032,9.2344 q -0.2343,1.7812 -0.2343,2.875 0,1.2656 0.4609,2.75 0.461,1.4844 1.3984,2.3437 0.6719,0.625 1.625,0.625 1.1563,0 2.0547,-1.0781 0.8985,-1.0781 0.8985,-3.0938 0,-2.25 -0.8985,-3.8984 -0.8984,-1.6484 -2.539,-1.6484 -0.5,0 -1.0781,0.2109 -0.5782,0.2109 -1.6876,0.9141 z m 12.9688,6.4531 q 0.625,0 1.0469,0.4297 0.4219,0.4297 0.4219,1.039 0,0.6094 -0.4297,1.0391 -0.4297,0.4297 -1.0391,0.4297 -0.6094,0 -1.0391,-0.4297 -0.4297,-0.4297 -0.4297,-1.0391 0,-0.625 0.4297,-1.0468 0.4297,-0.4219 1.0391,-0.4219 z M -2.0312,-8.375 -3.0625,-6.1406 h -5.375 l -1.1719,2.4062 q 3.5,0.5156 5.5313,2.5938 1.7656,1.7968 1.7656,4.2187 0,1.4063 -0.5781,2.6094 -0.5782,1.2031 -1.4453,2.0469 -0.8672,0.8437 -1.9453,1.3594 -1.5157,0.7187 -3.1094,0.7187 -1.6094,0 -2.336,-0.5469 -0.7265,-0.5468 -0.7265,-1.2031 0,-0.375 0.3047,-0.6563 0.3046,-0.2812 0.7578,-0.2812 0.3437,0 0.6015,0.1094 0.2579,0.1094 0.8829,0.5312 0.9843,0.6875 2,0.6875 1.5468,0 2.7109,-1.164 1.1641,-1.1641 1.1641,-2.836 0,-1.625 -1.0391,-3.0312 -1.0391,-1.4063 -2.8828,-2.1719 -1.4375,-0.5938 -3.9063,-0.6719 l 3.4219,-6.9531 z"
         id="path137"
         inkscape:connector-curvature="0" />
    </g>
    <g
       transform="rotate(-90,203.7499,118.7499)"
       style="font-size:29px;font-family:'Times New Roman';color-interpolation:linearRGB;fill:#262626;stroke:#262626;color-rendering:optimizeQuality;image-rendering:optimizeQuality;text-rendering:geometricPrecision"
       id="g143">
      <path
         style="stroke:none"
         d="m -133.0469,-14.9844 v 5.5782 q 0,1.8124 0.3907,2.2656 0.5312,0.6094 1.625,0.6094 h 0.7343 V -6 h -8.2187 v -0.5312 h 0.7187 q 1.2188,0 1.75,-0.7813 0.2813,-0.4375 0.2813,-2.0937 v -12.3907 q 0,-1.8125 -0.3906,-2.25 -0.5469,-0.625 -1.6407,-0.625 h -0.7187 v -0.5312 h 7.0312 q 2.5782,0 4.0625,0.5312 1.4844,0.5313 2.5078,1.7891 1.0235,1.2578 1.0235,2.9922 0,2.3437 -1.5469,3.8203 -1.5469,1.4765 -4.3906,1.4765 -0.6875,0 -1.4922,-0.1015 -0.8047,-0.1016 -1.7266,-0.2891 z m 0,-0.8125 q 0.75,0.1407 1.3281,0.211 0.5782,0.0703 0.9844,0.0703 1.4844,0 2.5469,-1.1406 1.0625,-1.1407 1.0625,-2.9532 0,-1.25 -0.5078,-2.3203 -0.5078,-1.0703 -1.4453,-1.5937 -0.9375,-0.5235 -2.125,-0.5235 -0.7188,0 -1.8438,0.2657 z m 14.8941,-10.3437 v 9.4844 q 1.5625,-1.7188 2.4843,-2.211 0.9219,-0.4922 1.8438,-0.4922 1.1094,0 1.8984,0.6094 0.7891,0.6094 1.1797,1.9219 0.2656,0.9062 0.2656,3.3125 v 4.5781 q 0,1.2344 0.2032,1.6875 0.1406,0.3438 0.4765,0.5391 0.336,0.1953 1.2422,0.1953 V -6 h -6.375 v -0.5156 h 0.2969 q 0.9062,0 1.2656,-0.2735 0.3594,-0.2734 0.5,-0.8047 0.0469,-0.2343 0.0469,-1.3437 v -4.5781 q 0,-2.125 -0.2266,-2.7891 -0.2265,-0.6641 -0.7031,-1 -0.4766,-0.3359 -1.1641,-0.3359 -0.6875,0 -1.4375,0.3672 -0.75,0.3672 -1.7968,1.4922 v 6.8437 q 0,1.3437 0.1484,1.6641 0.1484,0.3203 0.5469,0.539 0.3984,0.2188 1.3984,0.2188 V -6 h -6.4375 v -0.5156 q 0.875,0 1.3594,-0.2656 0.2969,-0.1407 0.4609,-0.5391 0.1641,-0.3985 0.1641,-1.6172 v -11.7344 q 0,-2.2187 -0.1016,-2.7265 -0.1015,-0.5078 -0.3203,-0.6954 -0.2187,-0.1874 -0.5937,-0.1874 -0.2969,0 -0.9688,0.2343 l -0.1875,-0.5 3.875,-1.5937 z m 17.0312,6.7812 q 2.9531,0 4.7344,2.25 1.5156,1.9063 1.5156,4.3906 0,1.7344 -0.8359,3.5157 -0.836,1.7812 -2.3047,2.6875 -1.4688,0.9062 -3.2656,0.9062 -2.9375,0 -4.6563,-2.3281 -1.4531,-1.9687 -1.4531,-4.4219 0,-1.7812 0.8828,-3.5468 0.8828,-1.7657 2.3281,-2.6094 1.4453,-0.8438 3.0547,-0.8438 z m -0.4375,0.9219 q -0.75,0 -1.5078,0.4453 -0.7578,0.4453 -1.2266,1.5703 -0.4687,1.125 -0.4687,2.875 0,2.8281 1.125,4.8828 1.125,2.0547 2.9687,2.0547 1.375,0 2.2657,-1.1328 0.8906,-1.1328 0.8906,-3.8984 0,-3.4532 -1.4844,-5.4375 -1,-1.3594 -2.5625,-1.3594 z m 12.3594,-4.7969 v 4.2656 h 3.0312 v 0.9844 h -3.0312 v 8.4219 q 0,1.25 0.3594,1.6875 0.3593,0.4375 0.9375,0.4375 0.4531,0 0.8984,-0.2891 0.4453,-0.289 0.6797,-0.8515 h 0.5469 q -0.4844,1.3906 -1.3907,2.0937 -0.9062,0.7032 -1.875,0.7032 -0.6562,0 -1.2734,-0.3672 -0.6172,-0.3672 -0.9141,-1.0391 -0.2968,-0.6719 -0.2968,-2.0625 v -8.7344 h -2.0625 v -0.4687 q 0.7812,-0.3125 1.5937,-1.0547 0.8125,-0.7422 1.4531,-1.7578 0.3282,-0.5313 0.9063,-1.9688 z m 10.6352,3.875 q 2.9532,0 4.7344,2.25 1.5156,1.9063 1.5156,4.3906 0,1.7344 -0.8359,3.5157 -0.8359,1.7812 -2.3047,2.6875 -1.4687,0.9062 -3.2656,0.9062 -2.9375,0 -4.6563,-2.3281 -1.4531,-1.9687 -1.4531,-4.4219 0,-1.7812 0.8828,-3.5468 0.8828,-1.7657 2.3282,-2.6094 1.4453,-0.8438 3.0546,-0.8438 z m -0.4375,0.9219 q -0.75,0 -1.5078,0.4453 -0.7578,0.4453 -1.2265,1.5703 -0.4688,1.125 -0.4688,2.875 0,2.8281 1.125,4.8828 1.125,2.0547 2.9688,2.0547 1.375,0 2.2656,-1.1328 0.8906,-1.1328 0.8906,-3.8984 0,-3.4532 -1.4844,-5.4375 -1,-1.3594 -2.5625,-1.3594 z m 12.375,1.8281 q 2.2813,-2.75 4.3438,-2.75 1.0625,0 1.8281,0.5313 0.7656,0.5312 1.2188,1.75 0.3125,0.8593 0.3125,2.6093 v 5.5313 q 0,1.2344 0.2031,1.6719 0.1562,0.3594 0.5,0.5547 0.3437,0.1953 1.2812,0.1953 V -6 h -6.4218 v -0.5156 h 0.2812 q 0.9063,0 1.2656,-0.2735 0.3594,-0.2734 0.5,-0.8047 0.0469,-0.2187 0.0469,-1.3437 v -5.2969 q 0,-1.7812 -0.4531,-2.5781 -0.4531,-0.7969 -1.5469,-0.7969 -1.6875,0 -3.3594,1.8438 v 6.8281 q 0,1.3281 0.1563,1.6406 0.2031,0.4063 0.5469,0.5938 0.3437,0.1875 1.4062,0.1875 V -6 h -6.4219 v -0.5156 h 0.2969 q 0.9844,0 1.3281,-0.5 0.3438,-0.5 0.3438,-1.9219 V -13.75 q 0,-2.3281 -0.1016,-2.8438 -0.1015,-0.5156 -0.3203,-0.6953 -0.2187,-0.1797 -0.5937,-0.1797 -0.3907,0 -0.9532,0.2188 l -0.2031,-0.5156 3.9063,-1.5938 h 0.6093 z m 28.9844,5.6875 q -0.5156,2.5625 -2.0469,3.9375 -1.5312,1.375 -3.3906,1.375 -2.2031,0 -3.8515,-1.8515 -1.6485,-1.8516 -1.6485,-5.0079 0,-3.0624 1.8203,-4.9765 1.8203,-1.9141 4.3672,-1.9141 1.9219,0 3.1563,1.0156 1.2343,1.0157 1.2343,2.1094 0,0.5313 -0.3515,0.8672 -0.3516,0.336 -0.9766,0.336 -0.8281,0 -1.25,-0.5469 -0.25,-0.2969 -0.3281,-1.1328 -0.0781,-0.836 -0.5781,-1.2735 -0.4844,-0.4218 -1.3594,-0.4218 -1.4219,0 -2.2813,1.0468 -1.1562,1.3906 -1.1562,3.6719 0,2.3281 1.1406,4.1016 1.1406,1.7734 3.0781,1.7734 1.3907,0 2.5,-0.9531 0.7813,-0.6406 1.5157,-2.3594 z m 8.1997,-8.4375 q 2.9532,0 4.7344,2.25 1.5156,1.9063 1.5156,4.3906 0,1.7344 -0.8359,3.5157 -0.8359,1.7812 -2.3047,2.6875 -1.4687,0.9062 -3.2656,0.9062 -2.9375,0 -4.6563,-2.3281 -1.4531,-1.9687 -1.4531,-4.4219 0,-1.7812 0.8828,-3.5468 0.8828,-1.7657 2.3281,-2.6094 1.4454,-0.8438 3.0547,-0.8438 z m -0.4375,0.9219 q -0.75,0 -1.5078,0.4453 -0.7578,0.4453 -1.2265,1.5703 -0.4688,1.125 -0.4688,2.875 0,2.8281 1.125,4.8828 1.125,2.0547 2.9688,2.0547 1.375,0 2.2656,-1.1328 0.8906,-1.1328 0.8906,-3.8984 0,-3.4532 -1.4844,-5.4375 -1,-1.3594 -2.5625,-1.3594 z m 19.9688,-0.5313 v 7.8594 q 0,2.25 0.1015,2.75 0.1016,0.5 0.336,0.7032 0.2344,0.2031 0.5469,0.2031 0.4375,0 1,-0.25 l 0.1875,0.5 -3.875,1.5937 h -0.6407 v -2.7344 q -1.6718,1.8126 -2.5468,2.2735 -0.875,0.4609 -1.8594,0.4609 -1.0781,0 -1.8828,-0.625 -0.8047,-0.625 -1.1172,-1.6172 -0.3125,-0.9922 -0.3125,-2.8046 v -5.7969 q 0,-0.9219 -0.1953,-1.2735 -0.1953,-0.3515 -0.586,-0.5468 -0.3906,-0.1954 -1.4062,-0.1797 v -0.5157 h 4.5469 v 8.6719 q 0,1.8125 0.625,2.3828 0.625,0.5703 1.5156,0.5703 0.6094,0 1.3828,-0.3828 0.7734,-0.3828 1.8359,-1.4609 v -7.3437 q 0,-1.1094 -0.3984,-1.5 -0.3984,-0.3907 -1.6797,-0.4219 v -0.5157 z m 6.9062,2.3594 q 2.2813,-2.75 4.3438,-2.75 1.0625,0 1.8281,0.5313 0.7656,0.5312 1.2188,1.75 0.3125,0.8593 0.3125,2.6093 v 5.5313 q 0,1.2344 0.2031,1.6719 0.1562,0.3594 0.5,0.5547 0.3437,0.1953 1.2812,0.1953 V -6 H 0.2603 v -0.5156 h 0.2812 q 0.9063,0 1.2656,-0.2735 0.3594,-0.2734 0.5,-0.8047 0.0469,-0.2187 0.0469,-1.3437 v -5.2969 q 0,-1.7812 -0.4531,-2.5781 -0.4531,-0.7969 -1.5469,-0.7969 -1.6875,0 -3.3594,1.8438 v 6.8281 q 0,1.3281 0.1563,1.6406 0.2031,0.4063 0.5469,0.5938 0.3437,0.1875 1.4062,0.1875 V -6 h -6.4219 v -0.5156 h 0.2969 q 0.9844,0 1.3281,-0.5 0.3438,-0.5 0.3438,-1.9219 V -13.75 q 0,-2.3281 -0.1016,-2.8438 -0.1015,-0.5156 -0.3203,-0.6953 -0.2187,-0.1797 -0.5937,-0.1797 -0.3907,0 -0.9532,0.2188 l -0.2031,-0.5156 3.9063,-1.5938 h 0.6093 z m 14.4844,-6.625 v 4.2656 h 3.0313 v 0.9844 H 11.479 v 8.4219 q 0,1.25 0.3594,1.6875 0.3594,0.4375 0.9375,0.4375 0.4531,0 0.8984,-0.2891 0.4453,-0.289 0.6797,-0.8515 h 0.5469 q -0.4844,1.3906 -1.3906,2.0937 -0.9063,0.7032 -1.875,0.7032 -0.6563,0 -1.2735,-0.3672 Q 9.7446,-6.5156 9.4478,-7.1875 9.1509,-7.8594 9.1509,-9.25 v -8.7344 H 7.0884 v -0.4687 q 0.7812,-0.3125 1.5937,-1.0547 0.8125,-0.7422 1.4532,-1.7578 0.3281,-0.5313 0.9062,-1.9688 z M 30.7236,-0.25 h -6.2343 v -25.3906 h 6.2343 v 1.125 h -4.1093 v 23.1562 h 4.1093 z m 9.2979,-7.625 q -1.9844,1.5469 -2.5,1.7969 -0.7656,0.3437 -1.625,0.3437 -1.3438,0 -2.2188,-0.9218 -0.875,-0.9219 -0.875,-2.4219 0,-0.9375 0.4219,-1.6407 0.5938,-0.9531 2.0234,-1.8046 1.4297,-0.8516 4.7735,-2.0704 v -0.5156 q 0,-1.9375 -0.6094,-2.6562 -0.6094,-0.7188 -1.7969,-0.7188 -0.8906,0 -1.4062,0.4688 -0.5469,0.4844 -0.5469,1.1094 l 0.0313,0.8281 q 0,0.6406 -0.336,1 -0.3359,0.3593 -0.8672,0.3593 -0.5312,0 -0.8593,-0.3671 -0.3282,-0.3672 -0.3282,-1.0079 0,-1.2187 1.2422,-2.2421 1.2422,-1.0235 3.4922,-1.0235 1.7344,0 2.8438,0.5938 0.8281,0.4375 1.2343,1.3594 0.25,0.6093 0.25,2.5 V -10.5 q 0,1.8594 0.0703,2.2734 0.0704,0.4141 0.2344,0.5547 0.1641,0.1407 0.3672,0.1407 0.2344,0 0.4063,-0.0938 0.2968,-0.1875 1.1406,-1.0312 v 0.7812 q -1.5781,2.125 -3.0313,2.125 -0.6875,0 -1.1015,-0.4766 -0.4141,-0.4765 -0.4297,-1.6484 z m 0,-0.9219 v -4.9375 q -2.125,0.8594 -2.75,1.2032 -1.125,0.625 -1.6094,1.3046 -0.4844,0.6797 -0.4844,1.4922 0,1.0156 0.6094,1.6875 0.6094,0.6719 1.4063,0.6719 1.0781,0 2.8281,-1.4219 z m 9.3247,-10.5625 v 2.9219 q 1.625,-2.9219 3.3437,-2.9219 0.7813,0 1.2891,0.4766 0.5078,0.4766 0.5078,1.1016 0,0.5468 -0.3672,0.9296 -0.3672,0.3828 -0.8828,0.3828 -0.5,0 -1.1094,-0.4843 -0.6093,-0.4844 -0.9062,-0.4844 -0.2656,0 -0.5625,0.2813 -0.6406,0.5781 -1.3125,1.9062 v 6.2188 q 0,1.0781 0.2656,1.625 0.1875,0.3906 0.6563,0.6406 0.4687,0.25 1.3437,0.25 V -6 h -6.6406 v -0.5156 q 0.9844,0 1.4687,-0.3125 0.3594,-0.2188 0.5,-0.7188 0.0625,-0.2343 0.0625,-1.375 v -5.0156 q 0,-2.2656 -0.0859,-2.7031 -0.0859,-0.4375 -0.3359,-0.6328 -0.25,-0.1954 -0.625,-0.1954 -0.4375,0 -0.9844,0.2188 l -0.1406,-0.5156 3.9218,-1.5938 z m 9.4072,2.625 q 1.8906,-2.625 4.0781,-2.625 1.9844,0 3.4766,1.711 1.4922,1.7109 1.4922,4.664 0,3.4532 -2.2969,5.5625 -1.9687,1.8125 -4.3906,1.8125 -1.1406,0 -2.3047,-0.4062 Q 57.644,-6.4219 56.4253,-7.25 v -13.4375 q 0,-2.2031 -0.1094,-2.7109 -0.1094,-0.5078 -0.3359,-0.6954 -0.2266,-0.1874 -0.5547,-0.1874 -0.4063,0 -1,0.2343 l -0.2031,-0.5 3.9062,-1.5937 h 0.625 z m 0,0.9063 v 7.7656 q 0.7344,0.7031 1.5,1.0625 0.7656,0.3594 1.5781,0.3594 1.2969,0 2.4063,-1.4141 1.1094,-1.4141 1.1094,-4.1172 0,-2.5 -1.1094,-3.8359 -1.1094,-1.336 -2.5313,-1.336 -0.75,0 -1.5,0.3907 -0.5625,0.2812 -1.4531,1.125 z M 72.4253,-8.75 q 0.6719,0 1.125,0.4609 0.4531,0.461 0.4531,1.1172 0,0.6407 -0.4609,1.1016 -0.461,0.4609 -1.1172,0.4609 -0.6563,0 -1.1172,-0.4609 -0.4609,-0.4609 -0.4609,-1.1016 0,-0.6719 0.4609,-1.125 Q 71.769,-8.75 72.4253,-8.75 Z m 23.1562,-10.2188 v 7.8594 q 0,2.25 0.1016,2.75 0.1016,0.5 0.3359,0.7032 0.2344,0.2031 0.5469,0.2031 0.4375,0 1,-0.25 l 0.1875,0.5 -3.875,1.5937 h -0.6406 v -2.7344 q -1.6719,1.8126 -2.5469,2.2735 -0.875,0.4609 -1.8594,0.4609 -1.0781,0 -1.8828,-0.625 -0.8047,-0.625 -1.1172,-1.6172 -0.3125,-0.9922 -0.3125,-2.8046 v -5.7969 q 0,-0.9219 -0.1953,-1.2735 -0.1953,-0.3515 -0.5859,-0.5468 -0.3906,-0.1954 -1.4063,-0.1797 v -0.5157 h 4.5469 v 8.6719 q 0,1.8125 0.625,2.3828 0.625,0.5703 1.5156,0.5703 0.6094,0 1.3829,-0.3828 0.7734,-0.3828 1.8359,-1.4609 v -7.3437 q 0,-1.1094 -0.3984,-1.5 -0.3985,-0.3907 -1.6797,-0.4219 v -0.5157 z m 6.9063,2.3594 q 2.2812,-2.75 4.3437,-2.75 1.0625,0 1.8282,0.5313 0.7656,0.5312 1.2187,1.75 0.3125,0.8593 0.3125,2.6093 v 5.5313 q 0,1.2344 0.2031,1.6719 0.1563,0.3594 0.5,0.5547 0.3438,0.1953 1.2813,0.1953 V -6 h -6.4219 v -0.5156 h 0.2813 q 0.9062,0 1.2656,-0.2735 0.3594,-0.2734 0.5,-0.8047 0.0469,-0.2187 0.0469,-1.3437 v -5.2969 q 0,-1.7812 -0.4532,-2.5781 -0.4531,-0.7969 -1.5468,-0.7969 -1.6875,0 -3.3594,1.8438 v 6.8281 q 0,1.3281 0.1562,1.6406 0.2032,0.4063 0.5469,0.5938 0.3438,0.1875 1.4063,0.1875 V -6 h -6.4219 v -0.5156 h 0.2969 q 0.9843,0 1.3281,-0.5 0.3437,-0.5 0.3437,-1.9219 V -13.75 q 0,-2.3281 -0.1015,-2.8438 -0.1016,-0.5156 -0.3203,-0.6953 -0.2188,-0.1797 -0.5938,-0.1797 -0.3906,0 -0.9531,0.2188 l -0.2031,-0.5156 3.9062,-1.5938 h 0.6094 z m 14.0156,-9.5312 q 0.5938,0 1.0156,0.4218 0.4219,0.4219 0.4219,1.0157 0,0.5937 -0.4219,1.0156 -0.4218,0.4219 -1.0156,0.4219 -0.5937,0 -1.0156,-0.4219 -0.4219,-0.4219 -0.4219,-1.0156 0,-0.5938 0.4141,-1.0157 0.414,-0.4218 1.0234,-0.4218 z m 1.1719,6.7812 v 10.4219 q 0,1.2187 0.1797,1.625 0.1797,0.4063 0.5234,0.6016 0.3438,0.1953 1.2656,0.1953 V -6 h -6.2968 v -0.5156 q 0.9531,0 1.2734,-0.1797 0.3203,-0.1797 0.5156,-0.6094 0.1953,-0.4297 0.1953,-1.6328 v -5 q 0,-2.1094 -0.125,-2.7187 -0.1093,-0.4532 -0.3203,-0.6329 -0.2109,-0.1797 -0.5703,-0.1797 -0.4062,0 -0.9687,0.2188 l -0.2032,-0.5156 3.9219,-1.5938 z m 7.354,-3.875 v 4.2656 h 3.0312 v 0.9844 h -3.0312 v 8.4219 q 0,1.25 0.3594,1.6875 0.3593,0.4375 0.9375,0.4375 0.4531,0 0.8984,-0.2891 0.4453,-0.289 0.6797,-0.8515 h 0.5469 q -0.4844,1.3906 -1.3907,2.0937 -0.9062,0.7032 -1.875,0.7032 -0.6562,0 -1.2734,-0.3672 -0.6172,-0.3672 -0.9141,-1.0391 -0.2968,-0.6719 -0.2968,-2.0625 v -8.7344 h -2.0625 v -0.4687 q 0.7812,-0.3125 1.5937,-1.0547 0.8125,-0.7422 1.4531,-1.7578 0.3282,-0.5313 0.9063,-1.9688 z m 4.4478,-2.4062 h 6.2343 v 25.4062 h -6.2343 v -1.125 h 4.1093 v -23.1562 h -4.1093 z"
         id="path141"
         inkscape:connector-curvature="0" />
    </g>
    <g
       transform="translate(131,54)"
       style="font-size:27px;font-family:mwb_cmsy10;color-interpolation:linearRGB;fill:#262626;stroke:#262626;color-rendering:optimizeQuality;image-rendering:optimizeQuality;text-rendering:geometricPrecision"
       id="g147">
      <path
         style="stroke:none"
         d="m 3.9688,-0.7812 q 0,-0.2032 0.125,-0.375 l 5.625,-5.5938 -5.625,-5.6094 q -0.125,-0.1406 -0.125,-0.3594 0,-0.2031 0.1562,-0.375 0.1562,-0.1718 0.3906,-0.1718 0.1719,0 0.4063,0.1718 L 10.5,-7.5 l 5.5781,-5.5938 q 0.2188,-0.1718 0.3907,-0.1718 0.2187,0 0.375,0.1562 Q 17,-12.9531 17,-12.7188 17,-12.5 16.875,-12.3594 L 11.2656,-6.75 16.875,-1.1562 Q 17,-0.9844 17,-0.7812 q 0,0.2343 -0.1562,0.3906 -0.1563,0.1562 -0.375,0.1562 -0.2032,0 -0.3907,-0.2031 L 10.5,-6 4.9219,-0.4375 q -0.2031,0.2031 -0.4063,0.2031 -0.2344,0 -0.3906,-0.1718 -0.1562,-0.1719 -0.1562,-0.375 z"
         id="path145"
         inkscape:connector-curvature="0" />
    </g>
    <g
       transform="translate(152,54)"
       style="font-size:27px;font-family:'Times New Roman';color-interpolation:linearRGB;fill:#262626;stroke:#262626;color-rendering:optimizeQuality;image-rendering:optimizeQuality;text-rendering:geometricPrecision"
       id="g151">
      <path
         style="stroke:none"
         d="m 3.1719,-16.125 4.3437,-2.125 h 0.4375 v 15.0938 q 0,1.5156 0.125,1.8828 0.125,0.3672 0.5157,0.5625 0.3906,0.1953 1.6093,0.2265 V 0 H 3.4844 V -0.4844 Q 4.75,-0.5156 5.1172,-0.7031 5.4844,-0.8906 5.6328,-1.2188 5.7812,-1.5469 5.7812,-3.1562 v -9.6407 q 0,-1.9531 -0.1406,-2.5156 -0.0937,-0.4219 -0.3359,-0.6172 -0.2422,-0.1953 -0.5859,-0.1953 -0.4844,0 -1.3594,0.4062 z m 11.2969,7.2969 q 0,-3.0625 0.9296,-5.2735 0.9297,-2.2109 2.4454,-3.289 1.1874,-0.8594 2.4531,-0.8594 2.0625,0 3.7031,2.0938 2.0312,2.6093 2.0312,7.0468 0,3.1094 -0.8906,5.2891 -0.8906,2.1797 -2.2812,3.1562 -1.3906,0.9766 -2.6875,0.9766 -2.5625,0 -4.2657,-3.0156 -1.4374,-2.5469 -1.4374,-6.125 z M 17.0625,-8.5 q 0,3.6875 0.9063,6.0156 0.75,1.9688 2.2343,1.9688 0.7188,0 1.4844,-0.6406 0.7656,-0.6407 1.1563,-2.1407 0.6093,-2.2656 0.6093,-6.3906 0,-3.0625 -0.625,-5.1094 -0.4843,-1.5156 -1.2343,-2.1406 -0.5469,-0.4375 -1.2969,-0.4375 -0.9063,0 -1.6094,0.7969 -0.9375,1.0937 -1.2813,3.4453 -0.3437,2.3516 -0.3437,4.6328 z"
         id="path149"
         inkscape:connector-curvature="0" />
    </g>
    <g
       transform="translate(179,41)"
       style="font-size:21px;font-family:'Times New Roman';color-interpolation:linearRGB;fill:#262626;stroke:#262626;color-rendering:optimizeQuality;image-rendering:optimizeQuality;text-rendering:geometricPrecision"
       id="g155">
      <path
         style="stroke:none"
         d="m 0.8438,-5.4844 h 5.3124 v 1.5469 H 0.8438 Z m 15.5556,-8.7031 v 0.375 q -1.3437,0.1406 -2.2031,0.5391 -0.8594,0.3984 -1.6953,1.2343 -0.836,0.836 -1.3828,1.8516 -0.5469,1.0156 -0.9219,2.4219 1.4844,-1.0156 2.9687,-1.0156 1.4219,0 2.4688,1.1484 1.0469,1.1484 1.0469,2.9609 0,1.7344 -1.0469,3.1719 -1.2813,1.75 -3.375,1.75 -1.4219,0 -2.4219,-0.9531 -1.9375,-1.8281 -1.9375,-4.75 0,-1.875 0.75,-3.5547 0.75,-1.6797 2.1328,-2.9844 1.3828,-1.3047 2.6563,-1.75 1.2734,-0.4453 2.3672,-0.4453 z m -6.375,7.1719 q -0.1875,1.3906 -0.1875,2.2344 0,0.9843 0.3672,2.1406 0.3672,1.1562 1.0859,1.8281 0.5157,0.4844 1.2657,0.4844 0.8906,0 1.5937,-0.8438 0.7031,-0.8437 0.7031,-2.3906 0,-1.7656 -0.6953,-3.0469 -0.6953,-1.2812 -1.9765,-1.2812 -0.3907,0 -0.836,0.164 -0.4453,0.1641 -1.3203,0.711 z"
         id="path153"
         inkscape:connector-curvature="0" />
    </g>
    <g
       transform="translate(381,48)"
       style="font-weight:bold;font-size:29px;font-family:mwb_cmmi10;color-interpolation:linearRGB;color-rendering:optimizeQuality;image-rendering:optimizeQuality;text-rendering:geometricPrecision"
       id="g159">
      <path
         style="stroke:none"
         d="m 6.4219,0.3281 q -1.2813,0 -2.2813,-0.6172 -1,-0.6171 -1.5468,-1.664 Q 2.0469,-3 2.0469,-4.2656 q 0,-1.3438 0.6093,-2.8282 0.6094,-1.4843 1.6641,-2.7187 1.0547,-1.2344 2.3828,-1.9609 Q 8.0312,-12.5 9.4375,-12.5 H 16.75 q 1.2969,0 1.5078,0.1953 0.211,0.1953 0.211,0.5391 0,0.4218 -0.3047,0.7422 -0.3047,0.3203 -1.7266,0.3203 h -2.5469 q 0.8438,1.25 0.8438,3.0156 0,1.4531 -0.5703,2.8672 -0.5703,1.4141 -1.5703,2.5859 -1,1.1719 -2.3438,1.8672 -1.3438,0.6953 -3.8281,0.6953 z m 0.0312,-0.7656 q 1.5781,0 2.8047,-1.2422 1.2266,-1.2422 1.8828,-3.0312 0.6563,-1.7891 0.6563,-3.3203 0,-1.25 -0.6875,-1.961 -0.6875,-0.7109 -1.9219,-0.7109 -0.6875,0 -1.8672,1.1328 -1.1797,1.1328 -1.7734,2.8437 -0.5938,1.711 -0.5938,3.3047 0,1.2344 0.6641,2.1094 0.664,0.875 0.8359,0.875 z"
         id="path157"
         inkscape:connector-curvature="0" />
    </g>
    <g
       transform="translate(400,48)"
       style="font-weight:bold;font-size:29px;font-family:'Times New Roman';color-interpolation:linearRGB;color-rendering:optimizeQuality;image-rendering:optimizeQuality;text-rendering:geometricPrecision"
       id="g163">
      <path
         style="stroke:none"
         d="M 0.5625,-10.5312 H 7.375 v -6.7969 h 1.8594 v 6.7969 h 6.8125 v 1.8593 H 9.2344 v 6.75 H 7.375 v -6.75 H 0.5625 Z M 17.9624,5.0781 V 4.4531 Q 19.6187,3.75 20.3608,2.625 21.103,1.5 21.103,0.3281 q 0,-0.25 -0.1093,-0.375 -0.0938,-0.1093 -0.1875,-0.1093 -0.0938,0 -0.2657,0.0937 -0.4062,0.25 -1.0156,0.25 -0.8281,0 -1.4453,-0.6563 Q 17.4624,-1.125 17.4624,-2 q 0,-0.9375 0.7031,-1.6406 0.7032,-0.7032 1.7188,-0.7032 1.2187,0 2.0781,0.9376 0.8594,0.9374 0.8594,2.5781 0,2.0312 -1.2188,3.6015 -1.2187,1.5704 -3.6406,2.3047 z m 19.1719,-6.4219 v 4.9219 q 0,1.0313 0.1562,1.3985 0.1563,0.3672 0.5,0.5312 0.3438,0.1641 1.3282,0.1641 V 6.2031 H 31.5718 V 5.6719 Q 32.4624,5.6562 32.8843,5.1875 33.1655,4.8594 33.1655,3.5 v -13.9844 q 0,-1.3906 -0.3281,-1.7812 -0.3281,-0.3906 -1.2656,-0.4532 v -0.5156 h 5.5625 V -11.5 q 0.6875,-1.0156 1.4062,-1.4688 1.0313,-0.6718 2.25,-0.6718 1.4688,0 2.6641,0.9218 1.1953,0.9219 1.8203,2.5469 0.625,1.625 0.625,3.4844 0,2.0156 -0.6484,3.6797 -0.6485,1.664 -1.875,2.5312 -1.2266,0.8672 -2.7266,0.8672 -1.0937,0 -2.0312,-0.4687 -0.7188,-0.375 -1.4844,-1.2657 z m 0,-1.4374 q 1.2187,1.7343 2.5937,1.7343 0.7657,0 1.2657,-0.8125 0.7343,-1.1875 0.7343,-4.5312 0,-3.4219 -0.8125,-4.6875 -0.5312,-0.8281 -1.4375,-0.8281 -1.4218,0 -2.3437,2.0624 z M 60.9189,-13.2344 V -2.875 q 0,1.5156 0.2813,1.8906 0.2812,0.375 1.1406,0.4688 V 0 h -5.3906 v -1.7656 q -0.9531,1.125 -1.8984,1.6406 -0.9454,0.5156 -2.1172,0.5156 -1.125,0 -1.9922,-0.6875 -0.8672,-0.6875 -1.1641,-1.6015 -0.2969,-0.9141 -0.2969,-3.211 v -5.25 q 0,-1.5 -0.2812,-1.875 -0.2813,-0.375 -1.1563,-0.4844 v -0.5156 h 5.3907 v 9.0469 q 0,1.4063 0.1406,1.8203 0.1406,0.4141 0.4297,0.625 0.289,0.211 0.664,0.211 0.5157,0 0.9219,-0.2657 0.5625,-0.375 1.3594,-1.4843 v -7.0782 q 0,-1.5 -0.2734,-1.875 -0.2735,-0.375 -1.1485,-0.4844 v -0.5156 z m 8.5191,-5.9687 V -2.75 q 0,1.4062 0.3281,1.7969 0.3281,0.3906 1.2813,0.4375 V 0 h -7.1563 v -0.5156 q 0.875,-0.0156 1.2969,-0.5 0.2812,-0.3282 0.2812,-1.7344 v -13.7031 q 0,-1.3907 -0.3203,-1.7813 -0.3203,-0.3906 -1.2578,-0.4375 v -0.5312 z m 11.2446,5.5937 0.2188,4.5156 H 80.417 q -0.8594,-2.0156 -1.7891,-2.75 -0.9297,-0.7343 -1.8515,-0.7343 -0.5782,0 -0.9922,0.3906 -0.4141,0.3906 -0.4141,0.9063 0,0.375 0.2813,0.7343 0.4531,0.5781 2.539,1.9844 2.086,1.4063 2.7422,2.3906 0.6563,0.9844 0.6563,2.2031 0,1.1094 -0.5547,2.1719 -0.5547,1.0625 -1.5547,1.625 -1,0.5625 -2.2188,0.5625 -0.9531,0 -2.5312,-0.5937 -0.4375,-0.1563 -0.5938,-0.1563 -0.4531,0 -0.7656,0.7188 H 72.9014 L 72.667,-4.4062 h 0.4844 q 0.6406,1.875 1.75,2.8046 1.1093,0.9297 2.1093,0.9297 0.6719,0 1.1016,-0.414 0.4297,-0.4141 0.4297,-1.0079 0,-0.6874 -0.4219,-1.1796 -0.4219,-0.4922 -1.8906,-1.4922 -2.1719,-1.5 -2.8125,-2.2969 -0.9375,-1.1719 -0.9375,-2.5625 0,-1.5312 1.0547,-2.7734 1.0547,-1.2422 3.0547,-1.2422 1.0781,0 2.0781,0.5312 0.3906,0.2032 0.625,0.2032 0.2656,0 0.4219,-0.1016 0.1562,-0.1016 0.4843,-0.6016 z m 14.1294,6.5156 h -7.2656 q 0.1406,2.6407 1.4062,4.1563 0.9844,1.1875 2.3594,1.1875 0.8438,0 1.5391,-0.4766 0.6953,-0.4765 1.4765,-1.7109 l 0.4844,0.3125 q -1.0781,2.1875 -2.375,3.1016 -1.2969,0.914 -3.0156,0.914 -2.9375,0 -4.4531,-2.2656 -1.2188,-1.8281 -1.2188,-4.5312 0,-3.3126 1.7891,-5.2735 1.789,-1.9609 4.1953,-1.9609 2.0156,0 3.4922,1.6484 1.4765,1.6484 1.5859,4.8984 z m -3.4844,-0.9531 q 0,-2.2812 -0.2422,-3.125 -0.2421,-0.8437 -0.7734,-1.2969 -0.2969,-0.25 -0.7969,-0.25 -0.7343,0 -1.2031,0.7188 -0.8281,1.2656 -0.8281,3.4688 v 0.4843 z m 15.5747,-11.6093 q 0.9219,0 1.5625,0.6484 0.6407,0.6484 0.6407,1.5547 0,0.9062 -0.6485,1.539 -0.6484,0.6329 -1.5547,0.6329 -0.9062,0 -1.539,-0.6329 -0.6328,-0.6328 -0.6328,-1.539 0,-0.9063 0.6328,-1.5547 0.6328,-0.6484 1.539,-0.6484 z m 1.9844,6.4218 V -2.75 q 0,1.4062 0.3281,1.7969 0.3282,0.3906 1.2813,0.4375 V 0 h -7.1563 v -0.5156 q 0.875,-0.0156 1.2969,-0.5 0.2969,-0.3282 0.2969,-1.7344 v -7.7344 q 0,-1.3906 -0.3281,-1.7812 -0.3282,-0.3906 -1.2657,-0.4532 v -0.5156 z m 8.3071,0 v 1.7032 q 1.0157,-1.0938 1.9532,-1.6016 0.9375,-0.5078 2,-0.5078 1.2968,0 2.1484,0.7187 0.8516,0.7188 1.1328,1.7813 0.2188,0.7968 0.2188,3.0937 v 5.1563 q 0,1.5312 0.2812,1.9062 0.2813,0.375 1.1563,0.4688 V 0 h -6.7032 v -0.5156 q 0.75,-0.0938 1.0782,-0.625 0.2343,-0.3438 0.2343,-1.75 v -5.8906 q 0,-1.625 -0.1328,-2.0469 -0.1328,-0.4219 -0.4375,-0.6563 -0.3047,-0.2344 -0.664,-0.2344 -1.2188,0 -2.2657,1.7344 v 7.0938 q 0,1.4844 0.2735,1.8828 0.2734,0.3984 1.0234,0.4922 V 0 h -6.7031 v -0.5156 q 0.8437,-0.0782 1.2031,-0.5313 0.2344,-0.3125 0.2344,-1.8437 v -7.4688 q 0,-1.5 -0.2734,-1.875 -0.2735,-0.375 -1.1641,-0.4844 v -0.5156 z m 15.9722,-4.8437 v 4.8437 h 3.1406 v 1.3906 h -3.1406 v 8.1719 q 0,1.1563 0.1016,1.4844 0.1015,0.3281 0.375,0.5391 0.2734,0.2109 0.4922,0.2109 0.9218,0 1.75,-1.4063 l 0.4218,0.3126 q -1.1406,2.7187 -3.7187,2.7187 -1.2656,0 -2.1406,-0.7031 -0.875,-0.7032 -1.1094,-1.5625 -0.1406,-0.4844 -0.1406,-2.6094 v -7.1563 h -1.7344 v -0.4843 q 1.7969,-1.2657 3.0469,-2.6563 1.25,-1.3906 2.1875,-3.0937 z m 15.6104,10.9843 h -7.2657 q 0.1407,2.6407 1.4063,4.1563 0.9844,1.1875 2.3594,1.1875 0.8437,0 1.539,-0.4766 0.6953,-0.4765 1.4766,-1.7109 l 0.4844,0.3125 q -1.0782,2.1875 -2.375,3.1016 -1.2969,0.914 -3.0157,0.914 -2.9375,0 -4.4531,-2.2656 -1.2187,-1.8281 -1.2187,-4.5312 0,-3.3126 1.789,-5.2735 1.7891,-1.9609 4.1953,-1.9609 2.0157,0 3.4922,1.6484 1.4766,1.6484 1.586,4.8984 z m -3.4844,-0.9531 q 0,-2.2812 -0.2422,-3.125 -0.2422,-0.8437 -0.7734,-1.2969 -0.2969,-0.25 -0.7969,-0.25 -0.7344,0 -1.2031,0.7188 -0.8282,1.2656 -0.8282,3.4688 v 0.4843 z m 10.6372,-5.1875 v 3 q 1.3125,-2.0625 2.3047,-2.7344 0.9922,-0.6718 1.914,-0.6718 0.7969,0 1.2735,0.4922 0.4765,0.4922 0.4765,1.3828 0,0.9531 -0.4609,1.4765 -0.4609,0.5235 -1.1172,0.5235 -0.75,0 -1.3047,-0.4844 -0.5547,-0.4844 -0.6484,-0.5469 -0.1406,-0.0781 -0.3281,-0.0781 -0.4063,0 -0.7813,0.3125 -0.5781,0.4844 -0.875,1.375 -0.4531,1.375 -0.4531,3.0313 v 3.0468 l 0.0156,0.7813 q 0,0.8125 0.0938,1.0469 0.1718,0.375 0.5078,0.5546 0.3359,0.1797 1.1328,0.211 V 0 h -7.1563 v -0.5156 q 0.8594,-0.0625 1.1641,-0.4688 0.3047,-0.4062 0.3047,-2.125 v -7.3281 q 0,-1.125 -0.1094,-1.4375 -0.1406,-0.4062 -0.414,-0.5859 -0.2735,-0.1797 -0.9454,-0.2579 v -0.5156 z m 13.356,13.625 -4.4532,-10.2656 q -0.8125,-1.8438 -1.2656,-2.3438 -0.3281,-0.375 -0.9687,-0.5 v -0.5156 h 7.0468 v 0.5156 q -0.6718,0 -0.9062,0.25 -0.3438,0.3126 -0.3438,0.7344 0,0.5156 0.625,1.9688 l 2.1719,4.9687 1.75,-4.2969 q 0.75,-1.8437 0.75,-2.6093 0,-0.4375 -0.3203,-0.711 -0.3203,-0.2734 -1.1328,-0.3047 v -0.5156 h 4.3437 v 0.5156 q -0.625,0.0938 -1.0234,0.4766 -0.3984,0.3828 -1.1953,2.2422 L 169.957,0.3906 Z m 15.8281,-2.3437 q -2.4219,2.1406 -4.3438,2.1406 -1.1406,0 -1.8906,-0.7422 -0.75,-0.7422 -0.75,-1.8672 0,-1.5156 1.3047,-2.7265 1.3047,-1.211 5.6797,-3.2266 v -1.3281 q 0,-1.5 -0.1641,-1.8907 -0.164,-0.3906 -0.6172,-0.6796 -0.4531,-0.2891 -1.0156,-0.2891 -0.9219,0 -1.5156,0.4063 -0.3594,0.2656 -0.3594,0.5937 0,0.3125 0.3906,0.75 0.5313,0.6094 0.5313,1.1719 0,0.6875 -0.5156,1.1797 -0.5157,0.4921 -1.3438,0.4921 -0.8906,0 -1.4922,-0.539 -0.6015,-0.5391 -0.6015,-1.2578 0,-1.0313 0.8046,-1.9532 0.8047,-0.9218 2.25,-1.4218 1.4454,-0.5 2.9922,-0.5 1.8907,0 2.9844,0.8047 1.0938,0.8047 1.4219,1.7265 0.2031,0.6094 0.2031,2.7344 v 5.1406 q 0,0.9063 0.0703,1.1406 0.0703,0.2344 0.211,0.3516 0.1406,0.1172 0.3281,0.1172 0.375,0 0.75,-0.5312 l 0.4219,0.3437 q -0.7032,1.0469 -1.461,1.5234 -0.7578,0.4766 -1.7265,0.4766 -1.125,0 -1.7657,-0.5313 -0.6406,-0.5312 -0.7812,-1.6093 z m 0,-1.0313 v -4.4375 q -1.7031,1 -2.5469,2.1563 -0.5469,0.7656 -0.5469,1.5468 0,0.6407 0.4688,1.1407 0.3437,0.3906 0.9844,0.3906 0.7031,0 1.6406,-0.7969 z m 12.375,-16.2187 V -2.75 q 0,1.4062 0.3281,1.7969 0.3281,0.3906 1.2813,0.4375 V 0 h -7.1563 v -0.5156 q 0.875,-0.0156 1.2969,-0.5 0.2812,-0.3282 0.2812,-1.7344 v -13.7031 q 0,-1.3907 -0.3203,-1.7813 -0.3203,-0.3906 -1.2578,-0.4375 v -0.5312 z m 18.5884,-0.3907 v 15.7032 q 0,1.7656 0.1562,2.2578 0.1563,0.4922 0.6563,0.7969 0.5,0.3047 1.5937,0.3047 h 0.4375 V 0 H 208.811 v -0.5312 h 0.5 q 1.2344,0 1.7578,-0.2813 0.5235,-0.2813 0.711,-0.7734 0.1875,-0.4922 0.1875,-2.3047 v -9.9532 q 0,-1.3437 -0.1328,-1.6718 -0.1328,-0.3282 -0.4766,-0.5625 -0.3437,-0.2344 -0.7969,-0.2344 -0.7187,0 -1.75,0.4531 l -0.2656,-0.5156 7.0781,-3.2188 z m 18.7812,6.3594 V -11.5 q 1.0938,-1.1875 2.0234,-1.6641 0.9297,-0.4765 2.0235,-0.4765 1.2812,0 2.1406,0.5937 0.8594,0.5938 1.3281,1.8125 1.1407,-1.2656 2.1797,-1.8359 1.0391,-0.5703 2.1797,-0.5703 1.375,0 2.1875,0.6328 0.8125,0.6328 1.1328,1.6016 0.3203,0.9687 0.3203,3.0937 v 5.4219 q 0,1.5312 0.2735,1.8984 0.2734,0.3672 1.1484,0.4766 V 0 h -6.8437 v -0.5156 q 0.8125,-0.0625 1.1875,-0.625 0.2656,-0.375 0.2656,-1.75 v -5.6875 q 0,-1.7657 -0.1406,-2.25 -0.1407,-0.4844 -0.4454,-0.7188 -0.3046,-0.2343 -0.7265,-0.2343 -0.6094,0 -1.2266,0.4453 -0.6172,0.4453 -1.2578,1.3359 v 7.1094 q 0,1.4375 0.2344,1.7968 0.3281,0.5313 1.25,0.5782 V 0 h -6.8594 v -0.5156 q 0.5625,-0.0156 0.8828,-0.2656 0.3203,-0.25 0.4219,-0.6016 0.1016,-0.3516 0.1016,-1.5078 v -5.6875 q 0,-1.7969 -0.1407,-2.25 -0.1406,-0.4531 -0.4765,-0.711 -0.336,-0.2578 -0.711,-0.2578 -0.5625,0 -1.0312,0.2969 -0.6719,0.4375 -1.4219,1.5 v 7.1094 q 0,1.4062 0.2813,1.8515 0.2812,0.4453 1.1562,0.5235 V 0 h -6.8281 v -0.5156 q 0.8281,-0.0782 1.1875,-0.5313 0.2344,-0.3125 0.2344,-1.8437 v -7.4688 q 0,-1.5 -0.2735,-1.875 -0.2734,-0.375 -1.1484,-0.4844 v -0.5156 z m 27.0322,-0.375 0.2188,4.5156 h -0.4844 q -0.8594,-2.0156 -1.7891,-2.75 -0.9296,-0.7343 -1.8515,-0.7343 -0.5781,0 -0.9922,0.3906 -0.4141,0.3906 -0.4141,0.9063 0,0.375 0.2813,0.7343 0.4531,0.5781 2.539,1.9844 2.086,1.4063 2.7422,2.3906 0.6563,0.9844 0.6563,2.2031 0,1.1094 -0.5547,2.1719 -0.5547,1.0625 -1.5547,1.625 -1,0.5625 -2.2187,0.5625 -0.9532,0 -2.5313,-0.5937 -0.4375,-0.1563 -0.5937,-0.1563 -0.4532,0 -0.7657,0.7188 h -0.4687 l -0.2344,-4.7656 h 0.4844 q 0.6406,1.875 1.75,2.8046 1.1094,0.9297 2.1094,0.9297 0.6718,0 1.1015,-0.414 0.4297,-0.4141 0.4297,-1.0079 0,-0.6874 -0.4219,-1.1796 -0.4218,-0.4922 -1.8906,-1.4922 -2.1719,-1.5 -2.8125,-2.2969 -0.9375,-1.1719 -0.9375,-2.5625 0,-1.5312 1.0547,-2.7734 1.0547,-1.2422 3.0547,-1.2422 1.0781,0 2.0781,0.5312 0.3906,0.2032 0.625,0.2032 0.2656,0 0.4219,-0.1016 0.1562,-0.1016 0.4844,-0.6016 z"
         id="path161"
         inkscape:connector-curvature="0" />
    </g>
    <g
       style="color-interpolation:linearRGB;fill:#00ff33;stroke:#00ff33;stroke-width:0.66670001;stroke-linecap:butt;stroke-linejoin:round;color-rendering:optimizeQuality;image-rendering:optimizeQuality;text-rendering:geometricPrecision"
       id="g167">
      <path
         d="m 170.15,84.5881 39.15,108.491 39.15,78.4834 39.15,-19.3419 39.15,176.7425 39.15,-40.3196 39.15,-96.4705 39.15,37.6525 39.15,115.7569 39.15,34.54 39.15,-25.0404 39.15,-74.2127 39.15,-6.7808 39.15,97.9312 39.15,58.0656 39.15,-31.252 39.15,-34.9923 39.15,59.853 39.15,-145.0252 39.15,172.179 0.0933,0.9228"
         style="fill:none;fill-rule:evenodd;stroke-width:4.69999981;stroke-miterlimit:10;stroke-dasharray:none"
         id="path165"
         inkscape:connector-curvature="0" />
    </g>
    <g
       transform="translate(170.15,84.5881)"
       style="color-interpolation:linearRGB;fill:#00ff33;stroke:#00ff33;color-rendering:optimizeQuality;image-rendering:optimizeQuality;text-rendering:geometricPrecision"
       id="g171">
      <circle
         r="4"
         style="stroke:none"
         cx="-0.5"
         cy="-0.5"
         id="circle169" />
    </g>
    <g
       transform="translate(170.15,84.5881)"
       style="color-interpolation:linearRGB;fill:#00ff33;stroke:#00ff33;stroke-linecap:butt;color-rendering:optimizeQuality;image-rendering:optimizeQuality;text-rendering:geometricPrecision"
       id="g175">
      <circle
         r="4"
         style="fill:none"
         cx="-0.5"
         cy="-0.5"
         id="circle173" />
    </g>
    <g
       transform="translate(209.3,193.0791)"
       style="color-interpolation:linearRGB;fill:#00ff33;stroke:#00ff33;color-rendering:optimizeQuality;image-rendering:optimizeQuality;text-rendering:geometricPrecision"
       id="g179">
      <circle
         r="4"
         style="stroke:none"
         cx="-0.5"
         cy="-0.5"
         id="circle177" />
    </g>
    <g
       transform="translate(209.3,193.0791)"
       style="color-interpolation:linearRGB;fill:#00ff33;stroke:#00ff33;stroke-linecap:butt;color-rendering:optimizeQuality;image-rendering:optimizeQuality;text-rendering:geometricPrecision"
       id="g183">
      <circle
         r="4"
         style="fill:none"
         cx="-0.5"
         cy="-0.5"
         id="circle181" />
    </g>
    <g
       transform="translate(248.45,271.5625)"
       style="color-interpolation:linearRGB;fill:#00ff33;stroke:#00ff33;color-rendering:optimizeQuality;image-rendering:optimizeQuality;text-rendering:geometricPrecision"
       id="g187">
      <circle
         r="4"
         style="stroke:none"
         cx="-0.5"
         cy="-0.5"
         id="circle185" />
    </g>
    <g
       transform="translate(248.45,271.5625)"
       style="color-interpolation:linearRGB;fill:#00ff33;stroke:#00ff33;stroke-linecap:butt;color-rendering:optimizeQuality;image-rendering:optimizeQuality;text-rendering:geometricPrecision"
       id="g191">
      <circle
         r="4"
         style="fill:none"
         cx="-0.5"
         cy="-0.5"
         id="circle189" />
    </g>
    <g
       transform="translate(287.6,252.2206)"
       style="color-interpolation:linearRGB;fill:#00ff33;stroke:#00ff33;color-rendering:optimizeQuality;image-rendering:optimizeQuality;text-rendering:geometricPrecision"
       id="g195">
      <circle
         r="4"
         style="stroke:none"
         cx="-0.5"
         cy="-0.5"
         id="circle193" />
    </g>
    <g
       transform="translate(287.6,252.2206)"
       style="color-interpolation:linearRGB;fill:#00ff33;stroke:#00ff33;stroke-linecap:butt;color-rendering:optimizeQuality;image-rendering:optimizeQuality;text-rendering:geometricPrecision"
       id="g199">
      <circle
         r="4"
         style="fill:none"
         cx="-0.5"
         cy="-0.5"
         id="circle197" />
    </g>
    <g
       transform="translate(326.75,428.9631)"
       style="color-interpolation:linearRGB;fill:#00ff33;stroke:#00ff33;color-rendering:optimizeQuality;image-rendering:optimizeQuality;text-rendering:geometricPrecision"
       id="g203">
      <circle
         r="4"
         style="stroke:none"
         cx="-0.5"
         cy="-0.5"
         id="circle201" />
    </g>
    <g
       transform="translate(326.75,428.9631)"
       style="color-interpolation:linearRGB;fill:#00ff33;stroke:#00ff33;stroke-linecap:butt;color-rendering:optimizeQuality;image-rendering:optimizeQuality;text-rendering:geometricPrecision"
       id="g207">
      <circle
         r="4"
         style="fill:none"
         cx="-0.5"
         cy="-0.5"
         id="circle205" />
    </g>
    <g
       transform="translate(365.9,388.6435)"
       style="color-interpolation:linearRGB;fill:#00ff33;stroke:#00ff33;color-rendering:optimizeQuality;image-rendering:optimizeQuality;text-rendering:geometricPrecision"
       id="g211">
      <circle
         r="4"
         style="stroke:none"
         cx="-0.5"
         cy="-0.5"
         id="circle209" />
    </g>
    <g
       transform="translate(365.9,388.6435)"
       style="color-interpolation:linearRGB;fill:#00ff33;stroke:#00ff33;stroke-linecap:butt;color-rendering:optimizeQuality;image-rendering:optimizeQuality;text-rendering:geometricPrecision"
       id="g215">
      <circle
         r="4"
         style="fill:none"
         cx="-0.5"
         cy="-0.5"
         id="circle213" />
    </g>
    <g
       transform="translate(405.05,292.173)"
       style="color-interpolation:linearRGB;fill:#00ff33;stroke:#00ff33;color-rendering:optimizeQuality;image-rendering:optimizeQuality;text-rendering:geometricPrecision"
       id="g219">
      <circle
         r="4"
         style="stroke:none"
         cx="-0.5"
         cy="-0.5"
         id="circle217" />
    </g>
    <g
       transform="translate(405.05,292.173)"
       style="color-interpolation:linearRGB;fill:#00ff33;stroke:#00ff33;stroke-linecap:butt;color-rendering:optimizeQuality;image-rendering:optimizeQuality;text-rendering:geometricPrecision"
       id="g223">
      <circle
         r="4"
         style="fill:none"
         cx="-0.5"
         cy="-0.5"
         id="circle221" />
    </g>
    <g
       transform="translate(444.2,329.8255)"
       style="color-interpolation:linearRGB;fill:#00ff33;stroke:#00ff33;color-rendering:optimizeQuality;image-rendering:optimizeQuality;text-rendering:geometricPrecision"
       id="g227">
      <circle
         r="4"
         style="stroke:none"
         cx="-0.5"
         cy="-0.5"
         id="circle225" />
    </g>
    <g
       transform="translate(444.2,329.8255)"
       style="color-interpolation:linearRGB;fill:#00ff33;stroke:#00ff33;stroke-linecap:butt;color-rendering:optimizeQuality;image-rendering:optimizeQuality;text-rendering:geometricPrecision"
       id="g231">
      <circle
         r="4"
         style="fill:none"
         cx="-0.5"
         cy="-0.5"
         id="circle229" />
    </g>
    <g
       transform="translate(483.35,445.5824)"
       style="color-interpolation:linearRGB;fill:#00ff33;stroke:#00ff33;color-rendering:optimizeQuality;image-rendering:optimizeQuality;text-rendering:geometricPrecision"
       id="g235">
      <circle
         r="4"
         style="stroke:none"
         cx="-0.5"
         cy="-0.5"
         id="circle233" />
    </g>
    <g
       transform="translate(483.35,445.5824)"
       style="color-interpolation:linearRGB;fill:#00ff33;stroke:#00ff33;stroke-linecap:butt;color-rendering:optimizeQuality;image-rendering:optimizeQuality;text-rendering:geometricPrecision"
       id="g239">
      <circle
         r="4"
         style="fill:none"
         cx="-0.5"
         cy="-0.5"
         id="circle237" />
    </g>
    <g
       transform="translate(522.5,480.1224)"
       style="color-interpolation:linearRGB;fill:#00ff33;stroke:#00ff33;color-rendering:optimizeQuality;image-rendering:optimizeQuality;text-rendering:geometricPrecision"
       id="g243">
      <circle
         r="4"
         style="stroke:none"
         cx="-0.5"
         cy="-0.5"
         id="circle241" />
    </g>
    <g
       transform="translate(522.5,480.1224)"
       style="color-interpolation:linearRGB;fill:#00ff33;stroke:#00ff33;stroke-linecap:butt;color-rendering:optimizeQuality;image-rendering:optimizeQuality;text-rendering:geometricPrecision"
       id="g247">
      <circle
         r="4"
         style="fill:none"
         cx="-0.5"
         cy="-0.5"
         id="circle245" />
    </g>
    <g
       transform="translate(561.65,455.082)"
       style="color-interpolation:linearRGB;fill:#00ff33;stroke:#00ff33;color-rendering:optimizeQuality;image-rendering:optimizeQuality;text-rendering:geometricPrecision"
       id="g251">
      <circle
         r="4"
         style="stroke:none"
         cx="-0.5"
         cy="-0.5"
         id="circle249" />
    </g>
    <g
       transform="translate(561.65,455.082)"
       style="color-interpolation:linearRGB;fill:#00ff33;stroke:#00ff33;stroke-linecap:butt;color-rendering:optimizeQuality;image-rendering:optimizeQuality;text-rendering:geometricPrecision"
       id="g255">
      <circle
         r="4"
         style="fill:none"
         cx="-0.5"
         cy="-0.5"
         id="circle253" />
    </g>
    <g
       transform="translate(600.8,380.8693)"
       style="color-interpolation:linearRGB;fill:#00ff33;stroke:#00ff33;color-rendering:optimizeQuality;image-rendering:optimizeQuality;text-rendering:geometricPrecision"
       id="g259">
      <circle
         r="4"
         style="stroke:none"
         cx="-0.5"
         cy="-0.5"
         id="circle257" />
    </g>
    <g
       transform="translate(600.8,380.8693)"
       style="color-interpolation:linearRGB;fill:#00ff33;stroke:#00ff33;stroke-linecap:butt;color-rendering:optimizeQuality;image-rendering:optimizeQuality;text-rendering:geometricPrecision"
       id="g263">
      <circle
         r="4"
         style="fill:none"
         cx="-0.5"
         cy="-0.5"
         id="circle261" />
    </g>
    <g
       transform="translate(639.95,374.0885)"
       style="color-interpolation:linearRGB;fill:#00ff33;stroke:#00ff33;color-rendering:optimizeQuality;image-rendering:optimizeQuality;text-rendering:geometricPrecision"
       id="g267">
      <circle
         r="4"
         style="stroke:none"
         cx="-0.5"
         cy="-0.5"
         id="circle265" />
    </g>
    <g
       transform="translate(639.95,374.0885)"
       style="color-interpolation:linearRGB;fill:#00ff33;stroke:#00ff33;stroke-linecap:butt;color-rendering:optimizeQuality;image-rendering:optimizeQuality;text-rendering:geometricPrecision"
       id="g271">
      <circle
         r="4"
         style="fill:none"
         cx="-0.5"
         cy="-0.5"
         id="circle269" />
    </g>
    <g
       transform="translate(679.1,472.0197)"
       style="color-interpolation:linearRGB;fill:#00ff33;stroke:#00ff33;color-rendering:optimizeQuality;image-rendering:optimizeQuality;text-rendering:geometricPrecision"
       id="g275">
      <circle
         r="4"
         style="stroke:none"
         cx="-0.5"
         cy="-0.5"
         id="circle273" />
    </g>
    <g
       transform="translate(679.1,472.0197)"
       style="color-interpolation:linearRGB;fill:#00ff33;stroke:#00ff33;stroke-linecap:butt;color-rendering:optimizeQuality;image-rendering:optimizeQuality;text-rendering:geometricPrecision"
       id="g279">
      <circle
         r="4"
         style="fill:none"
         cx="-0.5"
         cy="-0.5"
         id="circle277" />
    </g>
    <g
       transform="translate(718.25,530.0853)"
       style="color-interpolation:linearRGB;fill:#00ff33;stroke:#00ff33;color-rendering:optimizeQuality;image-rendering:optimizeQuality;text-rendering:geometricPrecision"
       id="g283">
      <circle
         r="4"
         style="stroke:none"
         cx="-0.5"
         cy="-0.5"
         id="circle281" />
    </g>
    <g
       transform="translate(718.25,530.0853)"
       style="color-interpolation:linearRGB;fill:#00ff33;stroke:#00ff33;stroke-linecap:butt;color-rendering:optimizeQuality;image-rendering:optimizeQuality;text-rendering:geometricPrecision"
       id="g287">
      <circle
         r="4"
         style="fill:none"
         cx="-0.5"
         cy="-0.5"
         id="circle285" />
    </g>
    <g
       transform="translate(757.4,498.8333)"
       style="color-interpolation:linearRGB;fill:#00ff33;stroke:#00ff33;color-rendering:optimizeQuality;image-rendering:optimizeQuality;text-rendering:geometricPrecision"
       id="g291">
      <circle
         r="4"
         style="stroke:none"
         cx="-0.5"
         cy="-0.5"
         id="circle289" />
    </g>
    <g
       transform="translate(757.4,498.8333)"
       style="color-interpolation:linearRGB;fill:#00ff33;stroke:#00ff33;stroke-linecap:butt;color-rendering:optimizeQuality;image-rendering:optimizeQuality;text-rendering:geometricPrecision"
       id="g295">
      <circle
         r="4"
         style="fill:none"
         cx="-0.5"
         cy="-0.5"
         id="circle293" />
    </g>
    <g
       transform="translate(796.55,463.841)"
       style="color-interpolation:linearRGB;fill:#00ff33;stroke:#00ff33;color-rendering:optimizeQuality;image-rendering:optimizeQuality;text-rendering:geometricPrecision"
       id="g299">
      <circle
         r="4"
         style="stroke:none"
         cx="-0.5"
         cy="-0.5"
         id="circle297" />
    </g>
    <g
       transform="translate(796.55,463.841)"
       style="color-interpolation:linearRGB;fill:#00ff33;stroke:#00ff33;stroke-linecap:butt;color-rendering:optimizeQuality;image-rendering:optimizeQuality;text-rendering:geometricPrecision"
       id="g303">
      <circle
         r="4"
         style="fill:none"
         cx="-0.5"
         cy="-0.5"
         id="circle301" />
    </g>
    <g
       transform="translate(835.7,523.694)"
       style="color-interpolation:linearRGB;fill:#00ff33;stroke:#00ff33;color-rendering:optimizeQuality;image-rendering:optimizeQuality;text-rendering:geometricPrecision"
       id="g307">
      <circle
         r="4"
         style="stroke:none"
         cx="-0.5"
         cy="-0.5"
         id="circle305" />
    </g>
    <g
       transform="translate(835.7,523.694)"
       style="color-interpolation:linearRGB;fill:#00ff33;stroke:#00ff33;stroke-linecap:butt;color-rendering:optimizeQuality;image-rendering:optimizeQuality;text-rendering:geometricPrecision"
       id="g311">
      <circle
         r="4"
         style="fill:none"
         cx="-0.5"
         cy="-0.5"
         id="circle309" />
    </g>
    <g
       transform="translate(874.85,378.6688)"
       style="color-interpolation:linearRGB;fill:#00ff33;stroke:#00ff33;color-rendering:optimizeQuality;image-rendering:optimizeQuality;text-rendering:geometricPrecision"
       id="g315">
      <circle
         r="4"
         style="stroke:none"
         cx="-0.5"
         cy="-0.5"
         id="circle313" />
    </g>
    <g
       transform="translate(874.85,378.6688)"
       style="color-interpolation:linearRGB;fill:#00ff33;stroke:#00ff33;stroke-linecap:butt;color-rendering:optimizeQuality;image-rendering:optimizeQuality;text-rendering:geometricPrecision"
       id="g319">
      <circle
         r="4"
         style="fill:none"
         cx="-0.5"
         cy="-0.5"
         id="circle317" />
    </g>
    <g
       transform="translate(914,550.8478)"
       style="color-interpolation:linearRGB;fill:#00ff33;stroke:#00ff33;color-rendering:optimizeQuality;image-rendering:optimizeQuality;text-rendering:geometricPrecision"
       id="g323">
      <circle
         r="4"
         style="stroke:none"
         cx="-0.5"
         cy="-0.5"
         id="circle321" />
    </g>
    <g
       transform="translate(914,550.8478)"
       style="color-interpolation:linearRGB;fill:#00ff33;stroke:#00ff33;stroke-linecap:butt;color-rendering:optimizeQuality;image-rendering:optimizeQuality;text-rendering:geometricPrecision"
       id="g327">
      <circle
         r="4"
         style="fill:none"
         cx="-0.5"
         cy="-0.5"
         id="circle325" />
    </g>
    <g
       style="color-interpolation:linearRGB;fill:#ff9900;stroke:#ff9900;stroke-width:4.69999981;stroke-linecap:butt;stroke-linejoin:round;stroke-miterlimit:10;stroke-dasharray:none;color-rendering:optimizeQuality;image-rendering:optimizeQuality;text-rendering:geometricPrecision"
       id="g331">
      <path
         d="m 170.15,472.0861 39.15,-53.8857 39.15,-9.1037 39.15,23.7808 39.15,7.3379 39.15,90.3512 39.15,-117.4312 39.15,100.6848 39.15,-24.5236 39.15,-40.7645 39.15,-1.0092 39.15,53.3487 39.15,-15.2214 39.15,59.3271 39.15,-77.246 39.15,-24.7463 39.15,61.3664 39.15,1.1681 39.15,-17.4456 39.15,6.698 0.0933,1.0301"
         style="fill:none;fill-rule:evenodd;stroke-width:4.69999981;stroke-miterlimit:10;stroke-dasharray:none"
         id="path329"
         inkscape:connector-curvature="0" />
    </g>
    <g
       transform="translate(170.15,472.0861)"
       style="color-interpolation:linearRGB;fill:#ff9900;stroke:#ff9900;color-rendering:optimizeQuality;image-rendering:optimizeQuality;text-rendering:geometricPrecision"
       id="g335">
      <circle
         r="4"
         style="stroke:none"
         cx="-0.5"
         cy="-0.5"
         id="circle333" />
    </g>
    <g
       transform="translate(170.15,472.0861)"
       style="color-interpolation:linearRGB;fill:#ff9900;stroke:#ff9900;stroke-linecap:butt;color-rendering:optimizeQuality;image-rendering:optimizeQuality;text-rendering:geometricPrecision"
       id="g339">
      <circle
         r="4"
         style="fill:none"
         cx="-0.5"
         cy="-0.5"
         id="circle337" />
    </g>
    <g
       transform="translate(209.3,418.2004)"
       style="color-interpolation:linearRGB;fill:#ff9900;stroke:#ff9900;color-rendering:optimizeQuality;image-rendering:optimizeQuality;text-rendering:geometricPrecision"
       id="g343">
      <circle
         r="4"
         style="stroke:none"
         cx="-0.5"
         cy="-0.5"
         id="circle341" />
    </g>
    <g
       transform="translate(209.3,418.2004)"
       style="color-interpolation:linearRGB;fill:#ff9900;stroke:#ff9900;stroke-linecap:butt;color-rendering:optimizeQuality;image-rendering:optimizeQuality;text-rendering:geometricPrecision"
       id="g347">
      <circle
         r="4"
         style="fill:none"
         cx="-0.5"
         cy="-0.5"
         id="circle345" />
    </g>
    <g
       transform="translate(248.45,409.0967)"
       style="color-interpolation:linearRGB;fill:#ff9900;stroke:#ff9900;color-rendering:optimizeQuality;image-rendering:optimizeQuality;text-rendering:geometricPrecision"
       id="g351">
      <circle
         r="4"
         style="stroke:none"
         cx="-0.5"
         cy="-0.5"
         id="circle349" />
    </g>
    <g
       transform="translate(248.45,409.0967)"
       style="color-interpolation:linearRGB;fill:#ff9900;stroke:#ff9900;stroke-linecap:butt;color-rendering:optimizeQuality;image-rendering:optimizeQuality;text-rendering:geometricPrecision"
       id="g355">
      <circle
         r="4"
         style="fill:none"
         cx="-0.5"
         cy="-0.5"
         id="circle353" />
    </g>
    <g
       transform="translate(287.6,432.8775)"
       style="color-interpolation:linearRGB;fill:#ff9900;stroke:#ff9900;color-rendering:optimizeQuality;image-rendering:optimizeQuality;text-rendering:geometricPrecision"
       id="g359">
      <circle
         r="4"
         style="stroke:none"
         cx="-0.5"
         cy="-0.5"
         id="circle357" />
    </g>
    <g
       transform="translate(287.6,432.8775)"
       style="color-interpolation:linearRGB;fill:#ff9900;stroke:#ff9900;stroke-linecap:butt;color-rendering:optimizeQuality;image-rendering:optimizeQuality;text-rendering:geometricPrecision"
       id="g363">
      <circle
         r="4"
         style="fill:none"
         cx="-0.5"
         cy="-0.5"
         id="circle361" />
    </g>
    <g
       transform="translate(326.75,440.2154)"
       style="color-interpolation:linearRGB;fill:#ff9900;stroke:#ff9900;color-rendering:optimizeQuality;image-rendering:optimizeQuality;text-rendering:geometricPrecision"
       id="g367">
      <circle
         r="4"
         style="stroke:none"
         cx="-0.5"
         cy="-0.5"
         id="circle365" />
    </g>
    <g
       transform="translate(326.75,440.2154)"
       style="color-interpolation:linearRGB;fill:#ff9900;stroke:#ff9900;stroke-linecap:butt;color-rendering:optimizeQuality;image-rendering:optimizeQuality;text-rendering:geometricPrecision"
       id="g371">
      <circle
         r="4"
         style="fill:none"
         cx="-0.5"
         cy="-0.5"
         id="circle369" />
    </g>
    <g
       transform="translate(365.9,530.5666)"
       style="color-interpolation:linearRGB;fill:#ff9900;stroke:#ff9900;color-rendering:optimizeQuality;image-rendering:optimizeQuality;text-rendering:geometricPrecision"
       id="g375">
      <circle
         r="4"
         style="stroke:none"
         cx="-0.5"
         cy="-0.5"
         id="circle373" />
    </g>
    <g
       transform="translate(365.9,530.5666)"
       style="color-interpolation:linearRGB;fill:#ff9900;stroke:#ff9900;stroke-linecap:butt;color-rendering:optimizeQuality;image-rendering:optimizeQuality;text-rendering:geometricPrecision"
       id="g379">
      <circle
         r="4"
         style="fill:none"
         cx="-0.5"
         cy="-0.5"
         id="circle377" />
    </g>
    <g
       transform="translate(405.05,413.1354)"
       style="color-interpolation:linearRGB;fill:#ff9900;stroke:#ff9900;color-rendering:optimizeQuality;image-rendering:optimizeQuality;text-rendering:geometricPrecision"
       id="g383">
      <circle
         r="4"
         style="stroke:none"
         cx="-0.5"
         cy="-0.5"
         id="circle381" />
    </g>
    <g
       transform="translate(405.05,413.1354)"
       style="color-interpolation:linearRGB;fill:#ff9900;stroke:#ff9900;stroke-linecap:butt;color-rendering:optimizeQuality;image-rendering:optimizeQuality;text-rendering:geometricPrecision"
       id="g387">
      <circle
         r="4"
         style="fill:none"
         cx="-0.5"
         cy="-0.5"
         id="circle385" />
    </g>
    <g
       transform="translate(444.2,513.8202)"
       style="color-interpolation:linearRGB;fill:#ff9900;stroke:#ff9900;color-rendering:optimizeQuality;image-rendering:optimizeQuality;text-rendering:geometricPrecision"
       id="g391">
      <circle
         r="4"
         style="stroke:none"
         cx="-0.5"
         cy="-0.5"
         id="circle389" />
    </g>
    <g
       transform="translate(444.2,513.8202)"
       style="color-interpolation:linearRGB;fill:#ff9900;stroke:#ff9900;stroke-linecap:butt;color-rendering:optimizeQuality;image-rendering:optimizeQuality;text-rendering:geometricPrecision"
       id="g395">
      <circle
         r="4"
         style="fill:none"
         cx="-0.5"
         cy="-0.5"
         id="circle393" />
    </g>
    <g
       transform="translate(483.35,489.2966)"
       style="color-interpolation:linearRGB;fill:#ff9900;stroke:#ff9900;color-rendering:optimizeQuality;image-rendering:optimizeQuality;text-rendering:geometricPrecision"
       id="g399">
      <circle
         r="4"
         style="stroke:none"
         cx="-0.5"
         cy="-0.5"
         id="circle397" />
    </g>
    <g
       transform="translate(483.35,489.2966)"
       style="color-interpolation:linearRGB;fill:#ff9900;stroke:#ff9900;stroke-linecap:butt;color-rendering:optimizeQuality;image-rendering:optimizeQuality;text-rendering:geometricPrecision"
       id="g403">
      <circle
         r="4"
         style="fill:none"
         cx="-0.5"
         cy="-0.5"
         id="circle401" />
    </g>
    <g
       transform="translate(522.5,448.5321)"
       style="color-interpolation:linearRGB;fill:#ff9900;stroke:#ff9900;color-rendering:optimizeQuality;image-rendering:optimizeQuality;text-rendering:geometricPrecision"
       id="g407">
      <circle
         r="4"
         style="stroke:none"
         cx="-0.5"
         cy="-0.5"
         id="circle405" />
    </g>
    <g
       transform="translate(522.5,448.5321)"
       style="color-interpolation:linearRGB;fill:#ff9900;stroke:#ff9900;stroke-linecap:butt;color-rendering:optimizeQuality;image-rendering:optimizeQuality;text-rendering:geometricPrecision"
       id="g411">
      <circle
         r="4"
         style="fill:none"
         cx="-0.5"
         cy="-0.5"
         id="circle409" />
    </g>
    <g
       transform="translate(561.65,447.5229)"
       style="color-interpolation:linearRGB;fill:#ff9900;stroke:#ff9900;color-rendering:optimizeQuality;image-rendering:optimizeQuality;text-rendering:geometricPrecision"
       id="g415">
      <circle
         r="4"
         style="stroke:none"
         cx="-0.5"
         cy="-0.5"
         id="circle413" />
    </g>
    <g
       transform="translate(561.65,447.5229)"
       style="color-interpolation:linearRGB;fill:#ff9900;stroke:#ff9900;stroke-linecap:butt;color-rendering:optimizeQuality;image-rendering:optimizeQuality;text-rendering:geometricPrecision"
       id="g419">
      <circle
         r="4"
         style="fill:none"
         cx="-0.5"
         cy="-0.5"
         id="circle417" />
    </g>
    <g
       transform="translate(600.8,500.8716)"
       style="color-interpolation:linearRGB;fill:#ff9900;stroke:#ff9900;color-rendering:optimizeQuality;image-rendering:optimizeQuality;text-rendering:geometricPrecision"
       id="g423">
      <circle
         r="4"
         style="stroke:none"
         cx="-0.5"
         cy="-0.5"
         id="circle421" />
    </g>
    <g
       transform="translate(600.8,500.8716)"
       style="color-interpolation:linearRGB;fill:#ff9900;stroke:#ff9900;stroke-linecap:butt;color-rendering:optimizeQuality;image-rendering:optimizeQuality;text-rendering:geometricPrecision"
       id="g427">
      <circle
         r="4"
         style="fill:none"
         cx="-0.5"
         cy="-0.5"
         id="circle425" />
    </g>
    <g
       transform="translate(639.95,485.6502)"
       style="color-interpolation:linearRGB;fill:#ff9900;stroke:#ff9900;color-rendering:optimizeQuality;image-rendering:optimizeQuality;text-rendering:geometricPrecision"
       id="g431">
      <circle
         r="4"
         style="stroke:none"
         cx="-0.5"
         cy="-0.5"
         id="circle429" />
    </g>
    <g
       transform="translate(639.95,485.6502)"
       style="color-interpolation:linearRGB;fill:#ff9900;stroke:#ff9900;stroke-linecap:butt;color-rendering:optimizeQuality;image-rendering:optimizeQuality;text-rendering:geometricPrecision"
       id="g435">
      <circle
         r="4"
         style="fill:none"
         cx="-0.5"
         cy="-0.5"
         id="circle433" />
    </g>
    <g
       transform="translate(679.1,544.9773)"
       style="color-interpolation:linearRGB;fill:#ff9900;stroke:#ff9900;color-rendering:optimizeQuality;image-rendering:optimizeQuality;text-rendering:geometricPrecision"
       id="g439">
      <circle
         r="4"
         style="stroke:none"
         cx="-0.5"
         cy="-0.5"
         id="circle437" />
    </g>
    <g
       transform="translate(679.1,544.9773)"
       style="color-interpolation:linearRGB;fill:#ff9900;stroke:#ff9900;stroke-linecap:butt;color-rendering:optimizeQuality;image-rendering:optimizeQuality;text-rendering:geometricPrecision"
       id="g443">
      <circle
         r="4"
         style="fill:none"
         cx="-0.5"
         cy="-0.5"
         id="circle441" />
    </g>
    <g
       transform="translate(718.25,467.7313)"
       style="color-interpolation:linearRGB;fill:#ff9900;stroke:#ff9900;color-rendering:optimizeQuality;image-rendering:optimizeQuality;text-rendering:geometricPrecision"
       id="g447">
      <circle
         r="4"
         style="stroke:none"
         cx="-0.5"
         cy="-0.5"
         id="circle445" />
    </g>
    <g
       transform="translate(718.25,467.7313)"
       style="color-interpolation:linearRGB;fill:#ff9900;stroke:#ff9900;stroke-linecap:butt;color-rendering:optimizeQuality;image-rendering:optimizeQuality;text-rendering:geometricPrecision"
       id="g451">
      <circle
         r="4"
         style="fill:none"
         cx="-0.5"
         cy="-0.5"
         id="circle449" />
    </g>
    <g
       transform="translate(757.4,442.985)"
       style="color-interpolation:linearRGB;fill:#ff9900;stroke:#ff9900;color-rendering:optimizeQuality;image-rendering:optimizeQuality;text-rendering:geometricPrecision"
       id="g455">
      <circle
         r="4"
         style="stroke:none"
         cx="-0.5"
         cy="-0.5"
         id="circle453" />
    </g>
    <g
       transform="translate(757.4,442.985)"
       style="color-interpolation:linearRGB;fill:#ff9900;stroke:#ff9900;stroke-linecap:butt;color-rendering:optimizeQuality;image-rendering:optimizeQuality;text-rendering:geometricPrecision"
       id="g459">
      <circle
         r="4"
         style="fill:none"
         cx="-0.5"
         cy="-0.5"
         id="circle457" />
    </g>
    <g
       transform="translate(796.55,504.3514)"
       style="color-interpolation:linearRGB;fill:#ff9900;stroke:#ff9900;color-rendering:optimizeQuality;image-rendering:optimizeQuality;text-rendering:geometricPrecision"
       id="g463">
      <circle
         r="4"
         style="stroke:none"
         cx="-0.5"
         cy="-0.5"
         id="circle461" />
    </g>
    <g
       transform="translate(796.55,504.3514)"
       style="color-interpolation:linearRGB;fill:#ff9900;stroke:#ff9900;stroke-linecap:butt;color-rendering:optimizeQuality;image-rendering:optimizeQuality;text-rendering:geometricPrecision"
       id="g467">
      <circle
         r="4"
         style="fill:none"
         cx="-0.5"
         cy="-0.5"
         id="circle465" />
    </g>
    <g
       transform="translate(835.7,505.5195)"
       style="color-interpolation:linearRGB;fill:#ff9900;stroke:#ff9900;color-rendering:optimizeQuality;image-rendering:optimizeQuality;text-rendering:geometricPrecision"
       id="g471">
      <circle
         r="4"
         style="stroke:none"
         cx="-0.5"
         cy="-0.5"
         id="circle469" />
    </g>
    <g
       transform="translate(835.7,505.5195)"
       style="color-interpolation:linearRGB;fill:#ff9900;stroke:#ff9900;stroke-linecap:butt;color-rendering:optimizeQuality;image-rendering:optimizeQuality;text-rendering:geometricPrecision"
       id="g475">
      <circle
         r="4"
         style="fill:none"
         cx="-0.5"
         cy="-0.5"
         id="circle473" />
    </g>
    <g
       transform="translate(874.85,488.0739)"
       style="color-interpolation:linearRGB;fill:#ff9900;stroke:#ff9900;color-rendering:optimizeQuality;image-rendering:optimizeQuality;text-rendering:geometricPrecision"
       id="g479">
      <circle
         r="4"
         style="stroke:none"
         cx="-0.5"
         cy="-0.5"
         id="circle477" />
    </g>
    <g
       transform="translate(874.85,488.0739)"
       style="color-interpolation:linearRGB;fill:#ff9900;stroke:#ff9900;stroke-linecap:butt;color-rendering:optimizeQuality;image-rendering:optimizeQuality;text-rendering:geometricPrecision"
       id="g483">
      <circle
         r="4"
         style="fill:none"
         cx="-0.5"
         cy="-0.5"
         id="circle481" />
    </g>
    <g
       transform="translate(914,494.7719)"
       style="color-interpolation:linearRGB;fill:#ff9900;stroke:#ff9900;color-rendering:optimizeQuality;image-rendering:optimizeQuality;text-rendering:geometricPrecision"
       id="g487">
      <circle
         r="4"
         style="stroke:none"
         cx="-0.5"
         cy="-0.5"
         id="circle485" />
    </g>
    <g
       transform="translate(914,494.7719)"
       style="color-interpolation:linearRGB;fill:#ff9900;stroke:#ff9900;stroke-linecap:butt;color-rendering:optimizeQuality;image-rendering:optimizeQuality;text-rendering:geometricPrecision"
       id="g491">
      <circle
         r="4"
         style="fill:none"
         cx="-0.5"
         cy="-0.5"
         id="circle489" />
    </g>
    <g
       style="color-interpolation:sRGB;fill:#ffffff;stroke:#ffffff;color-rendering:optimizeSpeed;image-rendering:optimizeSpeed;shape-rendering:crispEdges;text-rendering:optimizeSpeed"
       id="g495">
      <path
         style="stroke:none"
         d="M 744,154 V 73 h 157 v 81 z"
         id="path493"
         inkscape:connector-curvature="0" />
    </g>
    <g
       transform="translate(791,97)"
       style="font-size:24px;font-family:'Times New Roman';color-interpolation:linearRGB;color-rendering:optimizeQuality;image-rendering:optimizeQuality;text-rendering:geometricPrecision"
       id="g499">
      <path
         style="stroke:none"
         d="m 13.8906,-15.8906 0.1719,3.7187 H 13.625 q -0.1406,-0.9843 -0.3594,-1.4062 -0.3594,-0.6719 -0.9609,-0.9922 -0.6016,-0.3203 -1.5859,-0.3203 h -2.25 V -2.75 q 0,1.4531 0.3281,1.8281 0.4375,0.4844 1.3593,0.4844 h 0.5626 V 0 h -6.75 v -0.4375 h 0.5624 q 1.0157,0 1.4376,-0.6094 0.25,-0.375 0.25,-1.7031 V -14.8906 H 4.3125 q -1.1094,0 -1.5781,0.1562 -0.6094,0.2188 -1.0469,0.8516 Q 1.25,-13.25 1.1719,-12.1719 H 0.7344 l 0.1875,-3.7187 z m 7.2071,5.5468 h 12.6406 v 0.9532 H 21.0977 Z m 0,3.8126 h 12.6406 v 0.9687 H 21.0977 Z m 19.9726,-1.3282 q 0,-2.7187 0.8203,-4.6797 0.8203,-1.9609 2.1797,-2.914 1.0469,-0.7657 2.1719,-0.7657 1.8281,0 3.2812,1.8594 1.8125,2.3125 1.8125,6.2656 0,2.7657 -0.7968,4.6954 -0.7969,1.9296 -2.0313,2.8046 -1.2344,0.875 -2.375,0.875 -2.2812,0 -3.7969,-2.6874 -1.2656,-2.2657 -1.2656,-5.4532 z m 2.2969,0.2969 q 0,3.2813 0.7969,5.3594 0.6718,1.75 2,1.75 0.625,0 1.3047,-0.5703 0.6796,-0.5704 1.039,-1.9141 0.5313,-2.0156 0.5313,-5.6719 0,-2.7187 -0.5625,-4.5468 -0.4219,-1.3438 -1.0782,-1.9063 -0.4843,-0.3906 -1.1718,-0.3906 -0.7969,0 -1.4063,0.7187 -0.8437,0.9688 -1.1484,3.0547 -0.3047,2.0859 -0.3047,4.1172 z m 11.8281,5.2813 q 0.5469,0 0.9219,0.3828 0.375,0.3828 0.375,0.9296 0,0.5313 -0.375,0.9141 -0.375,0.3828 -0.9219,0.3828 -0.5312,0 -0.9141,-0.3828 -0.3828,-0.3828 -0.3828,-0.9141 0,-0.5624 0.3828,-0.9374 0.3829,-0.375 0.9141,-0.375 z m 4.2656,2.6093 v -0.4375 q 1.5313,-0.0156 2.8438,-0.7031 1.3125,-0.6875 2.5312,-2.3984 1.2188,-1.711 1.7032,-3.7579 -1.8438,1.1719 -3.3282,1.1719 -1.6718,0 -2.8671,-1.289 -1.1954,-1.2891 -1.1954,-3.4453 0,-2.0782 1.1875,-3.7032 1.4532,-1.9844 3.7657,-1.9844 1.9531,0 3.3593,1.6094 1.7032,2.0156 1.7032,4.9532 0,2.6406 -1.2969,4.9374 -1.2969,2.2969 -3.625,3.7969 -1.8906,1.25 -4.1094,1.25 z m 7.2657,-8.1719 q 0.2187,-1.5156 0.2187,-2.4374 0,-1.1407 -0.3906,-2.4532 -0.3906,-1.3125 -1.1016,-2.0156 -0.7109,-0.7031 -1.6015,-0.7031 -1.0469,0 -1.836,0.9375 -0.789,0.9375 -0.789,2.7812 0,2.4688 1.0468,3.875 0.7657,1 1.875,1 0.5469,0 1.2813,-0.2578 0.7344,-0.2578 1.2969,-0.7266 z M 81.1953,-3.0625 80.0859,0 h -9.375 v -0.4375 q 4.1407,-3.7656 5.8282,-6.1563 1.6875,-2.3906 1.6875,-4.375 0,-1.5156 -0.9297,-2.4843 -0.9297,-0.9688 -2.211,-0.9688 -1.1718,0 -2.1015,0.6797 -0.9297,0.6797 -1.3828,2.0078 h -0.4375 q 0.2968,-2.1718 1.5078,-3.3281 1.2109,-1.1563 3.039,-1.1563 1.9219,0 3.2188,1.2422 1.2969,1.2422 1.2969,2.9297 0,1.2031 -0.5625,2.4063 -0.8594,1.9062 -2.8125,4.0312 -2.9219,3.1875 -3.6407,3.8438 h 4.1407 q 1.2656,0 1.7812,-0.0938 0.5156,-0.0937 0.9219,-0.3828 0.4062,-0.289 0.7187,-0.8203 z m 14.8906,-12.8281 0.1719,3.7187 h -0.4375 q -0.1406,-0.9843 -0.3594,-1.4062 -0.3593,-0.6719 -0.9609,-0.9922 -0.6016,-0.3203 -1.5859,-0.3203 h -2.25 V -2.75 q 0,1.4531 0.3281,1.8281 0.4375,0.4844 1.3594,0.4844 h 0.5625 V 0 h -6.75 v -0.4375 h 0.5625 q 1.0156,0 1.4375,-0.6094 0.25,-0.375 0.25,-1.7031 v -12.1406 h -1.9063 q -1.1094,0 -1.5781,0.1562 -0.6094,0.2188 -1.0469,0.8516 -0.4375,0.6328 -0.5156,1.7109 h -0.4375 l 0.1875,-3.7187 z"
         id="path497"
         inkscape:connector-curvature="0" />
    </g>
    <g
       transform="translate(888,109)"
       style="font-size:19px;font-family:'Times New Roman';color-interpolation:linearRGB;color-rendering:optimizeQuality;image-rendering:optimizeQuality;text-rendering:geometricPrecision"
       id="g503">
      <path
         style="stroke:none"
         d="m 7.8125,-3.2344 q -0.3437,1.6875 -1.3437,2.5938 -1,0.9062 -2.2188,0.9062 -1.4531,0 -2.5234,-1.2187 -1.0704,-1.2188 -1.0704,-3.2813 0,-2.0156 1.1876,-3.2656 1.1874,-1.25 2.8593,-1.25 1.25,0 2.0625,0.6641 0.8125,0.664 0.8125,1.3828 0,0.3437 -0.2343,0.5625 -0.2344,0.2187 -0.6407,0.2187 -0.5469,0 -0.8281,-0.3437 Q 5.7188,-6.4688 5.6719,-7.0156 5.625,-7.5625 5.2969,-7.8438 4.9688,-8.125 4.3906,-8.125 q -0.9218,0 -1.4844,0.6875 -0.75,0.9063 -0.75,2.4063 0,1.5156 0.7422,2.6796 0.7422,1.1641 2.0235,1.1641 0.9062,0 1.625,-0.625 0.5156,-0.4219 1,-1.5469 z"
         id="path501"
         inkscape:connector-curvature="0" />
    </g>
    <g
       style="color-interpolation:linearRGB;fill:#00ff33;stroke:#00ff33;stroke-width:4.69999981;stroke-linecap:butt;stroke-linejoin:round;stroke-miterlimit:10;stroke-dasharray:none;color-rendering:optimizeQuality;image-rendering:optimizeQuality;text-rendering:geometricPrecision"
       id="g507">
      <line
         y2="94.130402"
         style="fill:none;stroke-width:4.69999981;stroke-miterlimit:10;stroke-dasharray:none"
         x1="748"
         x2="788"
         y1="94.130402"
         id="line505" />
    </g>
    <g
       transform="translate(768,94.1304)"
       style="color-interpolation:linearRGB;fill:#00ff33;stroke:#00ff33;color-rendering:optimizeQuality;image-rendering:optimizeQuality;text-rendering:geometricPrecision"
       id="g511">
      <circle
         r="4"
         style="stroke:none"
         cx="-0.5"
         cy="-0.5"
         id="circle509" />
    </g>
    <g
       transform="translate(768,94.1304)"
       style="color-interpolation:linearRGB;fill:#00ff33;stroke:#00ff33;stroke-linecap:butt;color-rendering:optimizeQuality;image-rendering:optimizeQuality;text-rendering:geometricPrecision"
       id="g515">
      <circle
         r="4"
         style="fill:none"
         cx="-0.5"
         cy="-0.5"
         id="circle513" />
    </g>
    <g
       transform="translate(791,136)"
       style="font-size:24px;font-family:'Times New Roman';color-interpolation:linearRGB;color-rendering:optimizeQuality;image-rendering:optimizeQuality;text-rendering:geometricPrecision"
       id="g519">
      <path
         style="stroke:none"
         d="m 13.8906,-15.8906 0.1719,3.7187 H 13.625 q -0.1406,-0.9843 -0.3594,-1.4062 -0.3594,-0.6719 -0.9609,-0.9922 -0.6016,-0.3203 -1.5859,-0.3203 h -2.25 V -2.75 q 0,1.4531 0.3281,1.8281 0.4375,0.4844 1.3593,0.4844 h 0.5626 V 0 h -6.75 v -0.4375 h 0.5624 q 1.0157,0 1.4376,-0.6094 0.25,-0.375 0.25,-1.7031 V -14.8906 H 4.3125 q -1.1094,0 -1.5781,0.1562 -0.6094,0.2188 -1.0469,0.8516 Q 1.25,-13.25 1.1719,-12.1719 H 0.7344 l 0.1875,-3.7187 z m 7.2071,5.5468 h 12.6406 v 0.9532 H 21.0977 Z m 0,3.8126 h 12.6406 v 0.9687 H 21.0977 Z M 51.1953,-3.0625 50.0859,0 h -9.375 v -0.4375 q 4.1407,-3.7656 5.8282,-6.1563 1.6875,-2.3906 1.6875,-4.375 0,-1.5156 -0.9297,-2.4843 -0.9297,-0.9688 -2.211,-0.9688 -1.1718,0 -2.1015,0.6797 -0.9297,0.6797 -1.3828,2.0078 h -0.4375 q 0.2968,-2.1718 1.5078,-3.3281 1.2109,-1.1563 3.039,-1.1563 1.9219,0 3.2188,1.2422 1.2969,1.2422 1.2969,2.9297 0,1.2031 -0.5625,2.4063 -0.8594,1.9062 -2.8125,4.0312 -2.9219,3.1875 -3.6407,3.8438 h 4.1407 q 1.2656,0 1.7812,-0.0938 0.5156,-0.0937 0.9219,-0.3828 0.4062,-0.289 0.7187,-0.8203 z m 4,0.7813 q 0.5469,0 0.9219,0.3828 0.375,0.3828 0.375,0.9296 0,0.5313 -0.375,0.9141 -0.375,0.3828 -0.9219,0.3828 -0.5312,0 -0.9141,-0.3828 -0.3828,-0.3828 -0.3828,-0.9141 0,-0.5624 0.3828,-0.9374 0.3829,-0.375 0.9141,-0.375 z m 14.1719,-3.5782 v 1.6563 H 67.2266 V 0 h -1.9219 v -4.2031 h -6.7344 v -1.5 l 7.375,-10.5157 h 1.2813 v 10.3594 z m -4.0625,0 V -13.75 l -5.5781,7.8906 z m 18.7812,-10.0312 0.1719,3.7187 h -0.4375 q -0.1406,-0.9843 -0.3594,-1.4062 -0.3593,-0.6719 -0.9609,-0.9922 -0.6016,-0.3203 -1.5859,-0.3203 h -2.25 V -2.75 q 0,1.4531 0.3281,1.8281 0.4375,0.4844 1.3594,0.4844 h 0.5625 V 0 h -6.75 v -0.4375 h 0.5625 q 1.0156,0 1.4375,-0.6094 0.25,-0.375 0.25,-1.7031 v -12.1406 h -1.9063 q -1.1094,0 -1.5781,0.1562 -0.6094,0.2188 -1.0469,0.8516 -0.4375,0.6328 -0.5156,1.7109 h -0.4375 l 0.1875,-3.7187 z"
         id="path517"
         inkscape:connector-curvature="0" />
    </g>
    <g
       transform="translate(876,148)"
       style="font-size:19px;font-family:'Times New Roman';color-interpolation:linearRGB;color-rendering:optimizeQuality;image-rendering:optimizeQuality;text-rendering:geometricPrecision"
       id="g523">
      <path
         style="stroke:none"
         d="m 7.8125,-3.2344 q -0.3437,1.6875 -1.3437,2.5938 -1,0.9062 -2.2188,0.9062 -1.4531,0 -2.5234,-1.2187 -1.0704,-1.2188 -1.0704,-3.2813 0,-2.0156 1.1876,-3.2656 1.1874,-1.25 2.8593,-1.25 1.25,0 2.0625,0.6641 0.8125,0.664 0.8125,1.3828 0,0.3437 -0.2343,0.5625 -0.2344,0.2187 -0.6407,0.2187 -0.5469,0 -0.8281,-0.3437 Q 5.7188,-6.4688 5.6719,-7.0156 5.625,-7.5625 5.2969,-7.8438 4.9688,-8.125 4.3906,-8.125 q -0.9218,0 -1.4844,0.6875 -0.75,0.9063 -0.75,2.4063 0,1.5156 0.7422,2.6796 0.7422,1.1641 2.0235,1.1641 0.9062,0 1.625,-0.625 0.5156,-0.4219 1,-1.5469 z"
         id="path521"
         inkscape:connector-curvature="0" />
    </g>
    <g
       style="color-interpolation:linearRGB;fill:#ff9900;stroke:#ff9900;stroke-width:4.69999981;stroke-linecap:butt;stroke-linejoin:round;stroke-miterlimit:10;stroke-dasharray:none;color-rendering:optimizeQuality;image-rendering:optimizeQuality;text-rendering:geometricPrecision"
       id="g527">
      <line
         y2="132.8696"
         style="fill:none;stroke-width:4.69999981;stroke-miterlimit:10;stroke-dasharray:none"
         x1="748"
         x2="788"
         y1="132.8696"
         id="line525" />
    </g>
    <g
       transform="translate(768,132.8696)"
       style="color-interpolation:linearRGB;fill:#ff9900;stroke:#ff9900;color-rendering:optimizeQuality;image-rendering:optimizeQuality;text-rendering:geometricPrecision"
       id="g531">
      <circle
         r="4"
         style="stroke:none"
         cx="-0.5"
         cy="-0.5"
         id="circle529" />
    </g>
    <g
       transform="translate(768,132.8696)"
       style="color-interpolation:linearRGB;fill:#ff9900;stroke:#ff9900;stroke-linecap:butt;color-rendering:optimizeQuality;image-rendering:optimizeQuality;text-rendering:geometricPrecision"
       id="g537">
      <circle
         r="4"
         style="fill:none"
         cx="-0.5"
         cy="-0.5"
         id="circle533" />
      <path
         transform="translate(-768,-132.8696)"
         style="fill:none;fill-rule:evenodd;stroke:#262626;stroke-width:0.66670001"
         d="M 744,154 V 73 h 157 v 81 z"
         id="path535"
         inkscape:connector-curvature="0" />
    </g>
  </g>
  <text
     xml:space="preserve"
     style="font-style:normal;font-variant:normal;font-weight:normal;font-stretch:normal;font-size:32.82406235px;line-height:125%;font-family:'CMU Sans Serif';-inkscape-font-specification:'CMU Sans Serif';letter-spacing:0px;word-spacing:0px;fill:#000000;fill-opacity:1;stroke:none;stroke-width:3.07725573px;stroke-linecap:butt;stroke-linejoin:miter;stroke-opacity:1"
     x="361.11386"
     y="631.84882"
     id="text1354"><tspan
       sodipodi:role="line"
       id="tspan1352"
       x="361.11386"
       y="631.84882"
       style="stroke-width:3.07725573px">Pulse Number</tspan></text>
</svg>
